<svg xmlns="http://www.w3.org/2000/svg" xmlns:xlink="http://www.w3.org/1999/xlink" xmlns:lucid="lucid" width="2317.13" height="1662.37"><g transform="translate(0 0)" lucid:page-tab-id="0_0"><path d="M0 0h2317.13v1662.37H0z" fill="#fff"/><path d="M792.2 64a8 8 0 0 1 8-8h836.74a8 8 0 0 1 8 8v47.48a8 8 0 0 1-8 8H800.2a8 8 0 0 1-8-8z" stroke="#000" stroke-opacity="0" stroke-width="2" fill="#fff" fill-opacity="0"/><use xlink:href="#a" transform="matrix(1,0,0,1,796.1889701651771,60) translate(269.0711111111112 37.82444444444443)"/><use xlink:href="#b" transform="matrix(1,0,0,1,796.1889701651771,60) translate(440.039012345679 37.82444444444443)"/><path d="M420 688a8 8 0 0 1 8-8h264a8 8 0 0 1 8 8v203a8 8 0 0 1-8 8H428a8 8 0 0 1-8-8z" stroke="#333" fill="url(#c)"/><use xlink:href="#d" transform="matrix(1,0,0,1,428,688) translate(55.80092592592597 108.21111111111111)"/><path d="M1860.06 168a8 8 0 0 1 8-8h284a8 8 0 0 1 8 8v205a8 8 0 0 1-8 8h-284a8 8 0 0 1-8-8z" stroke="#333" fill="url(#e)"/><use xlink:href="#f" transform="matrix(1,0,0,1,1868.0640064048616,168) translate(0.02469135802473943 88.27777777777779)"/><use xlink:href="#g" transform="matrix(1,0,0,1,1868.0640064048616,168) translate(157.55555555555554 88.27777777777779)"/><use xlink:href="#h" transform="matrix(1,0,0,1,1868.0640064048616,168) translate(112.41975308641976 130.94444444444443)"/><path d="M1880 703a8 8 0 0 1 8-8h244a8 8 0 0 1 8 8v166a8 8 0 0 1-8 8h-244a8 8 0 0 1-8-8z" stroke="#333" fill="url(#i)"/><use xlink:href="#j" transform="matrix(1,0,0,1,1888,703) translate(81.75000000000003 90.15555555555555)"/><path d="M2009.58 383.45V671.8" stroke="#333" stroke-width="4" fill="none"/><path d="M2011.58 383.5h-4v-2.05h4z" stroke="#333" stroke-width=".05" fill="#333"/><path d="M2009.58 688.08l-4.63-14.27h9.27z" stroke="#333" stroke-width="4" fill="#333"/><path d="M1877.55 785.5h-107.3a.25.25 0 0 0-.25.25.25.25 0 0 1-.25.25h-86.56" stroke="#333" stroke-width="4" fill="none"/><path d="M1879.55 787.5h-2.05v-4h2.05z" stroke="#333" stroke-width=".05" fill="#333"/><path d="M1666.92 786l14.27-4.64v9.28z" stroke="#333" stroke-width="4" fill="#333"/><path d="M1067.55 254H572a12 12 0 0 0-12 12v390.8" stroke="#333" stroke-width="4" fill="none"/><path d="M1069.55 256h-2.05v-4h2.05z" stroke="#333" stroke-width=".05" fill="#333"/><path d="M560 673.08l-4.64-14.27h9.28z" stroke="#333" stroke-width="4" fill="#333"/><path d="M560 901.45v271.66" stroke="#333" stroke-width="4" fill="none"/><path d="M562 901.5h-4v-2.05h4z" stroke="#333" stroke-width=".05" fill="#333"/><path d="M560 1189.38l-4.64-14.27h9.28z" stroke="#333" stroke-width="4" fill="#333"/><path d="M1070 171a8 8 0 0 1 8-8h204a8 8 0 0 1 8 8v166a8 8 0 0 1-8 8h-204a8 8 0 0 1-8-8z" stroke="#333" fill="url(#k)"/><use xlink:href="#l" transform="matrix(1,0,0,1,1078,170.99999999999966) translate(26.21111111111115 90.6)"/><path d="M1160 1183a8 8 0 0 1 8-8h344a8 8 0 0 1 8 8v284a8 8 0 0 1-8 8h-344a8 8 0 0 1-8-8z" stroke="#333" fill="url(#m)"/><path d="M1160 1228.6h360" stroke="#333" fill="none"/><use xlink:href="#n" transform="matrix(1,0,0,1,1168,1182.9923106317465) translate(99.2805555555556 25.266666666666666)"/><use xlink:href="#o" transform="matrix(1,0,0,1,1172,1236.5923106317464) translate(120.33055555555556 51.45555555555557)"/><use xlink:href="#p" transform="matrix(1,0,0,1,1172,1236.5923106317464) translate(115.55956790123457 86.38888888888889)"/><use xlink:href="#q" transform="matrix(1,0,0,1,1172,1236.5923106317464) translate(121.98827160493829 121.32222222222222)"/><use xlink:href="#r" transform="matrix(1,0,0,1,1172,1236.5923106317464) translate(136.46296296296296 156.25555555555553)"/><use xlink:href="#s" transform="matrix(1,0,0,1,1172,1236.5923106317464) translate(82.36481481481484 191.18888888888887)"/><path d="M420 1204.3a8 8 0 0 1 8-8h264a8 8 0 0 1 8 8v223a8 8 0 0 1-8 8H428a8 8 0 0 1-8-8z" stroke="#333" fill="url(#t)"/><use xlink:href="#u" transform="matrix(1,0,0,1,428,1204.3) translate(40.374691358024734 118.21111111111111)"/><path d="M702.46 1325h434.35" stroke="#333" stroke-width="4" fill="none"/><path d="M702.5 1327h-2.04v-4h2.05z" stroke="#333" stroke-width=".05" fill="#333"/><path d="M1153.08 1325l-14.27 4.63v-9.27z" stroke="#333" stroke-width="4" fill="#333"/><path d="M540 487.5a8 8 0 0 1 8-8h224a8 8 0 0 1 8 8v44a8 8 0 0 1-8 8H548a8 8 0 0 1-8-8z" stroke="#000" stroke-opacity="0" fill="#fff" fill-opacity="0"/><use xlink:href="#v" transform="matrix(1,0,0,1,545,484.4999999999999) translate(54.3922839506173 29.538888888888884)"/><path d="M2020 508a8 8 0 0 1 8-8h224a8 8 0 0 1 8 8v44a8 8 0 0 1-8 8h-224a8 8 0 0 1-8-8z" stroke="#000" stroke-opacity="0" fill="#fff" fill-opacity="0"/><use xlink:href="#w" transform="matrix(1,0,0,1,2025,505) translate(39.95802469135805 29.538888888888884)"/><path d="M1188.5 346.95v311.98" stroke="#333" stroke-width="3" fill="none"/><path d="M1190 347h-3v-1.55h3z" stroke="#333" stroke-width=".05" fill="#333"/><path d="M1188.5 674.7l-4.63-14.27h9.27z" stroke="#333" stroke-width="3" fill="#333"/><path d="M1070 688a8 8 0 0 1 8-8h221a8 8 0 0 1 8 8v201a8 8 0 0 1-8 8h-221a8 8 0 0 1-8-8z" stroke="#333" fill="url(#x)"/><use xlink:href="#y" transform="matrix(1,0,0,1,1078,688) translate(7.770061728395092 87.07777777777778)"/><use xlink:href="#z" transform="matrix(1,0,0,1,1078,688) translate(110.02129629629628 87.07777777777778)"/><use xlink:href="#A" transform="matrix(1,0,0,1,1078,688) translate(180.76759259259256 87.07777777777778)"/><use xlink:href="#B" transform="matrix(1,0,0,1,1078,688) translate(33.123148148148175 127.34444444444443)"/><path d="M1440 685.5a8 8 0 0 1 8-8h204a8 8 0 0 1 8 8v201a8 8 0 0 1-8 8h-204a8 8 0 0 1-8-8z" stroke="#333" fill="url(#C)"/><use xlink:href="#D" transform="matrix(1,0,0,1,1448,685.5) translate(50.8743827160494 87.07777777777778)"/><use xlink:href="#E" transform="matrix(1,0,0,1,1448,685.5) translate(60.195370370370384 87.07777777777778)"/><use xlink:href="#F" transform="matrix(1,0,0,1,1448,685.5) translate(33.21111111111114 127.34444444444443)"/><path d="M1291.95 254H1538a12 12 0 0 1 12 12v390.43" stroke="#333" stroke-width="3" fill="none"/><path d="M1292 255.5h-1.55v-3h1.54z" stroke="#333" stroke-width=".05" fill="#333"/><path d="M1550 672.2l-4.64-14.27h9.28z" stroke="#333" stroke-width="3" fill="#333"/><path d="M1959.6 878.97v46.48a12 12 0 0 1-12 12h-747.1a12 12 0 0 1-12-12v-7.38" stroke="#333" stroke-width="3" fill="none"/><path d="M1961.1 879h-3v-1.53h3z" stroke="#333" stroke-width=".05" fill="#333"/><path d="M1188.5 902.3l4.64 14.27h-9.27z" stroke="#333" stroke-width="3" fill="#333"/><path d="M1180 442.63a8 8 0 0 1 8-8h224a8 8 0 0 1 8 8v133.74a8 8 0 0 1-8 8h-224a8 8 0 0 1-8-8z" stroke="#000" stroke-opacity="0" fill="#fff" fill-opacity="0"/><use xlink:href="#G" transform="matrix(1,0,0,1,1185,439.6333333333332) translate(31.83117283950621 75.78888888888889)"/><path d="M1540 477.57a8 8 0 0 1 8-8h224a8 8 0 0 1 8 8v63.86a8 8 0 0 1-8 8h-224a8 8 0 0 1-8-8z" stroke="#000" stroke-opacity="0" fill="#fff" fill-opacity="0"/><use xlink:href="#H" transform="matrix(1,0,0,1,1545,474.56666666666655) translate(27.787962962963007 40.788888888888884)"/><use xlink:href="#I" transform="matrix(1,0,0,1,1545,474.56666666666655) translate(35.874382716049425 40.788888888888884)"/><path d="M2070.6 878.93V998a12 12 0 0 1-12 12H752.44a12 12 0 0 1-12-12V801.5a12 12 0 0 0-12-12h-7.38" stroke="#333" stroke-width="3" fill="none"/><path d="M2072.1 878.97h-3v-1.54h3z" stroke="#333" stroke-width=".05" fill="#333"/><path d="M705.3 789.5l14.27-4.64v9.28z" stroke="#333" stroke-width="3" fill="#333"/><path d="M420 907a8 8 0 0 1 8-8h224a8 8 0 0 1 8 8v44a8 8 0 0 1-8 8H428a8 8 0 0 1-8-8z" stroke="#000" stroke-opacity="0" fill="#fff" fill-opacity="0"/><use xlink:href="#J" transform="matrix(1,0,0,1,425,904) translate(107.53086419753086 30.886111111111106)"/><path d="M420 1148a8 8 0 0 1 8-8h224a8 8 0 0 1 8 8v44a8 8 0 0 1-8 8H428a8 8 0 0 1-8-8z" stroke="#000" stroke-opacity="0" fill="#fff" fill-opacity="0"/><use xlink:href="#J" transform="matrix(1,0,0,1,425,1145) translate(107.53086419753086 30.886111111111106)"/><path d="M980 1288a8 8 0 0 1 8-8h224a8 8 0 0 1 8 8v44a8 8 0 0 1-8 8H988a8 8 0 0 1-8-8z" stroke="#000" stroke-opacity="0" fill="#fff" fill-opacity="0"/><use xlink:href="#K" transform="matrix(1,0,0,1,985,1285) translate(87.3641975308642 30.886111111111106)"/><path d="M620 1288a8 8 0 0 1 8-8h224a8 8 0 0 1 8 8v44a8 8 0 0 1-8 8H628a8 8 0 0 1-8-8z" stroke="#000" stroke-opacity="0" fill="#fff" fill-opacity="0"/><use xlink:href="#J" transform="matrix(1,0,0,1,625,1285) translate(107.53086419753086 30.886111111111106)"/><path d="M1920 353a8 8 0 0 1 8-8h224a8 8 0 0 1 8 8v44a8 8 0 0 1-8 8h-224a8 8 0 0 1-8-8z" stroke="#000" stroke-opacity="0" fill="#fff" fill-opacity="0"/><use xlink:href="#J" transform="matrix(1,0,0,1,1925,349.99999999999966) translate(107.53086419753086 30.886111111111106)"/><path d="M1920 648a8 8 0 0 1 8-8h224a8 8 0 0 1 8 8v44a8 8 0 0 1-8 8h-224a8 8 0 0 1-8-8z" stroke="#000" stroke-opacity="0" fill="#fff" fill-opacity="0"/><use xlink:href="#J" transform="matrix(1,0,0,1,1925,645) translate(107.53086419753086 30.886111111111106)"/><path d="M1100 353a8 8 0 0 1 8-8h224a8 8 0 0 1 8 8v44a8 8 0 0 1-8 8h-224a8 8 0 0 1-8-8z" stroke="#000" stroke-opacity="0" fill="#fff" fill-opacity="0"/><use xlink:href="#J" transform="matrix(1,0,0,1,1105,349.99999999999966) translate(107.53086419753086 30.886111111111106)"/><path d="M1100 622a8 8 0 0 1 8-8h224a8 8 0 0 1 8 8v44a8 8 0 0 1-8 8h-224a8 8 0 0 1-8-8z" stroke="#000" stroke-opacity="0" fill="#fff" fill-opacity="0"/><use xlink:href="#J" transform="matrix(1,0,0,1,1105,619.0000000000001) translate(107.53086419753086 30.886111111111106)"/><path d="M1560 728a8 8 0 0 1 8-8h224a8 8 0 0 1 8 8v44a8 8 0 0 1-8 8h-224a8 8 0 0 1-8-8z" stroke="#000" stroke-opacity="0" fill="#fff" fill-opacity="0"/><use xlink:href="#J" transform="matrix(1,0,0,1,1565,725) translate(107.53086419753086 30.886111111111106)"/><path d="M1740 728a8 8 0 0 1 8-8h224a8 8 0 0 1 8 8v44a8 8 0 0 1-8 8h-224a8 8 0 0 1-8-8z" stroke="#000" stroke-opacity="0" fill="#fff" fill-opacity="0"/><use xlink:href="#J" transform="matrix(1,0,0,1,1745,725) translate(107.53086419753086 30.886111111111106)"/><path d="M900 268a8 8 0 0 1 8-8h224a8 8 0 0 1 8 8v44a8 8 0 0 1-8 8H908a8 8 0 0 1-8-8z" stroke="#000" stroke-opacity="0" fill="#fff" fill-opacity="0"/><use xlink:href="#J" transform="matrix(1,0,0,1,905,265) translate(107.53086419753086 30.886111111111106)"/><path d="M480 628a8 8 0 0 1 8-8h224a8 8 0 0 1 8 8v44a8 8 0 0 1-8 8H488a8 8 0 0 1-8-8z" stroke="#000" stroke-opacity="0" fill="#fff" fill-opacity="0"/><g><use xlink:href="#J" transform="matrix(1,0,0,1,485,625) translate(107.53086419753086 30.886111111111106)"/></g><path d="M1200 268a8 8 0 0 1 8-8h224a8 8 0 0 1 8 8v44a8 8 0 0 1-8 8h-224a8 8 0 0 1-8-8z" stroke="#000" stroke-opacity="0" fill="#fff" fill-opacity="0"/><g><use xlink:href="#J" transform="matrix(1,0,0,1,1205,265) translate(107.53086419753086 30.886111111111106)"/></g><path d="M1460 635a8 8 0 0 1 8-8h224a8 8 0 0 1 8 8v44a8 8 0 0 1-8 8h-224a8 8 0 0 1-8-8z" stroke="#000" stroke-opacity="0" fill="#fff" fill-opacity="0"/><g><use xlink:href="#J" transform="matrix(1,0,0,1,1465,631.9999999999998) translate(107.53086419753086 30.886111111111106)"/></g><path d="M1140 902.5a8 8 0 0 1 8-8h224a8 8 0 0 1 8 8v44a8 8 0 0 1-8 8h-224a8 8 0 0 1-8-8z" stroke="#000" stroke-opacity="0" fill="#fff" fill-opacity="0"/><g><use xlink:href="#J" transform="matrix(1,0,0,1,1145,899.5) translate(107.53086419753086 30.886111111111106)"/></g><path d="M1980 902.5a8 8 0 0 1 8-8h224a8 8 0 0 1 8 8v44a8 8 0 0 1-8 8h-224a8 8 0 0 1-8-8z" stroke="#000" stroke-opacity="0" fill="#fff" fill-opacity="0"/><g><use xlink:href="#J" transform="matrix(1,0,0,1,1985,899.5) translate(107.53086419753086 30.886111111111106)"/></g><path d="M1820 902.5a8 8 0 0 1 8-8h224a8 8 0 0 1 8 8v44a8 8 0 0 1-8 8h-224a8 8 0 0 1-8-8z" stroke="#000" stroke-opacity="0" fill="#fff" fill-opacity="0"/><g><use xlink:href="#J" transform="matrix(1,0,0,1,1825,899.5) translate(107.53086419753086 30.886111111111106)"/></g><defs><path fill="#282c33" d="M24-248c120-7 223 5 221 122C244-46 201 0 124 0H24v-248zM76-40c74 7 117-18 117-86 0-67-45-88-117-82v168" id="L"/><path fill="#282c33" d="M140-251c80 0 125 45 125 126S219 4 139 4C58 4 15-44 15-125s44-126 125-126zm-1 214c52 0 73-35 73-88 0-50-21-86-72-86-52 0-73 35-73 86s22 88 72 88" id="M"/><path fill="#282c33" d="M230 0l2-204L168 0h-37L68-204 70 0H24v-248h70l56 185 57-185h69V0h-46" id="N"/><path fill="#282c33" d="M199 0l-22-63H83L61 0H9l90-248h61L250 0h-51zm-33-102l-36-108c-10 38-24 72-36 108h72" id="O"/><path fill="#282c33" d="M24 0v-248h52V0H24" id="P"/><path fill="#282c33" d="M175 0L67-191c6 58 2 128 3 191H24v-248h59L193-55c-6-58-2-129-3-193h46V0h-61" id="Q"/><g id="a"><use transform="matrix(0.10987654320987648,0,0,0.10987654320987648,0,0)" xlink:href="#L"/><use transform="matrix(0.10987654320987648,0,0,0.10987654320987648,28.45802469135801,0)" xlink:href="#M"/><use transform="matrix(0.10987654320987648,0,0,0.10987654320987648,59.22345679012343,0)" xlink:href="#N"/><use transform="matrix(0.10987654320987648,0,0,0.10987654320987648,92.07654320987649,0)" xlink:href="#O"/><use transform="matrix(0.10987654320987648,0,0,0.10987654320987648,120.53456790123451,0)" xlink:href="#P"/><use transform="matrix(0.10987654320987648,0,0,0.10987654320987648,131.52222222222215,0)" xlink:href="#Q"/></g><path fill="#282c33" d="M24 0v-248h195v40H76v63h132v40H76v65h150V0H24" id="R"/><path fill="#282c33" d="M24 0v-248h52v208h133V0H24" id="S"/><g id="b"><use transform="matrix(0.10987654320987648,0,0,0.10987654320987648,0,0)" xlink:href="#N"/><use transform="matrix(0.10987654320987648,0,0,0.10987654320987648,32.85308641975307,0)" xlink:href="#M"/><use transform="matrix(0.10987654320987648,0,0,0.10987654320987648,63.618518518518485,0)" xlink:href="#L"/><use transform="matrix(0.10987654320987648,0,0,0.10987654320987648,92.07654320987649,0)" xlink:href="#R"/><use transform="matrix(0.10987654320987648,0,0,0.10987654320987648,118.44691358024686,0)" xlink:href="#S"/></g><radialGradient gradientUnits="userSpaceOnUse" id="c" fx="560" fy="789.5" cx="560" cy="789.5" r="140"><stop offset="0%" stop-color="#b4d7ff"/><stop offset="55.23%" stop-color="#6db1ff"/><stop offset="100%" stop-color="#2b8eff"/></radialGradient><path fill="#333" d="M240-174c0 40-23 61-54 70L253 0h-59l-57-94H76V0H24v-248c93 4 217-23 216 74zM76-134c48-2 112 12 112-38 0-48-66-32-112-35v73" id="T"/><path fill="#333" d="M24 0v-248h52V0H24" id="U"/><path fill="#333" d="M67-125c0 53 21 87 73 88 37 1 54-22 65-47l45 17C233-25 199 4 140 4 58 4 20-42 15-125 8-235 124-281 211-232c18 10 29 29 36 50l-46 12c-8-25-30-41-62-41-52 0-71 34-72 86" id="V"/><path fill="#333" d="M24 0v-248h195v40H76v63h132v40H76v65h150V0H24" id="W"/><path fill="#333" d="M199 0l-22-63H83L61 0H9l90-248h61L250 0h-51zm-33-102l-36-108c-10 38-24 72-36 108h72" id="X"/><g id="d"><use transform="matrix(0.09320987654320984,0,0,0.09320987654320984,0,0)" xlink:href="#T"/><use transform="matrix(0.09320987654320984,0,0,0.09320987654320984,24.141358024691346,0)" xlink:href="#U"/><use transform="matrix(0.09320987654320984,0,0,0.09320987654320984,33.46234567901233,0)" xlink:href="#V"/><use transform="matrix(0.09320987654320984,0,0,0.09320987654320984,57.603703703703665,0)" xlink:href="#W"/><use transform="matrix(0.09320987654320984,0,0,0.09320987654320984,79.97407407407403,0)" xlink:href="#T"/><use transform="matrix(0.09320987654320984,0,0,0.09320987654320984,104.11543209876537,0)" xlink:href="#V"/><use transform="matrix(0.09320987654320984,0,0,0.09320987654320984,128.2567901234567,0)" xlink:href="#X"/></g><radialGradient gradientUnits="userSpaceOnUse" id="e" fx="2010.06" fy="270.5" cx="2010.06" cy="270.5" r="150"><stop offset="0%" stop-color="#b4d7ff"/><stop offset="55.23%" stop-color="#6db1ff"/><stop offset="100%" stop-color="#2b8eff"/></radialGradient><path fill="#3a414a" d="M24 0v-248h195v40H76v63h132v40H76v65h150V0H24" id="Y"/><path fill="#3a414a" d="M238-95c0 69-44 99-111 99C63 4 22-25 22-93v-155h51v151c-1 38 19 59 55 60 90 1 49-130 58-211h52v153" id="Z"/><path fill="#3a414a" d="M14-72v-43h91v43H14" id="aa"/><path fill="#3a414a" d="M136-208V0H84v-208H4v-40h212v40h-80" id="ab"/><path fill="#3a414a" d="M135-150c-39-12-60 13-60 57V0H25l-1-190h47c2 13-1 29 3 40 6-28 27-53 61-41v41" id="ac"/><path fill="#3a414a" d="M85 4C-2 5 27-109 22-190h50c7 57-23 150 33 157 60-5 35-97 40-157h50l1 190h-47c-2-12 1-28-3-38-12 25-28 42-61 42" id="ad"/><path fill="#3a414a" d="M137-138c1-29-70-34-71-4 15 46 118 7 119 86 1 83-164 76-172 9l43-7c4 19 20 25 44 25 33 8 57-30 24-41C81-84 22-81 20-136c-2-80 154-74 161-7" id="ae"/><path fill="#3a414a" d="M115-3C79 11 28 4 28-45v-112H4v-33h27l15-45h31v45h36v33H77v99c-1 23 16 31 38 25v30" id="af"/><g id="f"><use transform="matrix(0.0987654320987654,0,0,0.0987654320987654,0,0)" xlink:href="#Y"/><use transform="matrix(0.0987654320987654,0,0,0.0987654320987654,23.703703703703695,0)" xlink:href="#Z"/><use transform="matrix(0.0987654320987654,0,0,0.0987654320987654,49.283950617283935,0)" xlink:href="#aa"/><use transform="matrix(0.0987654320987654,0,0,0.0987654320987654,61.03703703703702,0)" xlink:href="#ab"/><use transform="matrix(0.0987654320987654,0,0,0.0987654320987654,80.69135802469133,0)" xlink:href="#ac"/><use transform="matrix(0.0987654320987654,0,0,0.0987654320987654,94.51851851851848,0)" xlink:href="#ad"/><use transform="matrix(0.0987654320987654,0,0,0.0987654320987654,116.14814814814808,0)" xlink:href="#ae"/><use transform="matrix(0.0987654320987654,0,0,0.0987654320987654,135.90123456790118,0)" xlink:href="#af"/></g><path fill="#3a414a" d="M169-182c-1-43-94-46-97-3 18 66 151 10 154 114 3 95-165 93-204 36-6-8-10-19-12-30l50-8c3 46 112 56 116 5-17-69-150-10-154-114-4-87 153-88 188-35 5 8 8 18 10 28" id="ag"/><path fill="#3a414a" d="M185-48c-13 30-37 53-82 52C43 2 14-33 14-96s30-98 90-98c62 0 83 45 84 108H66c0 31 8 55 39 56 18 0 30-7 34-22zm-45-69c5-46-57-63-70-21-2 6-4 13-4 21h74" id="ah"/><path fill="#3a414a" d="M128 0H69L1-190h53L99-40l48-150h52" id="ai"/><path fill="#3a414a" d="M25-224v-37h50v37H25zM25 0v-190h50V0H25" id="aj"/><path fill="#3a414a" d="M190-63c-7 42-38 67-86 67-59 0-84-38-90-98-12-110 154-137 174-36l-49 2c-2-19-15-32-35-32-30 0-35 28-38 64-6 74 65 87 74 30" id="ak"/><g id="g"><use transform="matrix(0.0987654320987654,0,0,0.0987654320987654,0,0)" xlink:href="#ag"/><use transform="matrix(0.0987654320987654,0,0,0.0987654320987654,23.703703703703695,0)" xlink:href="#ah"/><use transform="matrix(0.0987654320987654,0,0,0.0987654320987654,43.45679012345677,0)" xlink:href="#ac"/><use transform="matrix(0.0987654320987654,0,0,0.0987654320987654,57.28395061728393,0)" xlink:href="#ai"/><use transform="matrix(0.0987654320987654,0,0,0.0987654320987654,77.03703703703701,0)" xlink:href="#aj"/><use transform="matrix(0.0987654320987654,0,0,0.0987654320987654,86.91358024691355,0)" xlink:href="#ak"/><use transform="matrix(0.0987654320987654,0,0,0.0987654320987654,106.66666666666663,0)" xlink:href="#ah"/></g><path fill="#3a414a" d="M199 0l-22-63H83L61 0H9l90-248h61L250 0h-51zm-33-102l-36-108c-10 38-24 72-36 108h72" id="al"/><path fill="#3a414a" d="M24-248c93 1 206-16 204 79-1 75-69 88-152 82V0H24v-248zm52 121c47 0 100 7 100-41 0-47-54-39-100-39v80" id="am"/><path fill="#3a414a" d="M24 0v-248h52V0H24" id="an"/><g id="h"><use transform="matrix(0.0987654320987654,0,0,0.0987654320987654,0,0)" xlink:href="#al"/><use transform="matrix(0.0987654320987654,0,0,0.0987654320987654,25.58024691358024,0)" xlink:href="#am"/><use transform="matrix(0.0987654320987654,0,0,0.0987654320987654,49.283950617283935,0)" xlink:href="#an"/></g><radialGradient gradientUnits="userSpaceOnUse" id="i" fx="2010" fy="786" cx="2010" cy="786" r="130"><stop offset="0%" stop-color="#b4d7ff"/><stop offset="55.23%" stop-color="#6db1ff"/><stop offset="100%" stop-color="#2b8eff"/></radialGradient><path fill="#333" d="M24-248c120-7 223 5 221 122C244-46 201 0 124 0H24v-248zM76-40c74 7 117-18 117-86 0-67-45-88-117-82v168" id="ao"/><path fill="#333" d="M136-208V0H84v-208H4v-40h212v40h-80" id="ap"/><g id="j"><use transform="matrix(0.09938271604938267,0,0,0.09938271604938267,0,0)" xlink:href="#ao"/><use transform="matrix(0.09938271604938267,0,0,0.09938271604938267,25.740123456790112,0)" xlink:href="#X"/><use transform="matrix(0.09938271604938267,0,0,0.09938271604938267,48.796913580246894,0)" xlink:href="#ap"/><use transform="matrix(0.09938271604938267,0,0,0.09938271604938267,70.56172839506169,0)" xlink:href="#U"/></g><radialGradient gradientUnits="userSpaceOnUse" id="k" fx="1180" fy="254" cx="1180" cy="254" r="110"><stop offset="0%" stop-color="#b4d7ff"/><stop offset="55.23%" stop-color="#6db1ff"/><stop offset="100%" stop-color="#2b8eff"/></radialGradient><path fill="#333" d="M238-95c0 69-44 99-111 99C63 4 22-25 22-93v-155h51v151c-1 38 19 59 55 60 90 1 49-130 58-211h52v153" id="aq"/><path fill="#333" d="M175 0L67-191c6 58 2 128 3 191H24v-248h59L193-55c-6-58-2-129-3-193h46V0h-61" id="ar"/><g id="l"><use transform="matrix(0.1055555555555555,0,0,0.1055555555555555,0,0)" xlink:href="#aq"/><use transform="matrix(0.1055555555555555,0,0,0.1055555555555555,27.338888888888874,0)" xlink:href="#ap"/><use transform="matrix(0.1055555555555555,0,0,0.1055555555555555,50.45555555555553,0)" xlink:href="#W"/><use transform="matrix(0.1055555555555555,0,0,0.1055555555555555,75.78888888888885,0)" xlink:href="#ar"/><use transform="matrix(0.1055555555555555,0,0,0.1055555555555555,103.12777777777772,0)" xlink:href="#ap"/><use transform="matrix(0.1055555555555555,0,0,0.1055555555555555,126.24444444444438,0)" xlink:href="#W"/></g><radialGradient gradientUnits="userSpaceOnUse" id="m" fx="1340" fy="1324.99" cx="1340" cy="1324.99" r="180"><stop offset="0%" stop-color="#b4d7ff"/><stop offset="55.23%" stop-color="#6db1ff"/><stop offset="100%" stop-color="#2b8eff"/></radialGradient><path d="M169-182c-1-43-94-46-97-3 18 66 151 10 154 114 3 95-165 93-204 36-6-8-10-19-12-30l50-8c3 46 112 56 116 5-17-69-150-10-154-114-4-87 153-88 188-35 5 8 8 18 10 28" id="as"/><path d="M24 0v-248h195v40H76v63h132v40H76v65h150V0H24" id="at"/><path d="M240-174c0 40-23 61-54 70L253 0h-59l-57-94H76V0H24v-248c93 4 217-23 216 74zM76-134c48-2 112 12 112-38 0-48-66-32-112-35v73" id="au"/><path d="M147 0H94L2-248h55l64 206c17-72 42-137 63-206h54" id="av"/><path d="M24 0v-248h52V0H24" id="aw"/><path d="M210 0H11v-37l134-170H24v-41h178v36L68-41h142V0" id="ax"/><path d="M140-251c80 0 125 45 125 126S219 4 139 4C58 4 15-44 15-125s44-126 125-126zm-1 214c52 0 73-35 73-88 0-50-21-86-72-86-52 0-73 35-73 86s22 88 72 88" id="ay"/><g id="n"><use transform="matrix(0.08703703703703701,0,0,0.08703703703703701,0,0)" xlink:href="#as"/><use transform="matrix(0.08703703703703701,0,0,0.08703703703703701,20.888888888888882,0)" xlink:href="#at"/><use transform="matrix(0.08703703703703701,0,0,0.08703703703703701,41.777777777777764,0)" xlink:href="#au"/><use transform="matrix(0.08703703703703701,0,0,0.08703703703703701,63.711111111111094,0)" xlink:href="#av"/><use transform="matrix(0.08703703703703701,0,0,0.08703703703703701,84.59999999999997,0)" xlink:href="#aw"/><use transform="matrix(0.08703703703703701,0,0,0.08703703703703701,93.30370370370366,0)" xlink:href="#ax"/><use transform="matrix(0.08703703703703701,0,0,0.08703703703703701,112.36481481481476,0)" xlink:href="#aw"/><use transform="matrix(0.08703703703703701,0,0,0.08703703703703701,121.06851851851846,0)" xlink:href="#ay"/></g><path fill="#333" d="M96-169c-40 0-48 33-48 73s9 75 48 75c24 0 41-14 43-38l32 2c-6 37-31 61-74 61-59 0-76-41-82-99-10-93 101-131 147-64 4 7 5 14 7 22l-32 3c-4-21-16-35-41-35" id="az"/><path fill="#333" d="M100-194c62-1 85 37 85 99 1 63-27 99-86 99S16-35 15-95c0-66 28-99 85-99zM99-20c44 1 53-31 53-75 0-43-8-75-51-75s-53 32-53 75 10 74 51 75" id="aA"/><path fill="#333" d="M84 4C-5 8 30-112 23-190h32v120c0 31 7 50 39 49 72-2 45-101 50-169h31l1 190h-30c-1-10 1-25-2-33-11 22-28 36-60 37" id="aB"/><path fill="#333" d="M117-194c89-4 53 116 60 194h-32v-121c0-31-8-49-39-48C34-167 62-67 57 0H25l-1-190h30c1 10-1 24 2 32 11-22 29-35 61-36" id="aC"/><path fill="#333" d="M59-47c-2 24 18 29 38 22v24C64 9 27 4 27-40v-127H5v-23h24l9-43h21v43h35v23H59v120" id="aD"/><path fill="#333" d="M114-163C36-179 61-72 57 0H25l-1-190h30c1 12-1 29 2 39 6-27 23-49 58-41v29" id="aE"/><path fill="#333" d="M179-190L93 31C79 59 56 82 12 73V49c39 6 53-20 64-50L1-190h34L92-34l54-156h33" id="aF"/><g id="o"><use transform="matrix(0.08086419753086417,0,0,0.08086419753086417,0,0)" xlink:href="#az"/><use transform="matrix(0.08086419753086417,0,0,0.08086419753086417,14.55555555555555,0)" xlink:href="#aA"/><use transform="matrix(0.08086419753086417,0,0,0.08086419753086417,30.728395061728385,0)" xlink:href="#aB"/><use transform="matrix(0.08086419753086417,0,0,0.08086419753086417,46.90123456790122,0)" xlink:href="#aC"/><use transform="matrix(0.08086419753086417,0,0,0.08086419753086417,63.074074074074055,0)" xlink:href="#aD"/><use transform="matrix(0.08086419753086417,0,0,0.08086419753086417,71.16049382716048,0)" xlink:href="#aE"/><use transform="matrix(0.08086419753086417,0,0,0.08086419753086417,80.78333333333332,0)" xlink:href="#aF"/></g><path fill="#333" d="M115-194c55 1 70 41 70 98S169 2 115 4C84 4 66-9 55-30l1 105H24l-1-265h31l2 30c10-21 28-34 59-34zm-8 174c40 0 45-34 45-75s-6-73-45-74c-42 0-51 32-51 76 0 43 10 73 51 73" id="aG"/><path fill="#333" d="M108 0H70L1-190h34L89-25l56-165h34" id="aH"/><path fill="#333" d="M24-231v-30h32v30H24zM24 0v-190h32V0H24" id="aI"/><path fill="#333" d="M85-194c31 0 48 13 60 33l-1-100h32l1 261h-30c-2-10 0-23-3-31C134-8 116 4 85 4 32 4 16-35 15-94c0-66 23-100 70-100zm9 24c-40 0-46 34-46 75 0 40 6 74 45 74 42 0 51-32 51-76 0-42-9-74-50-73" id="aJ"/><path fill="#333" d="M100-194c63 0 86 42 84 106H49c0 40 14 67 53 68 26 1 43-12 49-29l28 8c-11 28-37 45-77 45C44 4 14-33 15-96c1-61 26-98 85-98zm52 81c6-60-76-77-97-28-3 7-6 17-6 28h103" id="aK"/><g id="p"><use transform="matrix(0.08086419753086417,0,0,0.08086419753086417,0,0)" xlink:href="#aG"/><use transform="matrix(0.08086419753086417,0,0,0.08086419753086417,16.172839506172835,0)" xlink:href="#aE"/><use transform="matrix(0.08086419753086417,0,0,0.08086419753086417,25.79567901234567,0)" xlink:href="#aA"/><use transform="matrix(0.08086419753086417,0,0,0.08086419753086417,41.96851851851851,0)" xlink:href="#aH"/><use transform="matrix(0.08086419753086417,0,0,0.08086419753086417,56.52407407407406,0)" xlink:href="#aI"/><use transform="matrix(0.08086419753086417,0,0,0.08086419753086417,62.912345679012326,0)" xlink:href="#aJ"/><use transform="matrix(0.08086419753086417,0,0,0.08086419753086417,79.08518518518517,0)" xlink:href="#aK"/><use transform="matrix(0.08086419753086417,0,0,0.08086419753086417,95.25802469135802,0)" xlink:href="#aE"/></g><path fill="#333" d="M135-143c-3-34-86-38-87 0 15 53 115 12 119 90S17 21 10-45l28-5c4 36 97 45 98 0-10-56-113-15-118-90-4-57 82-63 122-42 12 7 21 19 24 35" id="aL"/><g id="q"><use transform="matrix(0.08086419753086417,0,0,0.08086419753086417,0,0)" xlink:href="#aL"/><use transform="matrix(0.08086419753086417,0,0,0.08086419753086417,14.55555555555555,0)" xlink:href="#aK"/><use transform="matrix(0.08086419753086417,0,0,0.08086419753086417,30.728395061728385,0)" xlink:href="#aE"/><use transform="matrix(0.08086419753086417,0,0,0.08086419753086417,40.35123456790122,0)" xlink:href="#aH"/><use transform="matrix(0.08086419753086417,0,0,0.08086419753086417,54.90679012345677,0)" xlink:href="#aI"/><use transform="matrix(0.08086419753086417,0,0,0.08086419753086417,61.29506172839504,0)" xlink:href="#az"/><use transform="matrix(0.08086419753086417,0,0,0.08086419753086417,75.85061728395058,0)" xlink:href="#aK"/></g><path fill="#333" d="M141-36C126-15 110 5 73 4 37 3 15-17 15-53c-1-64 63-63 125-63 3-35-9-54-41-54-24 1-41 7-42 31l-33-3c5-37 33-52 76-52 45 0 72 20 72 64v82c-1 20 7 32 28 27v20c-31 9-61-2-59-35zM48-53c0 20 12 33 32 33 41-3 63-29 60-74-43 2-92-5-92 41" id="aM"/><g id="r"><use transform="matrix(0.08086419753086417,0,0,0.08086419753086417,0,0)" xlink:href="#aL"/><use transform="matrix(0.08086419753086417,0,0,0.08086419753086417,14.55555555555555,0)" xlink:href="#aD"/><use transform="matrix(0.08086419753086417,0,0,0.08086419753086417,22.641975308641968,0)" xlink:href="#aM"/><use transform="matrix(0.08086419753086417,0,0,0.08086419753086417,38.8148148148148,0)" xlink:href="#aD"/><use transform="matrix(0.08086419753086417,0,0,0.08086419753086417,46.90123456790122,0)" xlink:href="#aK"/></g><path fill="#333" d="M101-234c-31-9-42 10-38 44h38v23H63V0H32v-167H5v-23h27c-7-52 17-82 69-68v24" id="aN"/><g id="s"><use transform="matrix(0.08086419753086417,0,0,0.08086419753086417,0,0)" xlink:href="#aD"/><use transform="matrix(0.08086419753086417,0,0,0.08086419753086417,8.086419753086417,0)" xlink:href="#aF"/><use transform="matrix(0.08086419753086417,0,0,0.08086419753086417,22.641975308641968,0)" xlink:href="#aG"/><use transform="matrix(0.08086419753086417,0,0,0.08086419753086417,38.8148148148148,0)" xlink:href="#aK"/><use transform="matrix(0.08086419753086417,0,0,0.08086419753086417,54.98765432098764,0)" xlink:href="#aA"/><use transform="matrix(0.08086419753086417,0,0,0.08086419753086417,71.16049382716048,0)" xlink:href="#aN"/><use transform="matrix(0.08086419753086417,0,0,0.08086419753086417,79.2469135802469,0)" xlink:href="#aL"/><use transform="matrix(0.08086419753086417,0,0,0.08086419753086417,93.80246913580245,0)" xlink:href="#aK"/><use transform="matrix(0.08086419753086417,0,0,0.08086419753086417,109.97530864197529,0)" xlink:href="#aE"/><use transform="matrix(0.08086419753086417,0,0,0.08086419753086417,119.59814814814813,0)" xlink:href="#aH"/><use transform="matrix(0.08086419753086417,0,0,0.08086419753086417,134.15370370370368,0)" xlink:href="#aI"/><use transform="matrix(0.08086419753086417,0,0,0.08086419753086417,140.54197530864195,0)" xlink:href="#az"/><use transform="matrix(0.08086419753086417,0,0,0.08086419753086417,155.0975308641975,0)" xlink:href="#aK"/></g><radialGradient gradientUnits="userSpaceOnUse" id="t" fx="560" fy="1315.8" cx="560" cy="1315.8" r="140"><stop offset="0%" stop-color="#b4d7ff"/><stop offset="55.23%" stop-color="#6db1ff"/><stop offset="100%" stop-color="#2b8eff"/></radialGradient><path fill="#333" d="M169-182c-1-43-94-46-97-3 18 66 151 10 154 114 3 95-165 93-204 36-6-8-10-19-12-30l50-8c3 46 112 56 116 5-17-69-150-10-154-114-4-87 153-88 188-35 5 8 8 18 10 28" id="aO"/><path fill="#333" d="M24 0v-248h52v208h133V0H24" id="aP"/><path fill="#333" d="M140-251c80 0 125 45 125 126S219 4 139 4C58 4 15-44 15-125s44-126 125-126zm-1 214c52 0 73-35 73-88 0-50-21-86-72-86-52 0-73 35-73 86s22 88 72 88" id="aQ"/><g id="u"><use transform="matrix(0.09320987654320984,0,0,0.09320987654320984,0,0)" xlink:href="#T"/><use transform="matrix(0.09320987654320984,0,0,0.09320987654320984,24.141358024691346,0)" xlink:href="#U"/><use transform="matrix(0.09320987654320984,0,0,0.09320987654320984,33.46234567901233,0)" xlink:href="#aO"/><use transform="matrix(0.09320987654320984,0,0,0.09320987654320984,55.83271604938269,0)" xlink:href="#aq"/><use transform="matrix(0.09320987654320984,0,0,0.09320987654320984,79.97407407407404,0)" xlink:href="#aP"/><use transform="matrix(0.09320987654320984,0,0,0.09320987654320984,97.87037037037032,0)" xlink:href="#ap"/><use transform="matrix(0.09320987654320984,0,0,0.09320987654320984,115.76666666666661,0)" xlink:href="#X"/><use transform="matrix(0.09320987654320984,0,0,0.09320987654320984,137.3913580246913,0)" xlink:href="#ap"/><use transform="matrix(0.09320987654320984,0,0,0.09320987654320984,157.15185185185177,0)" xlink:href="#aQ"/></g><path fill="#333" d="M11 0l48-248h184l-5 28H87l-15 79h140l-5 27H67L50-27h158l-5 27H11" id="aR"/><path fill="#333" d="M194-120c59 52 2 134-86 124-53-6-90-18-98-63l31-7c8 30 29 43 70 43 46 0 84-17 71-62-32-43-135-20-137-98-3-89 178-90 191-16l-30 9c-8-48-127-53-127 5 0 53 81 35 115 65" id="aS"/><path fill="#333" d="M52-101C46-14 166-7 216-51l9-45h-74l6-28h105l-18 87C217-12 181 4 130 4 60 4 18-31 18-101c0-106 78-167 188-146 30 6 48 27 59 54l-34 9c-10-26-31-41-67-40-75 1-107 50-112 123" id="aT"/><path fill="#333" d="M62-99C39-31 123 0 170-40s38-139 58-208h34C234-144 253 4 115 4 49 4 18-43 31-112l26-136h34" id="aU"/><g id="v"><use transform="matrix(0.08086419753086417,0,0,0.08086419753086417,0,0)" xlink:href="#aR"/><use transform="matrix(0.08086419753086417,0,0,0.08086419753086417,19.4074074074074,0)" xlink:href="#aS"/><use transform="matrix(0.08086419753086417,0,0,0.08086419753086417,38.8148148148148,0)" xlink:href="#aR"/><use transform="matrix(0.08086419753086417,0,0,0.08086419753086417,58.2222222222222,0)" xlink:href="#aT"/><use transform="matrix(0.08086419753086417,0,0,0.08086419753086417,80.86419753086417,0)" xlink:href="#aU"/><use transform="matrix(0.08086419753086417,0,0,0.08086419753086417,101.80802469135799,0)" xlink:href="#aR"/></g><path fill="#333" d="M87-220l-18 92h140l-5 28H64L45 0H11l48-248h178l-5 28H87" id="aV"/><path fill="#333" d="M20-101c0-91 52-143 145-150 126-9 127 168 53 223-23 17-55 32-93 32C57 4 20-33 20-101zm216-33c5-57-18-91-73-90-77 1-110 51-110 125 0 49 23 75 73 75 72-1 104-45 110-110" id="aW"/><path fill="#333" d="M249-183c0 48-29 72-75 77L221 0h-36l-43-103H65L45 0H11l48-248c83 2 190-17 190 65zm-34 3c0-55-74-39-127-41l-18 92c63-1 145 13 145-51" id="aX"/><path fill="#333" d="M173 0L80-213 41 0H11l48-248h37l94 214 40-214h30L212 0h-39" id="aY"/><path fill="#333" d="M14 0l48-248h34L48 0H14" id="aZ"/><path fill="#333" d="M125-24c46 0 70-25 89-51l25 16C214-24 183 4 123 4 8 4-5-146 60-208c32-50 158-61 191-5 5 7 9 14 11 22l-32 10c-9-28-33-43-69-43-74 0-108 51-108 125 0 46 24 75 72 75" id="ba"/><g id="w"><use transform="matrix(0.08086419753086417,0,0,0.08086419753086417,0,0)" xlink:href="#aV"/><use transform="matrix(0.08086419753086417,0,0,0.08086419753086417,17.70925925925925,0)" xlink:href="#aW"/><use transform="matrix(0.08086419753086417,0,0,0.08086419753086417,40.351234567901216,0)" xlink:href="#aX"/><use transform="matrix(0.08086419753086417,0,0,0.08086419753086417,61.29506172839504,0)" xlink:href="#aY"/><use transform="matrix(0.08086419753086417,0,0,0.08086419753086417,82.23888888888887,0)" xlink:href="#aZ"/><use transform="matrix(0.08086419753086417,0,0,0.08086419753086417,90.32530864197528,0)" xlink:href="#aS"/><use transform="matrix(0.08086419753086417,0,0,0.08086419753086417,109.73271604938267,0)" xlink:href="#ba"/><use transform="matrix(0.08086419753086417,0,0,0.08086419753086417,130.6765432098765,0)" xlink:href="#aR"/></g><radialGradient gradientUnits="userSpaceOnUse" id="x" fx="1188.5" fy="788.5" cx="1188.5" cy="788.5" r="118.5"><stop offset="0%" stop-color="#b4d7ff"/><stop offset="55.23%" stop-color="#6db1ff"/><stop offset="100%" stop-color="#2b8eff"/></radialGradient><g id="y"><use transform="matrix(0.09320987654320984,0,0,0.09320987654320984,0,0)" xlink:href="#aP"/><use transform="matrix(0.09320987654320984,0,0,0.09320987654320984,20.412962962962954,0)" xlink:href="#U"/><use transform="matrix(0.09320987654320984,0,0,0.09320987654320984,29.733950617283938,0)" xlink:href="#aO"/><use transform="matrix(0.09320987654320984,0,0,0.09320987654320984,52.1043209876543,0)" xlink:href="#ap"/><use transform="matrix(0.09320987654320984,0,0,0.09320987654320984,70.00061728395059,0)" xlink:href="#X"/></g><path fill="#333" d="M24-248c93 1 206-16 204 79-1 75-69 88-152 82V0H24v-248zm52 121c47 0 100 7 100-41 0-47-54-39-100-39v80" id="bb"/><g id="z"><use transform="matrix(0.09320987654320984,0,0,0.09320987654320984,0,0)" xlink:href="#ap"/><use transform="matrix(0.09320987654320984,0,0,0.09320987654320984,20.412962962962954,0)" xlink:href="#U"/><use transform="matrix(0.09320987654320984,0,0,0.09320987654320984,29.733950617283938,0)" xlink:href="#bb"/><use transform="matrix(0.09320987654320984,0,0,0.09320987654320984,52.1043209876543,0)" xlink:href="#U"/></g><g id="A"><use transform="matrix(0.09320987654320984,0,0,0.09320987654320984,0,0)" xlink:href="#ao"/><use transform="matrix(0.09320987654320984,0,0,0.09320987654320984,24.141358024691346,0)" xlink:href="#U"/></g><path fill="#333" d="M147 0H94L2-248h55l64 206c17-72 42-137 63-206h54" id="bc"/><path fill="#333" d="M210 0H11v-37l134-170H24v-41h178v36L68-41h142V0" id="bd"/><g id="B"><use transform="matrix(0.09320987654320984,0,0,0.09320987654320984,0,0)" xlink:href="#aO"/><use transform="matrix(0.09320987654320984,0,0,0.09320987654320984,22.37037037037036,0)" xlink:href="#W"/><use transform="matrix(0.09320987654320984,0,0,0.09320987654320984,44.74074074074072,0)" xlink:href="#T"/><use transform="matrix(0.09320987654320984,0,0,0.09320987654320984,68.2296296296296,0)" xlink:href="#bc"/><use transform="matrix(0.09320987654320984,0,0,0.09320987654320984,90.59999999999997,0)" xlink:href="#U"/><use transform="matrix(0.09320987654320984,0,0,0.09320987654320984,99.92098765432094,0)" xlink:href="#bd"/><use transform="matrix(0.09320987654320984,0,0,0.09320987654320984,120.3339506172839,0)" xlink:href="#U"/><use transform="matrix(0.09320987654320984,0,0,0.09320987654320984,129.6549382716049,0)" xlink:href="#aQ"/></g><radialGradient gradientUnits="userSpaceOnUse" id="C" fx="1550" fy="786" cx="1550" cy="786" r="110"><stop offset="0%" stop-color="#b4d7ff"/><stop offset="55.23%" stop-color="#6db1ff"/><stop offset="100%" stop-color="#2b8eff"/></radialGradient><g id="E"><use transform="matrix(0.09320987654320984,0,0,0.09320987654320984,0,0)" xlink:href="#aP"/><use transform="matrix(0.09320987654320984,0,0,0.09320987654320984,20.412962962962954,0)" xlink:href="#U"/><use transform="matrix(0.09320987654320984,0,0,0.09320987654320984,29.733950617283938,0)" xlink:href="#aO"/><use transform="matrix(0.09320987654320984,0,0,0.09320987654320984,52.1043209876543,0)" xlink:href="#ap"/><use transform="matrix(0.09320987654320984,0,0,0.09320987654320984,70.00061728395059,0)" xlink:href="#X"/></g><g id="F"><use transform="matrix(0.09320987654320984,0,0,0.09320987654320984,0,0)" xlink:href="#ar"/><use transform="matrix(0.09320987654320984,0,0,0.09320987654320984,24.141358024691346,0)" xlink:href="#X"/><use transform="matrix(0.09320987654320984,0,0,0.09320987654320984,48.28271604938269,0)" xlink:href="#bd"/><use transform="matrix(0.09320987654320984,0,0,0.09320987654320984,68.69567901234565,0)" xlink:href="#U"/><use transform="matrix(0.09320987654320984,0,0,0.09320987654320984,78.01666666666664,0)" xlink:href="#aQ"/><use transform="matrix(0.09320987654320984,0,0,0.09320987654320984,104.11543209876538,0)" xlink:href="#ar"/><use transform="matrix(0.09320987654320984,0,0,0.09320987654320984,128.25679012345674,0)" xlink:href="#U"/></g><path fill="#333" d="M119 0H84L31-248h34l41 218 126-218h36" id="be"/><path fill="#333" d="M187 0l-14-72H61L19 0h-37l149-248h38L221 0h-34zm-19-99l-22-123L76-99h92" id="bf"/><path fill="#333" d="M11 0l48-248h34L50-27h125l-5 27H11" id="bg"/><path fill="#333" d="M190 0H-7l5-25 185-195H49l5-28h176l-5 25L40-27h155" id="bh"/><g id="G"><use transform="matrix(0.08086419753086417,0,0,0.08086419753086417,0,0)" xlink:href="#be"/><use transform="matrix(0.08086419753086417,0,0,0.08086419753086417,19.4074074074074,0)" xlink:href="#aZ"/><use transform="matrix(0.08086419753086417,0,0,0.08086419753086417,27.49382716049382,0)" xlink:href="#aS"/><use transform="matrix(0.08086419753086417,0,0,0.08086419753086417,46.90123456790122,0)" xlink:href="#aU"/><use transform="matrix(0.08086419753086417,0,0,0.08086419753086417,67.84506172839504,0)" xlink:href="#bf"/><use transform="matrix(0.08086419753086417,0,0,0.08086419753086417,87.25246913580244,0)" xlink:href="#bg"/><use transform="matrix(0.08086419753086417,0,0,0.08086419753086417,103.42530864197528,0)" xlink:href="#aZ"/><use transform="matrix(0.08086419753086417,0,0,0.08086419753086417,111.5117283950617,0)" xlink:href="#bh"/><use transform="matrix(0.08086419753086417,0,0,0.08086419753086417,129.22098765432094,0)" xlink:href="#bh"/><use transform="matrix(0.08086419753086417,0,0,0.08086419753086417,146.9302469135802,0)" xlink:href="#bf"/></g><g id="I"><use transform="matrix(0.08086419753086417,0,0,0.08086419753086417,0,0)" xlink:href="#be"/><use transform="matrix(0.08086419753086417,0,0,0.08086419753086417,19.4074074074074,0)" xlink:href="#aZ"/><use transform="matrix(0.08086419753086417,0,0,0.08086419753086417,27.49382716049382,0)" xlink:href="#aS"/><use transform="matrix(0.08086419753086417,0,0,0.08086419753086417,46.90123456790122,0)" xlink:href="#aU"/><use transform="matrix(0.08086419753086417,0,0,0.08086419753086417,67.84506172839504,0)" xlink:href="#bf"/><use transform="matrix(0.08086419753086417,0,0,0.08086419753086417,87.25246913580244,0)" xlink:href="#bg"/><use transform="matrix(0.08086419753086417,0,0,0.08086419753086417,103.42530864197528,0)" xlink:href="#aZ"/><use transform="matrix(0.08086419753086417,0,0,0.08086419753086417,111.5117283950617,0)" xlink:href="#bh"/><use transform="matrix(0.08086419753086417,0,0,0.08086419753086417,129.22098765432094,0)" xlink:href="#bh"/><use transform="matrix(0.08086419753086417,0,0,0.08086419753086417,146.9302469135802,0)" xlink:href="#bf"/></g><path fill="#333" d="M27 0v-27h64v-190l-56 39v-29l58-41h29v221h61V0H27" id="bi"/><use transform="matrix(0.07469135802469135,0,0,0.07469135802469135,0,0)" xlink:href="#bi" id="J"/><path fill="#333" d="M33 0v-38h34V0H33" id="bj"/><path fill="#333" d="M80-196l47-18 7 23-49 13 32 44-20 13-27-46-27 45-21-12 33-44-49-13 8-23 47 19-2-53h23" id="bk"/><g id="K"><use transform="matrix(0.07469135802469135,0,0,0.07469135802469135,0,0)" xlink:href="#bi"/><use transform="matrix(0.07469135802469135,0,0,0.07469135802469135,14.938271604938269,0)" xlink:href="#bj"/><use transform="matrix(0.07469135802469135,0,0,0.07469135802469135,22.407407407407405,0)" xlink:href="#bj"/><use transform="matrix(0.07469135802469135,0,0,0.07469135802469135,29.876543209876537,0)" xlink:href="#bj"/><use transform="matrix(0.07469135802469135,0,0,0.07469135802469135,37.34567901234567,0)" xlink:href="#bj"/><use transform="matrix(0.07469135802469135,0,0,0.07469135802469135,44.814814814814795,0)" xlink:href="#bk"/></g></defs></g></svg>