<svg xmlns="http://www.w3.org/2000/svg" xmlns:xlink="http://www.w3.org/1999/xlink" xmlns:lucid="lucid" width="1720" height="1170.46"><g transform="translate(1060 380.4572636721416)" lucid:page-tab-id="0_0"><path d="M-1806.87-1258.83h3677.74v2581.66h-3677.74z" fill="#fff"/><path d="M122-208.6a6 6 0 0 1 6-6h198a6 6 0 0 1 6 6v108a6 6 0 0 1-6 6H128a6 6 0 0 1-6-6z" stroke="#3a414a" fill="#cfe4ff"/><use xlink:href="#a" transform="matrix(1,0,0,1,134,-202.6094029945246) translate(68.0246913580247 54.888888888888886)"/><path d="M-99-113.47a.75.75 0 0 1 .75.75v867a.75.75 0 0 1-.75.75.75.75 0 0 1-.75-.75v-867a.75.75 0 0 1 .75-.75z" stroke="#3a414a" stroke-width="1.5" fill="none"/><path d="M-236-210.6a6 6 0 0 1 6-6H68a6 6 0 0 1 6 6v107a6 6 0 0 1-6 6h-298a6 6 0 0 1-6-6z" stroke="#3a414a" fill="#cfe4ff"/><use xlink:href="#b" transform="matrix(1,0,0,1,-224,-204.609402994525) translate(33.54938271604941 54.576388888888886)"/><path d="M212.5-94.86a.75.75 0 0 1 .75.75v846a.75.75 0 0 1-.75.74.75.75 0 0 1-.75-.75v-846a.75.75 0 0 1 .75-.76z" stroke="#3a414a" stroke-width="1.5" fill="none"/><path d="M4.03-5.5h-88.08l-.04.07-.85.27H-96v-3h10.16l.4-.34H4.03zM171.3-8.4l.28.16 18.8.06v3l-20.55-.06-.04-.16h-60.6v-3z" stroke="#3a414a" stroke-width=".05" fill="#3a414a"/><path d="M-95.97-5.16h-1.54v-3h1.53zm-4.53 0v-3" fill="#3a414a"/><path d="M-95.94-5.13h-1.6v-3.05h1.6zm-4.53-.03h-.05v-3h.04zm3-2.97v2.95H-96v-2.95z" stroke="#3a414a" stroke-width=".05" fill="#3a414a"/><path d="M206.15-6.66l-14.27 4.64v-9.27z" fill="#3a414a"/><path d="M211-6.66L190.38.04v-13.4zM193.38-4.1l7.9-2.56-7.9-2.57z" stroke="#3a414a" stroke-width=".05" fill="#3a414a"/><use xlink:href="#c" transform="matrix(1,0,0,1,4.027681125988877,-20.216589007213848) translate(0 17.77777777777778)"/><use xlink:href="#d" transform="matrix(1,0,0,1,4.027681125988877,-20.216589007213848) translate(61.7283950617284 17.77777777777778)"/><path d="M-540-210.6a6 6 0 0 1 6-6h208a6 6 0 0 1 6 6v108a6 6 0 0 1-6 6h-208a6 6 0 0 1-6-6z" stroke="#3a414a" fill="#cfe4ff"/><use xlink:href="#e" transform="matrix(1,0,0,1,-528,-204.609402994525) translate(-3.759259259259238 54.22222222222222)"/><path d="M-426.5-93.86a.75.75 0 0 1 .75.75v855a.75.75 0 0 1-.75.74.75.75 0 0 1-.75-.75v-855a.75.75 0 0 1 .75-.76z" stroke="#3a414a" stroke-width="1.5" fill="none"/><path d="M-434.05-352.46a8 8 0 0 1 8-8H494a8 8 0 0 1 8 8v100.28a8 8 0 0 1-8 8h-920.05a8 8 0 0 1-8-8z" stroke="#000" stroke-opacity="0" stroke-width="2" fill="#fff" fill-opacity="0"/><use xlink:href="#f" transform="matrix(1,0,0,1,-430.0534472146569,-356.4572636721416) translate(16.56555555555593 61.723749999999974)"/><use xlink:href="#g" transform="matrix(1,0,0,1,-430.0534472146569,-356.4572636721416) translate(357.9322222222223 61.723749999999974)"/><use xlink:href="#h" transform="matrix(1,0,0,1,-430.0534472146569,-356.4572636721416) translate(579.7655555555555 61.723749999999974)"/><use xlink:href="#i" transform="matrix(1,0,0,1,-430.0534472146569,-356.4572636721416) translate(606.5322222222221 61.723749999999974)"/><use xlink:href="#j" transform="matrix(1,0,0,1,-430.0534472146569,-356.4572636721416) translate(745.6211111111108 61.723749999999974)"/><use xlink:href="#k" transform="matrix(1,0,0,1,-430.0534472146569,-356.4572636721416) translate(821.2766666666664 61.723749999999974)"/><path d="M-434.05-273.74a8 8 0 0 1 8-8h837.7a8 8 0 0 1 8 8v2.85a8 8 0 0 1-8 8h-837.7a8 8 0 0 1-8-8z" stroke="#000" stroke-opacity="0" stroke-width="2" fill="#fff" fill-opacity="0"/><path d="M380-208.6a6 6 0 0 1 6-6h248a6 6 0 0 1 6 6v108a6 6 0 0 1-6 6H386a6 6 0 0 1-6-6z" stroke="#3a414a" fill="#cfe4ff"/><use xlink:href="#l" transform="matrix(1,0,0,1,392,-202.60940299452454) translate(13.04320987654323 54.888888888888886)"/><path d="M500.5-94.86a.75.75 0 0 1 .75.75v862.6a.75.75 0 0 1-.75.75.75.75 0 0 1-.75-.75V-94.1a.75.75 0 0 1 .75-.76z" stroke="#3a414a" stroke-width="1.5" fill="none"/><path d="M-102 40.9v3h-109.55v-3zm-211.96-2.4v3h-90.43v-3z" stroke="#3a414a" stroke-width=".05" fill="#3a414a"/><path d="M-100.5 43.9h-1.54v-3h1.54zm3 0v-3" fill="#3a414a"/><path d="M-100.47 43.92h-1.6v-3.05h1.6zm3-.03h-.05v-3h.04zM-102 40.9v2.95h1.48v-2.95z" stroke="#3a414a" stroke-width=".05" fill="#3a414a"/><path d="M-405.9 44.64L-420.14 40l14.26-4.64z" fill="#3a414a"/><path d="M-404.4 46.7L-425 40l20.6-6.7zm-10.9-6.7l7.9 2.57v-5.14z" stroke="#3a414a" stroke-width=".05" fill="#3a414a"/><use xlink:href="#m" transform="matrix(1,0,0,1,-313.9568034355244,27.861789200440803) translate(0 17.77777777777778)"/><path d="M149.54 103.9H-96v-3h245.54zm328.84 0H251.95v-3h226.43z" stroke="#3a414a" stroke-width=".05" fill="#3a414a"/><path d="M-95.97 103.9h-1.54v-3h1.53zm-4.53 0v-3" fill="#3a414a"/><path d="M-95.94 103.92h-1.6v-3.05h1.6zm-4.53-.03h-.05v-3h.04zm3-2.98v2.95H-96v-2.95z" stroke="#3a414a" stroke-width=".05" fill="#3a414a"/><path d="M494.15 102.4l-14.27 4.63v-9.28z" fill="#3a414a"/><path d="M499 102.4l-20.62 6.7V95.7zm-17.62 2.56l7.9-2.57-7.9-2.58z" stroke="#3a414a" stroke-width=".05" fill="#3a414a"/><use xlink:href="#n" transform="matrix(1,0,0,1,149.5438548650734,89.05691173421188) translate(0 17.77777777777778)"/><path d="M-780-208.6a6 6 0 0 1 6-6h148a6 6 0 0 1 6 6v108a6 6 0 0 1-6 6h-148a6 6 0 0 1-6-6z" stroke="#3a414a" fill="#cfe4ff"/><use xlink:href="#o" transform="matrix(1,0,0,1,-768,-202.60940299452454) translate(11.135802469135811 54.888888888888886)"/><path d="M-698.5-93.86a.75.75 0 0 1 .75.75v861.6a.75.75 0 0 1-.75.75.75.75 0 0 1-.75-.75V-93.1a.75.75 0 0 1 .75-.76z" stroke="#3a414a" stroke-width="1.5" fill="none"/><path d="M-475.5 185.52h-200.9v-3h200.9zm373.5 0h-271.08v-3H-102z" stroke="#3a414a" stroke-width=".05" fill="#3a414a"/><path d="M-100.5 185.52h-1.54v-3h1.54zm3 0v-3" fill="#3a414a"/><path d="M-100.47 185.54h-1.6v-3.05h1.6zm3-.02h-.05v-3h.04zm-4.54-2.98v2.95h1.48v-2.96z" stroke="#3a414a" stroke-width=".05" fill="#3a414a"/><path d="M-677.9 188.65l-14.25-4.63 14.26-4.64z" fill="#3a414a"/><path d="M-676.4 190.72l-20.6-6.7 20.6-6.7zm-10.9-6.7l7.9 2.57v-5.15z" stroke="#3a414a" stroke-width=".05" fill="#3a414a"/><use xlink:href="#n" transform="matrix(1,0,0,1,-475.48729755539745,170.68515432634464) translate(0 17.77777777777778)"/><path d="M-1040-208.6a6 6 0 0 1 6-6h148a6 6 0 0 1 6 6v108a6 6 0 0 1-6 6h-148a6 6 0 0 1-6-6z" stroke="#3a414a" fill="#cfe4ff"/><use xlink:href="#p" transform="matrix(1,0,0,1,-1028,-202.60940299452454) translate(5.950617283950635 54.888888888888886)"/><path d="M-958.5-89.25a.75.75 0 0 1 .75.75v857a.75.75 0 0 1-.75.75.75.75 0 0 1-.75-.75v-857a.75.75 0 0 1 .75-.75z" stroke="#3a414a" stroke-width="1.5" fill="none"/><path d="M-688.55 325.54H-955.5v-3h266.95zm567.43 0h-297.5v-3h297.5z" stroke="#3a414a" stroke-width=".05" fill="#3a414a"/><path d="M-955.47 325.54H-957v-3h1.53zm-4.53 0v-3" fill="#3a414a"/><path d="M-955.44 325.56h-1.6v-3.05h1.6zm-4.53-.02h-.05v-3h.04zm3-2.98v2.95h1.48v-2.94z" stroke="#3a414a" stroke-width=".05" fill="#3a414a"/><path d="M-105.35 324.04l-14.27 4.63v-9.27z" fill="#3a414a"/><path d="M-100.5 324.04l-20.62 6.7v-13.4zm-17.62 2.57l7.92-2.56-7.92-2.57z" stroke="#3a414a" stroke-width=".05" fill="#3a414a"/><use xlink:href="#q" transform="matrix(1,0,0,1,-688.5532732101291,310.7063626300358) translate(0 17.77777777777778)"/><use xlink:href="#r" transform="matrix(1,0,0,1,-688.5532732101291,310.7063626300358) translate(91.23456790123457 17.77777777777778)"/><use xlink:href="#s" transform="matrix(1,0,0,1,-688.5532732101291,310.7063626300358) translate(115.92592592592592 17.77777777777778)"/><use xlink:href="#t" transform="matrix(1,0,0,1,-688.5532732101291,310.7063626300358) translate(166.48148148148147 17.77777777777778)"/><use xlink:href="#u" transform="matrix(1,0,0,1,-688.5532732101291,310.7063626300358) translate(224.3827160493827 17.77777777777778)"/><path d="M-121.1 400.9v3l-148.36-.02v-3zm-574.4.6v-3h111.78v3z" stroke="#3a414a" stroke-width=".05" fill="#3a414a"/><path d="M-695.47 401.5H-697v-3h1.53zm-4.52 0v-3" fill="#3a414a"/><path d="M-695.44 401.52h-1.6v-3.04h1.6zm-4.53-.02h-.05v-3h.04zm3-2.98v2.96h1.48v-2.96z" stroke="#3a414a" stroke-width=".05" fill="#3a414a"/><path d="M-105.35 402.4l-14.26 4.63v-9.28z" fill="#3a414a"/><path d="M-100.5 402.4l-20.6 6.7v-13.4zm-17.6 2.56l7.9-2.57-7.9-2.58z" stroke="#3a414a" stroke-width=".05" fill="#3a414a"/><g><use xlink:href="#v" transform="matrix(1,0,0,1,-583.7231439019646,386.6666666666676) translate(0 17.77777777777778)"/><use xlink:href="#r" transform="matrix(1,0,0,1,-583.7231439019646,386.6666666666676) translate(92.4074074074074 17.77777777777778)"/><use xlink:href="#w" transform="matrix(1,0,0,1,-583.7231439019646,386.6666666666676) translate(117.09876543209876 17.77777777777778)"/><use xlink:href="#x" transform="matrix(1,0,0,1,-583.7231439019646,386.6666666666676) translate(195.98765432098764 17.77777777777778)"/><use xlink:href="#y" transform="matrix(1,0,0,1,-583.7231439019646,386.6666666666676) translate(236.66666666666666 17.77777777777778)"/><use xlink:href="#u" transform="matrix(1,0,0,1,-583.7231439019646,386.6666666666676) translate(268.7037037037037 17.77777777777778)"/></g><path d="M-593.74 509.9h-342.64v-3h342.64zm491.75 0h-189.77v-3H-102z" stroke="#3a414a" stroke-width=".05" fill="#3a414a"/><path d="M-100.5 509.9h-1.53v-3h1.54zm3 0v-3" fill="#3a414a"/><path d="M-100.47 509.92h-1.6v-3.05h1.6zm3-.03h-.05v-3h.04zm-4.54-2.98v2.95h1.48v-2.95z" stroke="#3a414a" stroke-width=".05" fill="#3a414a"/><path d="M-937.88 513.03l-14.27-4.64 14.27-4.64z" fill="#3a414a"/><path d="M-936.38 515.1l-20.62-6.7 20.62-6.7zm-10.9-6.7l7.9 2.56v-5.14z" stroke="#3a414a" stroke-width=".05" fill="#3a414a"/><g><use xlink:href="#z" transform="matrix(1,0,0,1,-593.7426115378222,495.0579137239991) translate(0 17.77777777777778)"/><use xlink:href="#A" transform="matrix(1,0,0,1,-593.7426115378222,495.0579137239991) translate(117.09876543209876 17.77777777777778)"/><use xlink:href="#B" transform="matrix(1,0,0,1,-593.7426115378222,495.0579137239991) translate(141.79012345679013 17.77777777777778)"/><use xlink:href="#C" transform="matrix(1,0,0,1,-593.7426115378222,495.0579137239991) translate(192.34567901234567 17.77777777777778)"/><use xlink:href="#D" transform="matrix(1,0,0,1,-593.7426115378222,495.0579137239991) translate(256.41975308641975 17.77777777777778)"/></g><defs><path fill="#3a414a" d="M199 0l-22-63H83L61 0H9l90-248h61L250 0h-51zm-33-102l-36-108c-10 38-24 72-36 108h72" id="E"/><path fill="#3a414a" d="M135-194c53 0 70 44 70 98 0 56-19 98-73 100-31 1-45-17-59-34 3 33 2 69 2 105H25l-1-265h48c2 10 0 23 3 31 11-24 29-35 60-35zM114-30c33 0 39-31 40-66 0-38-9-64-40-64-56 0-55 130 0 130" id="F"/><path fill="#3a414a" d="M25-224v-37h50v37H25zM25 0v-190h50V0H25" id="G"/><g id="a"><use transform="matrix(0.08641975308641973,0,0,0.08641975308641973,0,0)" xlink:href="#E"/><use transform="matrix(0.08641975308641973,0,0,0.08641975308641973,22.38271604938271,0)" xlink:href="#F"/><use transform="matrix(0.08641975308641973,0,0,0.08641975308641973,41.30864197530863,0)" xlink:href="#G"/></g><path fill="#3a414a" d="M230 0l2-204L168 0h-37L68-204 70 0H24v-248h70l56 185 57-185h69V0h-46" id="H"/><path fill="#3a414a" d="M133-34C117-15 103 5 69 4 32 3 11-16 11-54c-1-60 55-63 116-61 1-26-3-47-28-47-18 1-26 9-28 27l-52-2c7-38 36-58 82-57s74 22 75 68l1 82c-1 14 12 18 25 15v27c-30 8-71 5-69-32zm-48 3c29 0 43-24 42-57-32 0-66-3-65 30 0 17 8 27 23 27" id="I"/><path fill="#3a414a" d="M135-194c87-1 58 113 63 194h-50c-7-57 23-157-34-157-59 0-34 97-39 157H25l-1-190h47c2 12-1 28 3 38 12-26 28-41 61-42" id="J"/><path fill="#3a414a" d="M67-125c0 53 21 87 73 88 37 1 54-22 65-47l45 17C233-25 199 4 140 4 58 4 20-42 15-125 8-235 124-281 211-232c18 10 29 29 36 50l-46 12c-8-25-30-41-62-41-52 0-71 34-72 86" id="K"/><path fill="#3a414a" d="M110-194c64 0 96 36 96 99 0 64-35 99-97 99-61 0-95-36-95-99 0-62 34-99 96-99zm-1 164c35 0 45-28 45-65 0-40-10-65-43-65-34 0-45 26-45 65 0 36 10 65 43 65" id="L"/><path fill="#3a414a" d="M115-3C79 11 28 4 28-45v-112H4v-33h27l15-45h31v45h36v33H77v99c-1 23 16 31 38 25v30" id="M"/><path fill="#3a414a" d="M135-150c-39-12-60 13-60 57V0H25l-1-190h47c2 13-1 29 3 40 6-28 27-53 61-41v41" id="N"/><path fill="#3a414a" d="M25 0v-261h50V0H25" id="O"/><path fill="#3a414a" d="M185-48c-13 30-37 53-82 52C43 2 14-33 14-96s30-98 90-98c62 0 83 45 84 108H66c0 31 8 55 39 56 18 0 30-7 34-22zm-45-69c5-46-57-63-70-21-2 6-4 13-4 21h74" id="P"/><g id="b"><use transform="matrix(0.08641975308641973,0,0,0.08641975308641973,0,0)" xlink:href="#H"/><use transform="matrix(0.08641975308641973,0,0,0.08641975308641973,25.8395061728395,0)" xlink:href="#I"/><use transform="matrix(0.08641975308641973,0,0,0.08641975308641973,43.12345679012344,0)" xlink:href="#G"/><use transform="matrix(0.08641975308641973,0,0,0.08641975308641973,51.76543209876541,0)" xlink:href="#J"/><use transform="matrix(0.08641975308641973,0,0,0.08641975308641973,70.69135802469134,0)" xlink:href="#K"/><use transform="matrix(0.08641975308641973,0,0,0.08641975308641973,93.07407407407405,0)" xlink:href="#L"/><use transform="matrix(0.08641975308641973,0,0,0.08641975308641973,111.99999999999997,0)" xlink:href="#J"/><use transform="matrix(0.08641975308641973,0,0,0.08641975308641973,130.9259259259259,0)" xlink:href="#M"/><use transform="matrix(0.08641975308641973,0,0,0.08641975308641973,141.20987654320984,0)" xlink:href="#N"/><use transform="matrix(0.08641975308641973,0,0,0.08641975308641973,153.3086419753086,0)" xlink:href="#L"/><use transform="matrix(0.08641975308641973,0,0,0.08641975308641973,172.23456790123453,0)" xlink:href="#O"/><use transform="matrix(0.08641975308641973,0,0,0.08641975308641973,180.8765432098765,0)" xlink:href="#O"/><use transform="matrix(0.08641975308641973,0,0,0.08641975308641973,189.51851851851848,0)" xlink:href="#P"/><use transform="matrix(0.08641975308641973,0,0,0.08641975308641973,206.80246913580243,0)" xlink:href="#N"/></g><path fill="#333" d="M133-34C117-15 103 5 69 4 32 3 11-16 11-54c-1-60 55-63 116-61 1-26-3-47-28-47-18 1-26 9-28 27l-52-2c7-38 36-58 82-57s74 22 75 68l1 82c-1 14 12 18 25 15v27c-30 8-71 5-69-32zm-48 3c29 0 43-24 42-57-32 0-66-3-65 30 0 17 8 27 23 27" id="Q"/><path fill="#333" d="M128 0H69L1-190h53L99-40l48-150h52" id="R"/><path fill="#333" d="M25-224v-37h50v37H25zM25 0v-190h50V0H25" id="S"/><g id="c"><use transform="matrix(0.06172839506172839,0,0,0.06172839506172839,0,0)" xlink:href="#Q"/><use transform="matrix(0.06172839506172839,0,0,0.06172839506172839,12.345679012345679,0)" xlink:href="#R"/><use transform="matrix(0.06172839506172839,0,0,0.06172839506172839,24.691358024691358,0)" xlink:href="#R"/><use transform="matrix(0.06172839506172839,0,0,0.06172839506172839,37.03703703703704,0)" xlink:href="#S"/><use transform="matrix(0.06172839506172839,0,0,0.06172839506172839,43.20987654320988,0)" xlink:href="#Q"/></g><path fill="#333" d="M25 0v-261h50V0H25" id="T"/><path fill="#333" d="M62-158H24l-5-90h48" id="U"/><path fill="#333" d="M135-194c53 0 70 44 70 98 0 56-19 98-73 100-31 1-45-17-59-34 3 33 2 69 2 105H25l-1-265h48c2 10 0 23 3 31 11-24 29-35 60-35zM114-30c33 0 39-31 40-66 0-38-9-64-40-64-56 0-55 130 0 130" id="V"/><g id="d"><use transform="matrix(0.06172839506172839,0,0,0.06172839506172839,0,0)" xlink:href="#T"/><use transform="matrix(0.06172839506172839,0,0,0.06172839506172839,6.172839506172839,0)" xlink:href="#U"/><use transform="matrix(0.06172839506172839,0,0,0.06172839506172839,11.419753086419753,0)" xlink:href="#Q"/><use transform="matrix(0.06172839506172839,0,0,0.06172839506172839,23.76543209876543,0)" xlink:href="#V"/><use transform="matrix(0.06172839506172839,0,0,0.06172839506172839,37.28395061728395,0)" xlink:href="#S"/></g><path fill="#3a414a" d="M24 0v-248h52V0H24" id="W"/><path fill="#3a414a" d="M220-157c-53 9-28 100-34 157h-49v-107c1-27-5-49-29-50C55-147 81-57 75 0H25l-1-190h47c2 12-1 28 3 38 10-53 101-56 108 0 13-22 24-43 59-42 82 1 51 116 57 194h-49v-107c-1-25-5-48-29-50" id="X"/><path fill="#3a414a" d="M195-6C206 82 75 100 31 46c-4-6-6-13-8-21l49-6c3 16 16 24 34 25 40 0 42-37 40-79-11 22-30 35-61 35-53 0-70-43-70-97 0-56 18-96 73-97 30 0 46 14 59 34l2-30h47zm-90-29c32 0 41-27 41-63 0-35-9-62-40-62-32 0-39 29-40 63 0 36 9 62 39 62" id="Y"/><path fill="#3a414a" d="M175 0L67-191c6 58 2 128 3 191H24v-248h59L193-55c-6-58-2-129-3-193h46V0h-61" id="Z"/><path fill="#3a414a" d="M137-138c1-29-70-34-71-4 15 46 118 7 119 86 1 83-164 76-172 9l43-7c4 19 20 25 44 25 33 8 57-30 24-41C81-84 22-81 20-136c-2-80 154-74 161-7" id="aa"/><g id="e"><use transform="matrix(0.08641975308641973,0,0,0.08641975308641973,0,0)" xlink:href="#W"/><use transform="matrix(0.08641975308641973,0,0,0.08641975308641973,8.641975308641973,0)" xlink:href="#X"/><use transform="matrix(0.08641975308641973,0,0,0.08641975308641973,36.29629629629629,0)" xlink:href="#I"/><use transform="matrix(0.08641975308641973,0,0,0.08641975308641973,53.58024691358023,0)" xlink:href="#Y"/><use transform="matrix(0.08641975308641973,0,0,0.08641975308641973,72.50617283950616,0)" xlink:href="#P"/><use transform="matrix(0.08641975308641973,0,0,0.08641975308641973,89.7901234567901,0)" xlink:href="#Z"/><use transform="matrix(0.08641975308641973,0,0,0.08641975308641973,112.17283950617282,0)" xlink:href="#I"/><use transform="matrix(0.08641975308641973,0,0,0.08641975308641973,129.45679012345676,0)" xlink:href="#M"/><use transform="matrix(0.08641975308641973,0,0,0.08641975308641973,139.7407407407407,0)" xlink:href="#G"/><use transform="matrix(0.08641975308641973,0,0,0.08641975308641973,148.38271604938268,0)" xlink:href="#L"/><use transform="matrix(0.08641975308641973,0,0,0.08641975308641973,167.3086419753086,0)" xlink:href="#J"/><use transform="matrix(0.08641975308641973,0,0,0.08641975308641973,186.23456790123453,0)" xlink:href="#aa"/></g><path fill="#282c33" d="M24 0v-248h52V0H24" id="ab"/><path fill="#282c33" d="M175 0L67-191c6 58 2 128 3 191H24v-248h59L193-55c-6-58-2-129-3-193h46V0h-61" id="ac"/><path fill="#282c33" d="M136-208V0H84v-208H4v-40h212v40h-80" id="ad"/><path fill="#282c33" d="M24 0v-248h195v40H76v63h132v40H76v65h150V0H24" id="ae"/><path fill="#282c33" d="M240-174c0 40-23 61-54 70L253 0h-59l-57-94H76V0H24v-248c93 4 217-23 216 74zM76-134c48-2 112 12 112-38 0-48-66-32-112-35v73" id="af"/><path fill="#282c33" d="M199 0l-22-63H83L61 0H9l90-248h61L250 0h-51zm-33-102l-36-108c-10 38-24 72-36 108h72" id="ag"/><path fill="#282c33" d="M67-125c0 53 21 87 73 88 37 1 54-22 65-47l45 17C233-25 199 4 140 4 58 4 20-42 15-125 8-235 124-281 211-232c18 10 29 29 36 50l-46 12c-8-25-30-41-62-41-52 0-71 34-72 86" id="ah"/><path fill="#282c33" d="M140-251c80 0 125 45 125 126S219 4 139 4C58 4 15-44 15-125s44-126 125-126zm-1 214c52 0 73-35 73-88 0-50-21-86-72-86-52 0-73 35-73 86s22 88 72 88" id="ai"/><path fill="#282c33" d="M169-182c-1-43-94-46-97-3 18 66 151 10 154 114 3 95-165 93-204 36-6-8-10-19-12-30l50-8c3 46 112 56 116 5-17-69-150-10-154-114-4-87 153-88 188-35 5 8 8 18 10 28" id="aj"/><g id="f"><use transform="matrix(0.12222222222222212,0,0,0.12222222222222212,0,0)" xlink:href="#ab"/><use transform="matrix(0.12222222222222212,0,0,0.12222222222222212,12.222222222222213,0)" xlink:href="#ac"/><use transform="matrix(0.12222222222222212,0,0,0.12222222222222212,43.877777777777744,0)" xlink:href="#ad"/><use transform="matrix(0.12222222222222212,0,0,0.12222222222222212,70.64444444444439,0)" xlink:href="#ae"/><use transform="matrix(0.12222222222222212,0,0,0.12222222222222212,99.9777777777777,0)" xlink:href="#af"/><use transform="matrix(0.12222222222222212,0,0,0.12222222222222212,131.63333333333324,0)" xlink:href="#ag"/><use transform="matrix(0.12222222222222212,0,0,0.12222222222222212,163.28888888888878,0)" xlink:href="#ah"/><use transform="matrix(0.12222222222222212,0,0,0.12222222222222212,194.94444444444431,0)" xlink:href="#ad"/><use transform="matrix(0.12222222222222212,0,0,0.12222222222222212,221.71111111111097,0)" xlink:href="#ab"/><use transform="matrix(0.12222222222222212,0,0,0.12222222222222212,233.93333333333317,0)" xlink:href="#ai"/><use transform="matrix(0.12222222222222212,0,0,0.12222222222222212,268.15555555555534,0)" xlink:href="#ac"/><use transform="matrix(0.12222222222222212,0,0,0.12222222222222212,299.81111111111085,0)" xlink:href="#aj"/></g><path fill="#282c33" d="M24-248c120-7 223 5 221 122C244-46 201 0 124 0H24v-248zM76-40c74 7 117-18 117-86 0-67-45-88-117-82v168" id="ak"/><path fill="#282c33" d="M67-125c0 54 23 88 75 88 28 0 53-7 68-21v-34h-60v-39h108v91C232-14 192 4 140 4 58 4 20-42 15-125 8-236 126-280 215-234c19 10 29 26 37 47l-47 15c-11-23-29-39-63-39-53 1-75 33-75 86" id="al"/><path fill="#282c33" d="M230 0l2-204L168 0h-37L68-204 70 0H24v-248h70l56 185 57-185h69V0h-46" id="am"/><g id="g"><use transform="matrix(0.12222222222222212,0,0,0.12222222222222212,0,0)" xlink:href="#ak"/><use transform="matrix(0.12222222222222212,0,0,0.12222222222222212,31.65555555555553,0)" xlink:href="#ab"/><use transform="matrix(0.12222222222222212,0,0,0.12222222222222212,43.877777777777744,0)" xlink:href="#ag"/><use transform="matrix(0.12222222222222212,0,0,0.12222222222222212,75.53333333333327,0)" xlink:href="#al"/><use transform="matrix(0.12222222222222212,0,0,0.12222222222222212,109.75555555555547,0)" xlink:href="#af"/><use transform="matrix(0.12222222222222212,0,0,0.12222222222222212,141.411111111111,0)" xlink:href="#ag"/><use transform="matrix(0.12222222222222212,0,0,0.12222222222222212,173.06666666666655,0)" xlink:href="#am"/></g><path fill="#282c33" d="M14-72v-43h91v43H14" id="an"/><use transform="matrix(0.12222222222222212,0,0,0.12222222222222212,0,0)" xlink:href="#an" id="h"/><path fill="#282c33" d="M137-138c1-29-70-34-71-4 15 46 118 7 119 86 1 83-164 76-172 9l43-7c4 19 20 25 44 25 33 8 57-30 24-41C81-84 22-81 20-136c-2-80 154-74 161-7" id="ao"/><path fill="#282c33" d="M115-3C79 11 28 4 28-45v-112H4v-33h27l15-45h31v45h36v33H77v99c-1 23 16 31 38 25v30" id="ap"/><path fill="#282c33" d="M133-34C117-15 103 5 69 4 32 3 11-16 11-54c-1-60 55-63 116-61 1-26-3-47-28-47-18 1-26 9-28 27l-52-2c7-38 36-58 82-57s74 22 75 68l1 82c-1 14 12 18 25 15v27c-30 8-71 5-69-32zm-48 3c29 0 43-24 42-57-32 0-66-3-65 30 0 17 8 27 23 27" id="aq"/><path fill="#282c33" d="M185-48c-13 30-37 53-82 52C43 2 14-33 14-96s30-98 90-98c62 0 83 45 84 108H66c0 31 8 55 39 56 18 0 30-7 34-22zm-45-69c5-46-57-63-70-21-2 6-4 13-4 21h74" id="ar"/><g id="i"><use transform="matrix(0.12222222222222212,0,0,0.12222222222222212,0,0)" xlink:href="#ao"/><use transform="matrix(0.12222222222222212,0,0,0.12222222222222212,24.444444444444425,0)" xlink:href="#ap"/><use transform="matrix(0.12222222222222212,0,0,0.12222222222222212,38.98888888888886,0)" xlink:href="#aq"/><use transform="matrix(0.12222222222222212,0,0,0.12222222222222212,63.43333333333328,0)" xlink:href="#ap"/><use transform="matrix(0.12222222222222212,0,0,0.12222222222222212,77.97777777777772,0)" xlink:href="#ar"/><use transform="matrix(0.12222222222222212,0,0,0.12222222222222212,102.42222222222215,0)" xlink:href="#ao"/></g><path fill="#282c33" d="M25 0v-261h50V0H25" id="as"/><path fill="#282c33" d="M25-224v-37h50v37H25zM25 0v-190h50V0H25" id="at"/><g id="j"><use transform="matrix(0.12222222222222212,0,0,0.12222222222222212,0,0)" xlink:href="#as"/><use transform="matrix(0.12222222222222212,0,0,0.12222222222222212,12.222222222222213,0)" xlink:href="#at"/><use transform="matrix(0.12222222222222212,0,0,0.12222222222222212,24.444444444444425,0)" xlink:href="#ao"/><use transform="matrix(0.12222222222222212,0,0,0.12222222222222212,48.88888888888885,0)" xlink:href="#ap"/></g><path fill="#282c33" d="M190-63c-7 42-38 67-86 67-59 0-84-38-90-98-12-110 154-137 174-36l-49 2c-2-19-15-32-35-32-30 0-35 28-38 64-6 74 65 87 74 30" id="au"/><g id="k"><use transform="matrix(0.12222222222222212,0,0,0.12222222222222212,0,0)" xlink:href="#au"/><use transform="matrix(0.12222222222222212,0,0,0.12222222222222212,24.444444444444425,0)" xlink:href="#aq"/><use transform="matrix(0.12222222222222212,0,0,0.12222222222222212,48.88888888888885,0)" xlink:href="#ao"/><use transform="matrix(0.12222222222222212,0,0,0.12222222222222212,73.33333333333327,0)" xlink:href="#ar"/></g><path fill="#3a414a" d="M136-208V0H84v-208H4v-40h212v40h-80" id="av"/><path fill="#3a414a" d="M123 10C108 53 80 86 19 72V37c35 8 53-11 59-39L3-190h52l48 148c12-52 28-100 44-148h51" id="aw"/><path fill="#3a414a" d="M121-226c-27-7-43 5-38 36h38v33H83V0H34v-157H6v-33h28c-9-59 32-81 87-68v32" id="ax"/><path fill="#3a414a" d="M169-182c-1-43-94-46-97-3 18 66 151 10 154 114 3 95-165 93-204 36-6-8-10-19-12-30l50-8c3 46 112 56 116 5-17-69-150-10-154-114-4-87 153-88 188-35 5 8 8 18 10 28" id="ay"/><path fill="#3a414a" d="M128 0H69L1-190h53L99-40l48-150h52" id="az"/><path fill="#3a414a" d="M190-63c-7 42-38 67-86 67-59 0-84-38-90-98-12-110 154-137 174-36l-49 2c-2-19-15-32-35-32-30 0-35 28-38 64-6 74 65 87 74 30" id="aA"/><g id="l"><use transform="matrix(0.08641975308641973,0,0,0.08641975308641973,0,0)" xlink:href="#av"/><use transform="matrix(0.08641975308641973,0,0,0.08641975308641973,16.592592592592588,0)" xlink:href="#aw"/><use transform="matrix(0.08641975308641973,0,0,0.08641975308641973,33.87654320987653,0)" xlink:href="#F"/><use transform="matrix(0.08641975308641973,0,0,0.08641975308641973,52.80246913580246,0)" xlink:href="#P"/><use transform="matrix(0.08641975308641973,0,0,0.08641975308641973,70.0864197530864,0)" xlink:href="#L"/><use transform="matrix(0.08641975308641973,0,0,0.08641975308641973,89.01234567901233,0)" xlink:href="#ax"/><use transform="matrix(0.08641975308641973,0,0,0.08641975308641973,99.29629629629628,0)" xlink:href="#ay"/><use transform="matrix(0.08641975308641973,0,0,0.08641975308641973,120.03703703703701,0)" xlink:href="#P"/><use transform="matrix(0.08641975308641973,0,0,0.08641975308641973,137.32098765432096,0)" xlink:href="#N"/><use transform="matrix(0.08641975308641973,0,0,0.08641975308641973,149.41975308641972,0)" xlink:href="#az"/><use transform="matrix(0.08641975308641973,0,0,0.08641975308641973,166.70370370370367,0)" xlink:href="#G"/><use transform="matrix(0.08641975308641973,0,0,0.08641975308641973,175.34567901234564,0)" xlink:href="#aA"/><use transform="matrix(0.08641975308641973,0,0,0.08641975308641973,192.6296296296296,0)" xlink:href="#P"/></g><path fill="#333" d="M135-194c87-1 58 113 63 194h-50c-7-57 23-157-34-157-59 0-34 97-39 157H25l-1-190h47c2 12-1 28 3 38 12-26 28-41 61-42" id="aB"/><path fill="#333" d="M12 0v-35l95-120H19v-35h142v35L67-36h103V0H12" id="aC"/><g id="m"><use transform="matrix(0.06172839506172839,0,0,0.06172839506172839,0,0)" xlink:href="#S"/><use transform="matrix(0.06172839506172839,0,0,0.06172839506172839,6.172839506172839,0)" xlink:href="#aB"/><use transform="matrix(0.06172839506172839,0,0,0.06172839506172839,19.691358024691358,0)" xlink:href="#S"/><use transform="matrix(0.06172839506172839,0,0,0.06172839506172839,25.864197530864196,0)" xlink:href="#aC"/><use transform="matrix(0.06172839506172839,0,0,0.06172839506172839,36.9753086419753,0)" xlink:href="#S"/><use transform="matrix(0.06172839506172839,0,0,0.06172839506172839,43.148148148148145,0)" xlink:href="#Q"/><use transform="matrix(0.06172839506172839,0,0,0.06172839506172839,55.49382716049382,0)" xlink:href="#T"/><use transform="matrix(0.06172839506172839,0,0,0.06172839506172839,61.666666666666664,0)" xlink:href="#S"/><use transform="matrix(0.06172839506172839,0,0,0.06172839506172839,67.8395061728395,0)" xlink:href="#aC"/><use transform="matrix(0.06172839506172839,0,0,0.06172839506172839,78.95061728395062,0)" xlink:href="#aC"/><use transform="matrix(0.06172839506172839,0,0,0.06172839506172839,90.06172839506173,0)" xlink:href="#Q"/></g><g id="n"><use transform="matrix(0.06172839506172839,0,0,0.06172839506172839,0,0)" xlink:href="#S"/><use transform="matrix(0.06172839506172839,0,0,0.06172839506172839,6.172839506172839,0)" xlink:href="#aB"/><use transform="matrix(0.06172839506172839,0,0,0.06172839506172839,19.691358024691358,0)" xlink:href="#S"/><use transform="matrix(0.06172839506172839,0,0,0.06172839506172839,25.864197530864196,0)" xlink:href="#aC"/><use transform="matrix(0.06172839506172839,0,0,0.06172839506172839,36.9753086419753,0)" xlink:href="#S"/><use transform="matrix(0.06172839506172839,0,0,0.06172839506172839,43.148148148148145,0)" xlink:href="#Q"/><use transform="matrix(0.06172839506172839,0,0,0.06172839506172839,55.49382716049382,0)" xlink:href="#T"/><use transform="matrix(0.06172839506172839,0,0,0.06172839506172839,61.666666666666664,0)" xlink:href="#S"/><use transform="matrix(0.06172839506172839,0,0,0.06172839506172839,67.8395061728395,0)" xlink:href="#aC"/><use transform="matrix(0.06172839506172839,0,0,0.06172839506172839,78.95061728395062,0)" xlink:href="#aC"/><use transform="matrix(0.06172839506172839,0,0,0.06172839506172839,90.06172839506173,0)" xlink:href="#Q"/></g><g id="o"><use transform="matrix(0.08641975308641973,0,0,0.08641975308641973,0,0)" xlink:href="#Z"/><use transform="matrix(0.08641975308641973,0,0,0.08641975308641973,22.38271604938271,0)" xlink:href="#I"/><use transform="matrix(0.08641975308641973,0,0,0.08641975308641973,39.66666666666666,0)" xlink:href="#M"/><use transform="matrix(0.08641975308641973,0,0,0.08641975308641973,49.950617283950606,0)" xlink:href="#G"/><use transform="matrix(0.08641975308641973,0,0,0.08641975308641973,58.59259259259258,0)" xlink:href="#L"/><use transform="matrix(0.08641975308641973,0,0,0.08641975308641973,77.5185185185185,0)" xlink:href="#J"/><use transform="matrix(0.08641975308641973,0,0,0.08641975308641973,96.44444444444443,0)" xlink:href="#aa"/></g><path fill="#3a414a" d="M238-95c0 69-44 99-111 99C63 4 22-25 22-93v-155h51v151c-1 38 19 59 55 60 90 1 49-130 58-211h52v153" id="aD"/><path fill="#3a414a" d="M24 0v-248h195v40H76v63h132v40H76v65h150V0H24" id="aE"/><g id="p"><use transform="matrix(0.08641975308641973,0,0,0.08641975308641973,0,0)" xlink:href="#aD"/><use transform="matrix(0.08641975308641973,0,0,0.08641975308641973,22.38271604938271,0)" xlink:href="#av"/><use transform="matrix(0.08641975308641973,0,0,0.08641975308641973,41.30864197530863,0)" xlink:href="#aE"/><use transform="matrix(0.08641975308641973,0,0,0.08641975308641973,62.04938271604937,0)" xlink:href="#Z"/><use transform="matrix(0.08641975308641973,0,0,0.08641975308641973,84.43209876543207,0)" xlink:href="#av"/><use transform="matrix(0.08641975308641973,0,0,0.08641975308641973,103.358024691358,0)" xlink:href="#aE"/></g><path fill="#333" d="M135-150c-39-12-60 13-60 57V0H25l-1-190h47c2 13-1 29 3 40 6-28 27-53 61-41v41" id="aF"/><path fill="#333" d="M190-63c-7 42-38 67-86 67-59 0-84-38-90-98-12-110 154-137 174-36l-49 2c-2-19-15-32-35-32-30 0-35 28-38 64-6 74 65 87 74 30" id="aG"/><path fill="#333" d="M114-157C55-157 80-60 75 0H25v-261h50l-1 109c12-26 28-41 61-42 86-1 58 113 63 194h-50c-7-57 23-157-34-157" id="aH"/><path fill="#333" d="M185-48c-13 30-37 53-82 52C43 2 14-33 14-96s30-98 90-98c62 0 83 45 84 108H66c0 31 8 55 39 56 18 0 30-7 34-22zm-45-69c5-46-57-63-70-21-2 6-4 13-4 21h74" id="aI"/><path fill="#333" d="M88-194c31-1 46 15 58 34l-1-101h50l1 261h-48c-2-10 0-23-3-31C134-8 116 4 84 4 32 4 16-41 15-95c0-56 19-97 73-99zm17 164c33 0 40-30 41-66 1-37-9-64-41-64s-38 30-39 65c0 43 13 65 39 65" id="aJ"/><g id="q"><use transform="matrix(0.06172839506172839,0,0,0.06172839506172839,0,0)" xlink:href="#aF"/><use transform="matrix(0.06172839506172839,0,0,0.06172839506172839,8.641975308641975,0)" xlink:href="#S"/><use transform="matrix(0.06172839506172839,0,0,0.06172839506172839,14.814814814814813,0)" xlink:href="#aG"/><use transform="matrix(0.06172839506172839,0,0,0.06172839506172839,27.160493827160494,0)" xlink:href="#aH"/><use transform="matrix(0.06172839506172839,0,0,0.06172839506172839,40.67901234567901,0)" xlink:href="#S"/><use transform="matrix(0.06172839506172839,0,0,0.06172839506172839,46.851851851851855,0)" xlink:href="#aI"/><use transform="matrix(0.06172839506172839,0,0,0.06172839506172839,59.19753086419753,0)" xlink:href="#aJ"/><use transform="matrix(0.06172839506172839,0,0,0.06172839506172839,72.71604938271605,0)" xlink:href="#aI"/></g><g id="r"><use transform="matrix(0.06172839506172839,0,0,0.06172839506172839,0,0)" xlink:href="#T"/><use transform="matrix(0.06172839506172839,0,0,0.06172839506172839,6.172839506172839,0)" xlink:href="#Q"/></g><path fill="#333" d="M137-138c1-29-70-34-71-4 15 46 118 7 119 86 1 83-164 76-172 9l43-7c4 19 20 25 44 25 33 8 57-30 24-41C81-84 22-81 20-136c-2-80 154-74 161-7" id="aK"/><path fill="#333" d="M115-3C79 11 28 4 28-45v-112H4v-33h27l15-45h31v45h36v33H77v99c-1 23 16 31 38 25v30" id="aL"/><g id="s"><use transform="matrix(0.06172839506172839,0,0,0.06172839506172839,0,0)" xlink:href="#T"/><use transform="matrix(0.06172839506172839,0,0,0.06172839506172839,6.172839506172839,0)" xlink:href="#S"/><use transform="matrix(0.06172839506172839,0,0,0.06172839506172839,12.345679012345679,0)" xlink:href="#aK"/><use transform="matrix(0.06172839506172839,0,0,0.06172839506172839,24.691358024691358,0)" xlink:href="#aL"/><use transform="matrix(0.06172839506172839,0,0,0.06172839506172839,32.03703703703704,0)" xlink:href="#Q"/></g><path fill="#333" d="M195-6C206 82 75 100 31 46c-4-6-6-13-8-21l49-6c3 16 16 24 34 25 40 0 42-37 40-79-11 22-30 35-61 35-53 0-70-43-70-97 0-56 18-96 73-97 30 0 46 14 59 34l2-30h47zm-90-29c32 0 41-27 41-63 0-35-9-62-40-62-32 0-39 29-40 63 0 36 9 62 39 62" id="aM"/><g id="t"><use transform="matrix(0.06172839506172839,0,0,0.06172839506172839,0,0)" xlink:href="#aJ"/><use transform="matrix(0.06172839506172839,0,0,0.06172839506172839,13.518518518518517,0)" xlink:href="#aI"/><use transform="matrix(0.06172839506172839,0,0,0.06172839506172839,25.864197530864196,0)" xlink:href="#aM"/><use transform="matrix(0.06172839506172839,0,0,0.06172839506172839,39.382716049382715,0)" xlink:href="#T"/><use transform="matrix(0.06172839506172839,0,0,0.06172839506172839,45.55555555555556,0)" xlink:href="#S"/></g><g id="u"><use transform="matrix(0.06172839506172839,0,0,0.06172839506172839,0,0)" xlink:href="#aK"/><use transform="matrix(0.06172839506172839,0,0,0.06172839506172839,12.345679012345679,0)" xlink:href="#aL"/><use transform="matrix(0.06172839506172839,0,0,0.06172839506172839,19.691358024691358,0)" xlink:href="#Q"/><use transform="matrix(0.06172839506172839,0,0,0.06172839506172839,32.03703703703704,0)" xlink:href="#aL"/><use transform="matrix(0.06172839506172839,0,0,0.06172839506172839,39.382716049382715,0)" xlink:href="#S"/></g><path fill="#333" d="M121-226c-27-7-43 5-38 36h38v33H83V0H34v-157H6v-33h28c-9-59 32-81 87-68v32" id="aN"/><path fill="#333" d="M110-194c64 0 96 36 96 99 0 64-35 99-97 99-61 0-95-36-95-99 0-62 34-99 96-99zm-1 164c35 0 45-28 45-65 0-40-10-65-43-65-34 0-45 26-45 65 0 36 10 65 43 65" id="aO"/><g id="v"><use transform="matrix(0.06172839506172839,0,0,0.06172839506172839,0,0)" xlink:href="#aN"/><use transform="matrix(0.06172839506172839,0,0,0.06172839506172839,7.345679012345679,0)" xlink:href="#aO"/><use transform="matrix(0.06172839506172839,0,0,0.06172839506172839,20.864197530864196,0)" xlink:href="#aF"/><use transform="matrix(0.06172839506172839,0,0,0.06172839506172839,29.50617283950617,0)" xlink:href="#aB"/><use transform="matrix(0.06172839506172839,0,0,0.06172839506172839,43.02469135802469,0)" xlink:href="#S"/><use transform="matrix(0.06172839506172839,0,0,0.06172839506172839,49.19753086419753,0)" xlink:href="#aK"/><use transform="matrix(0.06172839506172839,0,0,0.06172839506172839,61.54320987654321,0)" xlink:href="#aG"/><use transform="matrix(0.06172839506172839,0,0,0.06172839506172839,73.88888888888889,0)" xlink:href="#aI"/></g><g id="w"><use transform="matrix(0.06172839506172839,0,0,0.06172839506172839,0,0)" xlink:href="#aM"/><use transform="matrix(0.06172839506172839,0,0,0.06172839506172839,13.518518518518517,0)" xlink:href="#aF"/><use transform="matrix(0.06172839506172839,0,0,0.06172839506172839,22.160493827160494,0)" xlink:href="#Q"/><use transform="matrix(0.06172839506172839,0,0,0.06172839506172839,34.50617283950617,0)" xlink:href="#aN"/><use transform="matrix(0.06172839506172839,0,0,0.06172839506172839,41.85185185185185,0)" xlink:href="#S"/><use transform="matrix(0.06172839506172839,0,0,0.06172839506172839,48.02469135802469,0)" xlink:href="#aG"/><use transform="matrix(0.06172839506172839,0,0,0.06172839506172839,60.37037037037037,0)" xlink:href="#Q"/></g><g id="x"><use transform="matrix(0.06172839506172839,0,0,0.06172839506172839,0,0)" xlink:href="#V"/><use transform="matrix(0.06172839506172839,0,0,0.06172839506172839,13.518518518518517,0)" xlink:href="#aI"/><use transform="matrix(0.06172839506172839,0,0,0.06172839506172839,25.864197530864196,0)" xlink:href="#aF"/></g><g id="y"><use transform="matrix(0.06172839506172839,0,0,0.06172839506172839,0,0)" xlink:href="#aM"/><use transform="matrix(0.06172839506172839,0,0,0.06172839506172839,13.518518518518517,0)" xlink:href="#T"/><use transform="matrix(0.06172839506172839,0,0,0.06172839506172839,19.691358024691358,0)" xlink:href="#S"/></g><path fill="#333" d="M85 4C-2 5 27-109 22-190h50c7 57-23 150 33 157 60-5 35-97 40-157h50l1 190h-47c-2-12 1-28-3-38-12 25-28 42-61 42" id="aP"/><g id="z"><use transform="matrix(0.06172839506172839,0,0,0.06172839506172839,0,0)" xlink:href="#aF"/><use transform="matrix(0.06172839506172839,0,0,0.06172839506172839,8.641975308641975,0)" xlink:href="#aI"/><use transform="matrix(0.06172839506172839,0,0,0.06172839506172839,20.98765432098765,0)" xlink:href="#aK"/><use transform="matrix(0.06172839506172839,0,0,0.06172839506172839,33.33333333333333,0)" xlink:href="#aL"/><use transform="matrix(0.06172839506172839,0,0,0.06172839506172839,40.679012345679006,0)" xlink:href="#S"/><use transform="matrix(0.06172839506172839,0,0,0.06172839506172839,46.85185185185185,0)" xlink:href="#aL"/><use transform="matrix(0.06172839506172839,0,0,0.06172839506172839,54.197530864197525,0)" xlink:href="#aP"/><use transform="matrix(0.06172839506172839,0,0,0.06172839506172839,67.71604938271604,0)" xlink:href="#S"/><use transform="matrix(0.06172839506172839,0,0,0.06172839506172839,73.88888888888887,0)" xlink:href="#aK"/><use transform="matrix(0.06172839506172839,0,0,0.06172839506172839,86.23456790123456,0)" xlink:href="#aG"/><use transform="matrix(0.06172839506172839,0,0,0.06172839506172839,98.58024691358024,0)" xlink:href="#aI"/></g><g id="A"><use transform="matrix(0.06172839506172839,0,0,0.06172839506172839,0,0)" xlink:href="#T"/><use transform="matrix(0.06172839506172839,0,0,0.06172839506172839,6.172839506172839,0)" xlink:href="#Q"/></g><g id="B"><use transform="matrix(0.06172839506172839,0,0,0.06172839506172839,0,0)" xlink:href="#T"/><use transform="matrix(0.06172839506172839,0,0,0.06172839506172839,6.172839506172839,0)" xlink:href="#S"/><use transform="matrix(0.06172839506172839,0,0,0.06172839506172839,12.345679012345679,0)" xlink:href="#aK"/><use transform="matrix(0.06172839506172839,0,0,0.06172839506172839,24.691358024691358,0)" xlink:href="#aL"/><use transform="matrix(0.06172839506172839,0,0,0.06172839506172839,32.03703703703704,0)" xlink:href="#Q"/></g><g id="C"><use transform="matrix(0.06172839506172839,0,0,0.06172839506172839,0,0)" xlink:href="#aJ"/><use transform="matrix(0.06172839506172839,0,0,0.06172839506172839,13.518518518518517,0)" xlink:href="#aI"/><use transform="matrix(0.06172839506172839,0,0,0.06172839506172839,25.864197530864196,0)" xlink:href="#aM"/><use transform="matrix(0.06172839506172839,0,0,0.06172839506172839,39.382716049382715,0)" xlink:href="#T"/><use transform="matrix(0.06172839506172839,0,0,0.06172839506172839,45.55555555555556,0)" xlink:href="#S"/></g><g id="D"><use transform="matrix(0.06172839506172839,0,0,0.06172839506172839,0,0)" xlink:href="#aK"/><use transform="matrix(0.06172839506172839,0,0,0.06172839506172839,12.345679012345679,0)" xlink:href="#aL"/><use transform="matrix(0.06172839506172839,0,0,0.06172839506172839,19.691358024691358,0)" xlink:href="#Q"/><use transform="matrix(0.06172839506172839,0,0,0.06172839506172839,32.03703703703704,0)" xlink:href="#aL"/><use transform="matrix(0.06172839506172839,0,0,0.06172839506172839,39.382716049382715,0)" xlink:href="#S"/></g></defs></g></svg>