<svg xmlns="http://www.w3.org/2000/svg" xmlns:xlink="http://www.w3.org/1999/xlink" xmlns:lucid="lucid" width="2784.89" height="2874.43"><g transform="translate(1100 1223.7333333333331)" lucid:page-tab-id="0_0"><path d="M-1806.87-1258.83h3677.74v3840.5h-3677.74z" fill="#fff"/><path d="M480-1063.3a6 6 0 0 1 6-6h198a6 6 0 0 1 6 6V-946a6 6 0 0 1-6 6H486a6 6 0 0 1-6-6z" stroke="#3a414a" fill="#cfe4ff"/><use xlink:href="#a" transform="matrix(1,0,0,1,492,-1057.3047014972626) translate(68.0246913580247 58.013888888888886)"/><path d="M181.5-959.14a.75.75 0 0 1 .75.75v2547.6a.75.75 0 0 1-.75.75.75.75 0 0 1-.75-.75V-958.4a.75.75 0 0 1 .75-.74z" stroke="#3a414a" stroke-width="1.5" fill="none"/><path d="M26.5-1062.3a6 6 0 0 1 6-6h298a6 6 0 0 1 6 6v111.65a6 6 0 0 1-6 6h-298a6 6 0 0 1-6-6z" stroke="#3a414a" fill="#cfe4ff"/><use xlink:href="#b" transform="matrix(1,0,0,1,38.50000000000023,-1056.3047014972622) translate(33.54938271604941 56.138888888888886)"/><path d="M581.5-939.25a.75.75 0 0 1 .75.75v2536.7a.75.75 0 0 1-.75.75.75.75 0 0 1-.75-.75V-938.5a.75.75 0 0 1 .75-.75z" stroke="#3a414a" stroke-width="1.5" fill="none"/><path d="M302.83-845.54H184.5v-3h118.33zm256.55-1.1H408.02v-3h151.36z" stroke="#3a414a" stroke-width=".05" fill="#3a414a"/><path d="M184.53-845.54H183v-3h1.53zm-4.53 0v-3" fill="#3a414a"/><path d="M184.55-845.52h-1.58v-3.05h1.58zm-4.52-.02h-.05v-3h.04zm3-2.98v2.95h1.47v-2.95z" stroke="#3a414a" stroke-width=".05" fill="#3a414a"/><path d="M575.15-848.15l-14.27 4.63v-9.27z" fill="#3a414a"/><path d="M580-848.15l-20.62 6.7v-13.4zm-17.62 2.57l7.9-2.57-7.9-2.57z" stroke="#3a414a" stroke-width=".05" fill="#3a414a"/><use xlink:href="#c" transform="matrix(1,0,0,1,302.83305476103214,-860.3736760206754) translate(0 17.777777777777775)"/><use xlink:href="#d" transform="matrix(1,0,0,1,302.83305476103214,-860.3736760206754) translate(61.72839506172839 17.777777777777775)"/><path d="M-320-1063.3a6 6 0 0 1 6-6h248a6 6 0 0 1 6 6v108a6 6 0 0 1-6 6h-248a6 6 0 0 1-6-6z" stroke="#3a414a" fill="#cfe4ff"/><use xlink:href="#e" transform="matrix(1,0,0,1,-308,-1057.3047014972624) translate(16.240740740740762 54.888888888888886)"/><path d="M-198.5-948.55a.75.75 0 0 1 .75.75v2505.58a.75.75 0 0 1-.75.75.75.75 0 0 1-.75-.75V-947.8a.75.75 0 0 1 .75-.75z" stroke="#3a414a" stroke-width="1.5" fill="none"/><path d="M-128.15-1195.73a8 8 0 0 1 8-8H799.9a8 8 0 0 1 8 8v100.28a8 8 0 0 1-8 8h-920.05a8 8 0 0 1-8-8z" stroke="#000" stroke-opacity="0" stroke-width="2" fill="#fff" fill-opacity="0"/><use xlink:href="#f" transform="matrix(1,0,0,1,-124.14683748865207,-1199.7333333333331) translate(26.22111111111144 61.723749999999974)"/><use xlink:href="#g" transform="matrix(1,0,0,1,-124.14683748865207,-1199.7333333333331) translate(367.58777777777783 61.723749999999974)"/><use xlink:href="#h" transform="matrix(1,0,0,1,-124.14683748865207,-1199.7333333333331) translate(589.421111111111 61.723749999999974)"/><use xlink:href="#i" transform="matrix(1,0,0,1,-124.14683748865207,-1199.7333333333331) translate(616.1877777777777 61.723749999999974)"/><use xlink:href="#j" transform="matrix(1,0,0,1,-124.14683748865207,-1199.7333333333331) translate(811.6211111111108 61.723749999999974)"/><path d="M-128.15-1117.02a8 8 0 0 1 8-8h837.7a8 8 0 0 1 8 8v2.85a8 8 0 0 1-8 8h-837.7a8 8 0 0 1-8-8z" stroke="#000" stroke-opacity="0" stroke-width="2" fill="#fff" fill-opacity="0"/><path d="M724.6-1062.3a6 6 0 0 1 6-6h222.44a6 6 0 0 1 6 6V-946a6 6 0 0 1-6 6H730.6a6 6 0 0 1-6-6z" stroke="#3a414a" fill="#cfe4ff"/><use xlink:href="#k" transform="matrix(1,0,0,1,736.6026709794629,-1056.3047014972622) translate(0.54320987654323 57.701388888888886)"/><path d="M806.4-938.14a.75.75 0 0 1 .76.75v2546.6a.75.75 0 0 1-.75.75.75.75 0 0 1-.74-.75V-937.4a.75.75 0 0 1 .75-.74z" stroke="#3a414a" stroke-width="1.5" fill="none"/><path d="M-59.7-787.6h-116.7v-3h116.7zm238.2 0H42.7v-3h135.8z" stroke="#3a414a" stroke-width=".05" fill="#3a414a"/><path d="M180-787.6h-1.54v-3H180zm3 0v-3" fill="#3a414a"/><path d="M180.03-787.57h-1.6v-3.05h1.6zm3-.03h-.05v-3h.04zm-4.54-2.97v2.95h1.48v-2.95z" stroke="#3a414a" stroke-width=".05" fill="#3a414a"/><path d="M-177.9-784.46l-14.25-4.64 14.26-4.63z" fill="#3a414a"/><path d="M-176.4-782.4l-20.6-6.7 20.6-6.7zm-10.9-6.7l7.9 2.57v-5.14z" stroke="#3a414a" stroke-width=".05" fill="#3a414a"/><use xlink:href="#l" transform="matrix(1,0,0,1,-59.70775781947144,-802.4326243072663) translate(0 17.77777777777778)"/><path d="M242.72-738.05H184.5v-3h58.22zm541.57 0H345.1v-3H784.3z" stroke="#3a414a" stroke-width=".05" fill="#3a414a"/><path d="M184.53-738.05H183v-3h1.53zm-4.53 0v-3" fill="#3a414a"/><path d="M184.55-738.02h-1.58v-3.05h1.58zm-4.52-.03h-.05v-3h.04zm3-2.97v2.95h1.47v-2.95z" stroke="#3a414a" stroke-width=".05" fill="#3a414a"/><path d="M800.05-739.55l-14.26 4.64v-9.28z" fill="#3a414a"/><path d="M804.9-739.55l-20.6 6.7v-13.4zm-17.6 2.57l7.9-2.57-7.9-2.57z" stroke="#3a414a" stroke-width=".05" fill="#3a414a"/><use xlink:href="#m" transform="matrix(1,0,0,1,242.7166313342343,-752.8828527484792) translate(0 17.777777777777775)"/><path d="M-560-1063.3a6 6 0 0 1 6-6h148a6 6 0 0 1 6 6v108a6 6 0 0 1-6 6h-148a6 6 0 0 1-6-6z" stroke="#3a414a" fill="#cfe4ff"/><use xlink:href="#n" transform="matrix(1,0,0,1,-548,-1057.3047014972626) translate(11.135802469135811 54.888888888888886)"/><path d="M-480-948.55a.75.75 0 0 1 .75.75v2495.58a.75.75 0 0 1-.75.75.75.75 0 0 1-.75-.75V-947.8a.75.75 0 0 1 .75-.75z" stroke="#3a414a" stroke-width="1.5" fill="none"/><path d="M-200.46-683.7H-457.9v-3h257.44zm378.96 0H-98.05v-3H178.5z" stroke="#3a414a" stroke-width=".05" fill="#3a414a"/><path d="M180-683.7h-1.54v-3H180zm3 0v-3" fill="#3a414a"/><path d="M180.03-683.68h-1.6v-3.05h1.6zm3-.02h-.05v-3h.04zm-4.54-2.98v2.95h1.48v-2.95z" stroke="#3a414a" stroke-width=".05" fill="#3a414a"/><path d="M-459.4-680.57l-14.25-4.63 14.26-4.64z" fill="#3a414a"/><path d="M-457.9-678.5l-20.6-6.7 20.6-6.7zm-10.9-6.7l7.9 2.57v-5.15z" stroke="#3a414a" stroke-width=".05" fill="#3a414a"/><use xlink:href="#l" transform="matrix(1,0,0,1,-200.45737269196871,-698.5381717197699) translate(0 17.77777777777778)"/><path d="M-1080-1063.3a6 6 0 0 1 6-6h148a6 6 0 0 1 6 6V-936a6 6 0 0 1-6 6h-148a6 6 0 0 1-6-6z" stroke="#3a414a" fill="#cfe4ff"/><use xlink:href="#o" transform="matrix(1,0,0,1,-1068,-1057.3047014972626) translate(5.950617283950635 64.76388888888889)"/><path d="M-1018.5-931.36a.75.75 0 0 1 .75.75v2467.7a.75.75 0 0 1-.75.74.75.75 0 0 1-.75-.75V-930.6a.75.75 0 0 1 .75-.76z" stroke="#3a414a" stroke-width="1.5" fill="none"/><path d="M-860.2-582.3h-155.3v-3h155.3zm1019.58 0h-946.73v-3h946.73z" stroke="#3a414a" stroke-width=".05" fill="#3a414a"/><path d="M-1015.47-582.3h-1.54v-3h1.53zm-4.53 0v-3" fill="#3a414a"/><path d="M-1015.44-582.28h-1.6v-3.05h1.6zm-4.53-.02h-.05v-3h.04zm3-2.98v2.95h1.48v-2.95z" stroke="#3a414a" stroke-width=".05" fill="#3a414a"/><path d="M175.15-583.8l-14.27 4.63v-9.27z" fill="#3a414a"/><path d="M180-583.8l-20.62 6.7v-13.4zm-17.62 2.57l7.9-2.57-7.9-2.57z" stroke="#3a414a" stroke-width=".05" fill="#3a414a"/><use xlink:href="#p" transform="matrix(1,0,0,1,-860.1916396316941,-597.1344906569095) translate(0 17.77777777777778)"/><path d="M-327.07-483.26H-477v-3h149.93zm486.45 0H-12.7v-3H159.4z" stroke="#3a414a" stroke-width=".05" fill="#3a414a"/><path d="M-476.97-483.26h-1.54v-3h1.53zm-4.53 0v-3" fill="#3a414a"/><path d="M-476.94-483.23h-1.6v-3.05h1.6zm-4.53-.03h-.05v-3h.04zm3-2.97v2.95h1.48v-2.95z" stroke="#3a414a" stroke-width=".05" fill="#3a414a"/><path d="M175.15-484.76l-14.27 4.64v-9.27z" fill="#3a414a"/><path d="M180-484.76l-20.62 6.7v-13.4zm-17.62 2.57l7.9-2.56-7.9-2.57z" stroke="#3a414a" stroke-width=".05" fill="#3a414a"/><use xlink:href="#q" transform="matrix(1,0,0,1,-327.06874508136855,-498.09177853461364) translate(0 17.77777777777778)"/><use xlink:href="#r" transform="matrix(1,0,0,1,-327.06874508136855,-498.09177853461364) translate(69.07407407407406 17.77777777777778)"/><use xlink:href="#s" transform="matrix(1,0,0,1,-327.06874508136855,-498.09177853461364) translate(93.76543209876542 17.77777777777778)"/><use xlink:href="#t" transform="matrix(1,0,0,1,-327.06874508136855,-498.09177853461364) translate(172.6543209876543 17.77777777777778)"/><use xlink:href="#u" transform="matrix(1,0,0,1,-327.06874508136855,-498.09177853461364) translate(213.33333333333331 17.77777777777778)"/><use xlink:href="#v" transform="matrix(1,0,0,1,-327.06874508136855,-498.09177853461364) translate(238.02469135802468 17.77777777777778)"/><path d="M-571.75-369.43H-996.4v-3h424.65zm750.25-.4h-20.63l-.28.37-422.43.02v-3l420.82-.02.07-.1.82-.28h21.6z" stroke="#3a414a" stroke-width=".05" fill="#3a414a"/><path d="M180-369.84h-1.54v-3H180zm3 0v-3" fill="#3a414a"/><path d="M180.03-369.8h-1.6v-3.06h1.6zm3-.04h-.05v-3h.04zm-4.54-2.97v2.94h1.48v-2.95z" stroke="#3a414a" stroke-width=".05" fill="#3a414a"/><path d="M-997.9-366.28l-14.25-4.64 14.26-4.63z" fill="#3a414a"/><path d="M-996.4-364.22l-20.6-6.7 20.6-6.7zm-10.9-6.7l7.9 2.57v-5.14z" stroke="#3a414a" stroke-width=".05" fill="#3a414a"/><use xlink:href="#w" transform="matrix(1,0,0,1,-571.7475762115009,-384.2492359687073) translate(0 17.77777777777778)"/><use xlink:href="#r" transform="matrix(1,0,0,1,-571.7475762115009,-384.2492359687073) translate(98.58024691358024 17.77777777777778)"/><use xlink:href="#x" transform="matrix(1,0,0,1,-571.7475762115009,-384.2492359687073) translate(123.2716049382716 17.77777777777778)"/><use xlink:href="#y" transform="matrix(1,0,0,1,-571.7475762115009,-384.2492359687073) translate(173.82716049382714 17.77777777777778)"/><use xlink:href="#v" transform="matrix(1,0,0,1,-571.7475762115009,-384.2492359687073) translate(230.55555555555554 17.77777777777778)"/><path d="M-494.3-250.77h-521.2v-3h521.2zm653.68-.27H-342.7v-3h502.08z" stroke="#3a414a" stroke-width=".05" fill="#3a414a"/><path d="M-1015.47-250.77h-1.54v-3h1.53zm-4.53 0v-3" fill="#3a414a"/><path d="M-1015.44-250.75h-1.6v-3.05h1.6zm-4.53-.02h-.05v-3h.04zm3-2.98v2.95h1.48v-2.95z" stroke="#3a414a" stroke-width=".05" fill="#3a414a"/><path d="M175.15-252.54l-14.27 4.64v-9.27z" fill="#3a414a"/><path d="M180-252.54l-20.62 6.7v-13.4zm-17.62 2.57l7.9-2.57-7.9-2.57z" stroke="#3a414a" stroke-width=".05" fill="#3a414a"/><use xlink:href="#z" transform="matrix(1,0,0,1,-494.3045564931999,-265.7396546567939) translate(0 17.77777777777778)"/><use xlink:href="#A" transform="matrix(1,0,0,1,-494.3045564931999,-265.7396546567939) translate(106.04938271604938 17.77777777777778)"/><path d="M1060-1062.3a6 6 0 0 1 6-6h268a6 6 0 0 1 6 6V-946a6 6 0 0 1-6 6h-268a6 6 0 0 1-6-6z" stroke="#3a414a" fill="#cfe4ff"/><use xlink:href="#B" transform="matrix(1,0,0,1,1072,-1056.3047014972622) translate(-5.648148148148124 58.72222222222222)"/><path d="M1181.5-937.14a.75.75 0 0 1 .75.75v2565.6a.75.75 0 0 1-.75.75.75.75 0 0 1-.75-.75V-936.4a.75.75 0 0 1 .75-.74z" stroke="#3a414a" stroke-width="1.5" fill="none"/><path d="M491.62-162.84h-288v-3h288zm686.88 0H871.37v-3h307.13z" stroke="#3a414a" stroke-width=".05" fill="#3a414a"/><path d="M1180-162.84h-1.54v-3h1.54zm3 0v-3" fill="#3a414a"/><path d="M1180.03-162.8h-1.6v-3.06h1.6zm3-.04h-.05v-3h.04zm-4.54-2.97v2.94h1.48v-2.95z" stroke="#3a414a" stroke-width=".05" fill="#3a414a"/><path d="M202.1-159.7l-14.25-4.64 14.26-4.63z" fill="#3a414a"/><path d="M203.6-157.64l-20.6-6.7 20.6-6.7zm-10.9-6.7l7.9 2.57v-5.14z" stroke="#3a414a" stroke-width=".05" fill="#3a414a"/><use xlink:href="#C" transform="matrix(1,0,0,1,491.62165202781466,-177.6726265885412) translate(0 17.77777777777778)"/><use xlink:href="#r" transform="matrix(1,0,0,1,491.62165202781466,-177.6726265885412) translate(123.2716049382716 17.77777777777778)"/><use xlink:href="#x" transform="matrix(1,0,0,1,491.62165202781466,-177.6726265885412) translate(147.96296296296296 17.77777777777778)"/><use xlink:href="#D" transform="matrix(1,0,0,1,491.62165202781466,-177.6726265885412) translate(198.51851851851853 17.77777777777778)"/><use xlink:href="#E" transform="matrix(1,0,0,1,491.62165202781466,-177.6726265885412) translate(272.4074074074074 17.77777777777778)"/><use xlink:href="#F" transform="matrix(1,0,0,1,491.62165202781466,-177.6726265885412) translate(310.61728395061726 17.77777777777778)"/><path d="M-354.46-50.04H-996.4v-3h641.94zm532.96 0H-41.37v-3H178.5z" stroke="#3a414a" stroke-width=".05" fill="#3a414a"/><path d="M180-50.04h-1.54v-3H180zm3 0v-3" fill="#3a414a"/><path d="M180.03-50h-1.6v-3.06h1.6zm3-.04h-.05v-3h.04zM178.5-53v2.94h1.48V-53z" stroke="#3a414a" stroke-width=".05" fill="#3a414a"/><path d="M-997.9-46.9l-14.25-4.64 14.26-4.63z" fill="#3a414a"/><path d="M-996.4-44.84l-20.6-6.7 20.6-6.7zm-10.9-6.7l7.9 2.57v-5.14z" stroke="#3a414a" stroke-width=".05" fill="#3a414a"/><use xlink:href="#w" transform="matrix(1,0,0,1,-354.4576124941992,-64.87281315255173) translate(0 17.77777777777778)"/><use xlink:href="#r" transform="matrix(1,0,0,1,-354.4576124941992,-64.87281315255173) translate(98.58024691358024 17.77777777777778)"/><use xlink:href="#x" transform="matrix(1,0,0,1,-354.4576124941992,-64.87281315255173) translate(123.2716049382716 17.77777777777778)"/><use xlink:href="#E" transform="matrix(1,0,0,1,-354.4576124941992,-64.87281315255173) translate(173.82716049382714 17.77777777777778)"/><use xlink:href="#G" transform="matrix(1,0,0,1,-354.4576124941992,-64.87281315255173) translate(212.037037037037 17.77777777777778)"/><path d="M159.38 89.2v3l-516.24-.08v-3zm-1174.9 2.8v-3h433.04v3z" stroke="#3a414a" stroke-width=".05" fill="#3a414a"/><path d="M-1015.47 92h-1.54v-3h1.53zm-4.53 0v-3" fill="#3a414a"/><path d="M-1015.44 92.03h-1.6v-3.05h1.6zm-4.53-.02h-.05v-3h.04zm3-2.97v2.95h1.48v-2.95z" stroke="#3a414a" stroke-width=".05" fill="#3a414a"/><path d="M175.15 90.7l-14.27 4.63v-9.27z" fill="#3a414a"/><path d="M180 90.7l-20.62 6.7V84zm-17.62 2.57l7.92-2.57-7.92-2.58z" stroke="#3a414a" stroke-width=".05" fill="#3a414a"/><use xlink:href="#H" transform="matrix(1,0,0,1,-582.4771184916818,77.1736154745784) translate(0 17.777777777777775)"/><use xlink:href="#I" transform="matrix(1,0,0,1,-582.4771184916818,77.1736154745784) translate(112.2222222222222 17.777777777777775)"/><use xlink:href="#J" transform="matrix(1,0,0,1,-582.4771184916818,77.1736154745784) translate(124.56790123456787 17.777777777777775)"/><path d="M507.64-206.4H184.5v-3h323.14zm651.74 0H855.36v-3h304.02z" stroke="#3a414a" stroke-width=".05" fill="#3a414a"/><path d="M184.53-206.4H183v-3h1.53zm-4.53 0v-3" fill="#3a414a"/><path d="M184.56-206.36h-1.6v-3.05h1.6zm-4.53-.03h-.05v-3h.04zm3-2.96v2.95h1.48v-2.96z" stroke="#3a414a" stroke-width=".05" fill="#3a414a"/><path d="M1175.15-207.9l-14.27 4.65v-9.27z" fill="#3a414a"/><path d="M1180-207.9l-20.62 6.7v-13.4zm-17.62 2.58l7.9-2.57-7.9-2.56z" stroke="#3a414a" stroke-width=".05" fill="#3a414a"/><use xlink:href="#K" transform="matrix(1,0,0,1,507.64001183143085,-221.22071199594743) translate(0 17.77777777777778)"/><use xlink:href="#r" transform="matrix(1,0,0,1,507.64001183143085,-221.22071199594743) translate(91.23456790123457 17.77777777777778)"/><use xlink:href="#x" transform="matrix(1,0,0,1,507.64001183143085,-221.22071199594743) translate(115.92592592592592 17.77777777777778)"/><use xlink:href="#D" transform="matrix(1,0,0,1,507.64001183143085,-221.22071199594743) translate(166.48148148148147 17.77777777777778)"/><use xlink:href="#E" transform="matrix(1,0,0,1,507.64001183143085,-221.22071199594743) translate(240.37037037037035 17.77777777777778)"/><use xlink:href="#F" transform="matrix(1,0,0,1,507.64001183143085,-221.22071199594743) translate(278.58024691358025 17.77777777777778)"/><path d="M465.05 152.2H184.5v-3h280.55zm694.33 0h-346.6v-3h346.6z" stroke="#3a414a" stroke-width=".05" fill="#3a414a"/><path d="M184.53 152.2H183v-3h1.53zm-4.53 0v-3" fill="#3a414a"/><path d="M184.56 152.22h-1.6v-3.05h1.6zm-4.53-.02h-.05v-3h.04zm3-2.98v2.95h1.48v-2.95z" stroke="#3a414a" stroke-width=".05" fill="#3a414a"/><path d="M1175.15 150.7l-14.27 4.63v-9.27z" fill="#3a414a"/><path d="M1180 150.7l-20.62 6.7V144zm-17.62 2.57l7.9-2.57-7.9-2.58z" stroke="#3a414a" stroke-width=".05" fill="#3a414a"/><use xlink:href="#K" transform="matrix(1,0,0,1,465.0534986648135,137.36196516939813) translate(0 17.77777777777778)"/><use xlink:href="#r" transform="matrix(1,0,0,1,465.0534986648135,137.36196516939813) translate(91.23456790123457 17.77777777777778)"/><use xlink:href="#x" transform="matrix(1,0,0,1,465.0534986648135,137.36196516939813) translate(115.92592592592592 17.77777777777778)"/><use xlink:href="#D" transform="matrix(1,0,0,1,465.0534986648135,137.36196516939813) translate(166.48148148148147 17.77777777777778)"/><use xlink:href="#E" transform="matrix(1,0,0,1,465.0534986648135,137.36196516939813) translate(240.37037037037035 17.77777777777778)"/><use xlink:href="#F" transform="matrix(1,0,0,1,465.0534986648135,137.36196516939813) translate(278.58024691358025 17.77777777777778)"/><path d="M527.6 260.9H203.63v-3h324zm650.9 0H901.2v-3h277.3z" stroke="#3a414a" stroke-width=".05" fill="#3a414a"/><path d="M1180 260.9h-1.53v-3h1.53zm3 0v-3" fill="#3a414a"/><path d="M1180.03 260.93h-1.6v-3.05h1.6zm3-.02h-.05v-3h.04zm-4.54-2.97v2.95h1.48v-2.95z" stroke="#3a414a" stroke-width=".05" fill="#3a414a"/><path d="M202.12 264.04l-14.27-4.63 14.27-4.63z" fill="#3a414a"/><path d="M203.62 266.1L183 259.4l20.62-6.7zm-10.92-6.7l7.92 2.58v-5.15z" stroke="#3a414a" stroke-width=".05" fill="#3a414a"/><use xlink:href="#L" transform="matrix(1,0,0,1,527.6083648712477,246.07218303886194) translate(0 17.77777777777778)"/><use xlink:href="#r" transform="matrix(1,0,0,1,527.6083648712477,246.07218303886194) translate(117.09876543209876 17.77777777777778)"/><use xlink:href="#x" transform="matrix(1,0,0,1,527.6083648712477,246.07218303886194) translate(141.79012345679013 17.77777777777778)"/><use xlink:href="#D" transform="matrix(1,0,0,1,527.6083648712477,246.07218303886194) translate(192.34567901234567 17.77777777777778)"/><use xlink:href="#E" transform="matrix(1,0,0,1,527.6083648712477,246.07218303886194) translate(266.2345679012345 17.77777777777778)"/><use xlink:href="#F" transform="matrix(1,0,0,1,527.6083648712477,246.07218303886194) translate(304.4444444444444 17.77777777777778)"/><path d="M-7.5 328.72l.47.48H178.5v3H-7.92l-.7-.17-.3-.3-254.9-.02v-3zm-616.26-.02v3h-372.62v-3z" stroke="#3a414a" stroke-width=".05" fill="#3a414a"/><path d="M180 332.2h-1.53v-3H180zm3 0v-3" fill="#3a414a"/><path d="M180.03 332.22h-1.6v-3.05h1.6zm3-.02h-.05v-3h.04zm-4.54-2.98v2.95h1.48v-2.95z" stroke="#3a414a" stroke-width=".05" fill="#3a414a"/><path d="M-997.88 334.82l-14.27-4.63 14.27-4.65z" fill="#3a414a"/><path d="M-996.38 336.9l-20.62-6.7 20.62-6.7zm-10.92-6.7l7.92 2.56v-5.14z" stroke="#3a414a" stroke-width=".05" fill="#3a414a"/><use xlink:href="#w" transform="matrix(1,0,0,1,-623.756367185631,316.85580377997525) translate(0.0049999999999954525 17.77777777777778)"/><use xlink:href="#r" transform="matrix(1,0,0,1,-623.756367185631,316.85580377997525) translate(98.58524691358024 17.77777777777778)"/><use xlink:href="#x" transform="matrix(1,0,0,1,-623.756367185631,316.85580377997525) translate(123.27660493827159 17.77777777777778)"/><use xlink:href="#E" transform="matrix(1,0,0,1,-623.756367185631,316.85580377997525) translate(173.83216049382713 17.77777777777778)"/><use xlink:href="#M" transform="matrix(1,0,0,1,-623.756367185631,316.85580377997525) translate(212.042037037037 17.77777777777778)"/><use xlink:href="#N" transform="matrix(1,0,0,1,-623.756367185631,316.85580377997525) translate(251.42475308641974 17.77777777777778)"/><use xlink:href="#O" transform="matrix(1,0,0,1,-623.756367185631,316.85580377997525) translate(277.28895061728394 17.77777777777778)"/><path d="M159.4 525.35v3l-489.45-.02v-3zm-1174.9 2.23v-3h419.15v3z" stroke="#3a414a" stroke-width=".05" fill="#3a414a"/><path d="M-1015.47 527.58h-1.53v-3h1.53zm-4.52 0v-3" fill="#3a414a"/><path d="M-1015.44 527.6h-1.6v-3.05h1.6zm-4.53-.02h-.05v-3h.04zm3-2.98v2.95h1.48v-2.95z" stroke="#3a414a" stroke-width=".05" fill="#3a414a"/><path d="M175.15 526.85l-14.26 4.63v-9.27z" fill="#3a414a"/><path d="M180 526.85l-20.6 6.7v-13.4zm-17.6 2.57l7.9-2.57-7.9-2.58z" stroke="#3a414a" stroke-width=".05" fill="#3a414a"/><use xlink:href="#z" transform="matrix(1,0,0,1,-596.3463133812185,512.7458557187534) translate(0.0049999999999954525 17.77777777777778)"/><use xlink:href="#P" transform="matrix(1,0,0,1,-596.3463133812185,512.7458557187534) translate(106.05438271604937 17.77777777777778)"/><use xlink:href="#M" transform="matrix(1,0,0,1,-596.3463133812185,512.7458557187534) translate(118.40006172839506 17.77777777777778)"/><use xlink:href="#N" transform="matrix(1,0,0,1,-596.3463133812185,512.7458557187534) translate(157.78277777777777 17.77777777777778)"/><use xlink:href="#O" transform="matrix(1,0,0,1,-596.3463133812185,512.7458557187534) translate(183.64697530864197 17.77777777777778)"/><path d="M507.64 612.2H184.5v-3h323.14zm651.74 0H855.36v-3h304.02z" stroke="#3a414a" stroke-width=".05" fill="#3a414a"/><path d="M184.53 612.2H183v-3h1.53zm-4.52 0v-3" fill="#3a414a"/><path d="M184.56 612.22h-1.6v-3.05h1.6zm-4.53-.02h-.05v-3h.04zm3-2.98v2.95h1.48v-2.95z" stroke="#3a414a" stroke-width=".05" fill="#3a414a"/><path d="M1175.15 610.7l-14.27 4.63v-9.27z" fill="#3a414a"/><path d="M1180 610.7l-20.62 6.7V604zm-17.62 2.57l7.92-2.57-7.92-2.58z" stroke="#3a414a" stroke-width=".05" fill="#3a414a"/><use xlink:href="#K" transform="matrix(1,0,0,1,507.6429952294033,597.3619651694488) translate(0 17.77777777777778)"/><use xlink:href="#r" transform="matrix(1,0,0,1,507.6429952294033,597.3619651694488) translate(91.23456790123457 17.77777777777778)"/><use xlink:href="#x" transform="matrix(1,0,0,1,507.6429952294033,597.3619651694488) translate(115.92592592592592 17.77777777777778)"/><use xlink:href="#D" transform="matrix(1,0,0,1,507.6429952294033,597.3619651694488) translate(166.48148148148147 17.77777777777778)"/><use xlink:href="#E" transform="matrix(1,0,0,1,507.6429952294033,597.3619651694488) translate(240.37037037037035 17.77777777777778)"/><use xlink:href="#F" transform="matrix(1,0,0,1,507.6429952294033,597.3619651694488) translate(278.58024691358025 17.77777777777778)"/><path d="M473.5 711.24H203.6v-3H473.5zm662.56 0h-289v-3h289z" stroke="#3a414a" stroke-width=".05" fill="#3a414a"/><path d="M1137.56 711.24h-1.53v-3h1.53z" stroke="#3a414a" stroke-width=".05" fill="#3a414a"/><path d="M202.12 714.37l-14.27-4.63 14.27-4.64z" fill="#3a414a"/><path d="M203.62 716.44l-20.62-6.7 20.62-6.7zm-10.9-6.7l7.9 2.57v-5.13z" stroke="#3a414a" stroke-width=".05" fill="#3a414a"/><g><use xlink:href="#L" transform="matrix(1,0,0,1,473.49047940604066,696.4058483567145) translate(0 17.77777777777778)"/><use xlink:href="#r" transform="matrix(1,0,0,1,473.49047940604066,696.4058483567145) translate(117.09876543209876 17.77777777777778)"/><use xlink:href="#x" transform="matrix(1,0,0,1,473.49047940604066,696.4058483567145) translate(141.79012345679013 17.77777777777778)"/><use xlink:href="#D" transform="matrix(1,0,0,1,473.49047940604066,696.4058483567145) translate(192.34567901234567 17.77777777777778)"/><use xlink:href="#E" transform="matrix(1,0,0,1,473.49047940604066,696.4058483567145) translate(266.2345679012345 17.77777777777778)"/><use xlink:href="#F" transform="matrix(1,0,0,1,473.49047940604066,696.4058483567145) translate(304.4444444444444 17.77777777777778)"/></g><path d="M29 788.1l.68.36.46.46.14.28H178.5v3H29.46l-.52-.1-.58-.28-.46-.46-.14-.25h-299.28v-3zm-692.5 0v3l-332.88-.02v-3z" stroke="#3a414a" stroke-width=".05" fill="#3a414a"/><path d="M180 792.2h-1.53v-3H180zm3 0v-3" fill="#3a414a"/><path d="M180.03 792.22h-1.6v-3.05h1.6zm3-.02h-.05v-3h.04zm-4.54-2.98v2.95h1.48v-2.95z" stroke="#3a414a" stroke-width=".05" fill="#3a414a"/><path d="M-997.88 794.22l-14.27-4.64 14.27-4.64z" fill="#3a414a"/><path d="M-996.38 796.28l-20.62-6.7 20.62-6.7zm-10.9-6.7l7.9 2.57V787z" stroke="#3a414a" stroke-width=".05" fill="#3a414a"/><g><use xlink:href="#w" transform="matrix(1,0,0,1,-663.4993604095931,776.2466659527812) translate(0 17.77777777777778)"/><use xlink:href="#r" transform="matrix(1,0,0,1,-663.4993604095931,776.2466659527812) translate(98.58024691358024 17.77777777777778)"/><use xlink:href="#x" transform="matrix(1,0,0,1,-663.4993604095931,776.2466659527812) translate(123.2716049382716 17.77777777777778)"/><use xlink:href="#Q" transform="matrix(1,0,0,1,-663.4993604095931,776.2466659527812) translate(173.82716049382714 17.77777777777778)"/><use xlink:href="#R" transform="matrix(1,0,0,1,-663.4993604095931,776.2466659527812) translate(231.72839506172838 17.77777777777778)"/><use xlink:href="#N" transform="matrix(1,0,0,1,-663.4993604095931,776.2466659527812) translate(283.45679012345676 17.77777777777778)"/><use xlink:href="#O" transform="matrix(1,0,0,1,-663.4993604095931,776.2466659527812) translate(309.32098765432096 17.77777777777778)"/></g><path d="M159.4 902.35v3l-471.57-.03v-3zm-1174.9 1.73v-3h392.65v3z" stroke="#3a414a" stroke-width=".05" fill="#3a414a"/><path d="M-1015.46 904.08h-1.54v-3h1.54zm-4.53 0v-3" fill="#3a414a"/><path d="M-1015.44 904.1h-1.6v-3.04h1.6zm-4.53-.02h-.05v-3h.04zm3-2.97v2.96h1.48v-2.95z" stroke="#3a414a" stroke-width=".05" fill="#3a414a"/><path d="M175.15 903.85l-14.26 4.63v-9.27z" fill="#3a414a"/><path d="M180 903.85l-20.6 6.7v-13.4zm-17.6 2.57l7.9-2.57-7.9-2.57z" stroke="#3a414a" stroke-width=".05" fill="#3a414a"/><g><use xlink:href="#z" transform="matrix(1,0,0,1,-622.851212261445,889.250168391265) translate(0 17.77777777777778)"/><use xlink:href="#S" transform="matrix(1,0,0,1,-622.851212261445,889.250168391265) translate(106.04938271604938 17.77777777777778)"/><use xlink:href="#R" transform="matrix(1,0,0,1,-622.851212261445,889.250168391265) translate(138.08641975308643 17.77777777777778)"/><use xlink:href="#T" transform="matrix(1,0,0,1,-622.851212261445,889.250168391265) translate(189.81481481481484 17.77777777777778)"/><use xlink:href="#O" transform="matrix(1,0,0,1,-622.851212261445,889.250168391265) translate(228.0246913580247 17.77777777777778)"/></g><path d="M544.85 1012.2H184.5v-3h360.35zm614.54 0H892.56v-3h266.82z" stroke="#3a414a" stroke-width=".05" fill="#3a414a"/><path d="M184.54 1012.2H183v-3h1.54zm-4.53 0v-3" fill="#3a414a"/><path d="M184.56 1012.22h-1.6v-3.05h1.6zm-4.53-.02h-.05v-3h.04zm3-2.98v2.95h1.48v-2.95z" stroke="#3a414a" stroke-width=".05" fill="#3a414a"/><path d="M1175.15 1010.7l-14.26 4.63v-9.27z" fill="#3a414a"/><path d="M1180 1010.7l-20.6 6.7V1004zm-17.6 2.57l7.9-2.57-7.9-2.58z" stroke="#3a414a" stroke-width=".05" fill="#3a414a"/><g><use xlink:href="#K" transform="matrix(1,0,0,1,544.853004492245,997.3619651694931) translate(0 17.77777777777778)"/><use xlink:href="#r" transform="matrix(1,0,0,1,544.853004492245,997.3619651694931) translate(91.23456790123457 17.77777777777778)"/><use xlink:href="#x" transform="matrix(1,0,0,1,544.853004492245,997.3619651694931) translate(115.92592592592592 17.77777777777778)"/><use xlink:href="#D" transform="matrix(1,0,0,1,544.853004492245,997.3619651694931) translate(166.48148148148147 17.77777777777778)"/><use xlink:href="#E" transform="matrix(1,0,0,1,544.853004492245,997.3619651694931) translate(240.37037037037035 17.77777777777778)"/><use xlink:href="#F" transform="matrix(1,0,0,1,544.853004492245,997.3619651694931) translate(278.58024691358025 17.77777777777778)"/></g><path d="M494.7 1112.2H203.63v-3h291.1zm683.8 0H868.3v-3h310.2z" stroke="#3a414a" stroke-width=".05" fill="#3a414a"/><path d="M1180 1112.2h-1.53v-3h1.54zm3 0v-3" fill="#3a414a"/><path d="M1180.03 1112.22h-1.6v-3.05h1.6zm3-.02h-.05v-3h.04zm-4.54-2.98v2.95h1.48v-2.95z" stroke="#3a414a" stroke-width=".05" fill="#3a414a"/><path d="M202.12 1115.33l-14.27-4.63 14.27-4.64z" fill="#3a414a"/><path d="M203.62 1117.4l-20.62-6.7 20.62-6.7zm-10.9-6.7l7.9 2.57v-5.15z" stroke="#3a414a" stroke-width=".05" fill="#3a414a"/><g><use xlink:href="#L" transform="matrix(1,0,0,1,494.71271875880825,1097.3619651694096) translate(0 17.77777777777778)"/><use xlink:href="#r" transform="matrix(1,0,0,1,494.71271875880825,1097.3619651694096) translate(117.09876543209876 17.77777777777778)"/><use xlink:href="#x" transform="matrix(1,0,0,1,494.71271875880825,1097.3619651694096) translate(141.79012345679013 17.77777777777778)"/><use xlink:href="#D" transform="matrix(1,0,0,1,494.71271875880825,1097.3619651694096) translate(192.34567901234567 17.77777777777778)"/><use xlink:href="#E" transform="matrix(1,0,0,1,494.71271875880825,1097.3619651694096) translate(266.2345679012345 17.77777777777778)"/><use xlink:href="#F" transform="matrix(1,0,0,1,494.71271875880825,1097.3619651694096) translate(304.4444444444444 17.77777777777778)"/></g><path d="M1458.1-1063.3a6 6 0 0 1 6-6h194.8a6 6 0 0 1 6 6V-947a6 6 0 0 1-6 6h-194.8a6 6 0 0 1-6-6z" stroke="#3a414a" fill="#cfe4ff"/><g><use xlink:href="#U" transform="matrix(1,0,0,1,1470.1067520776592,-1057.3047014972626) translate(35.4567901234568 57.701388888888886)"/></g><g><path d="M1561.5-939.25a.75.75 0 0 1 .75.75v2557.7a.75.75 0 0 1-.75.75.75.75 0 0 1-.75-.75V-938.5a.75.75 0 0 1 .75-.75z" stroke="#3a414a" stroke-width="1.5" fill="none"/></g><path d="M648.16 1272.17l-444.54.03v-3l444.54-.03zm910.35-.26h-523.36v-3h523.37z" stroke="#3a414a" stroke-width=".05" fill="#3a414a"/><path d="M1560 1271.9h-1.53v-3h1.54zm3 0v-3" fill="#3a414a"/><path d="M1560.03 1271.93h-1.6v-3.05h1.6zm3-.02h-.05v-3h.04zm-4.54-2.97v2.95h1.48v-2.95z" stroke="#3a414a" stroke-width=".05" fill="#3a414a"/><path d="M202.12 1275.33l-14.27-4.63 14.27-4.64z" fill="#3a414a"/><path d="M203.62 1277.4l-20.62-6.7 20.62-6.7zm-10.9-6.7l7.9 2.57v-5.15z" stroke="#3a414a" stroke-width=".05" fill="#3a414a"/><g><use xlink:href="#V" transform="matrix(1,0,0,1,648.1602892453384,1257.361965169386) translate(0 17.77777777777778)"/><use xlink:href="#r" transform="matrix(1,0,0,1,648.1602892453384,1257.361965169386) translate(92.4074074074074 17.77777777777778)"/><use xlink:href="#s" transform="matrix(1,0,0,1,648.1602892453384,1257.361965169386) translate(117.09876543209876 17.77777777777778)"/><use xlink:href="#t" transform="matrix(1,0,0,1,648.1602892453384,1257.361965169386) translate(195.98765432098764 17.77777777777778)"/><use xlink:href="#W" transform="matrix(1,0,0,1,648.1602892453384,1257.361965169386) translate(236.66666666666666 17.77777777777778)"/><use xlink:href="#X" transform="matrix(1,0,0,1,648.1602892453384,1257.361965169386) translate(249.01234567901233 17.77777777777778)"/><use xlink:href="#Y" transform="matrix(1,0,0,1,648.1602892453384,1257.361965169386) translate(335.2469135802469 17.77777777777778)"/></g><path d="M693.4 1212.2H184.5v-3h508.9zm846-.34l-667.07.05-.7.3H795.8v-3h74.63l.12-.3 668.84-.04z" stroke="#3a414a" stroke-width=".05" fill="#3a414a"/><path d="M184.54 1212.2H183v-3h1.54zm-4.53 0v-3" fill="#3a414a"/><path d="M184.56 1212.22h-1.6v-3.05h1.6zm-4.53-.02h-.05v-3h.04zm3-2.98v2.95h1.48v-2.95z" stroke="#3a414a" stroke-width=".05" fill="#3a414a"/><path d="M1555.15 1210.36l-14.26 4.63v-9.28z" fill="#3a414a"/><path d="M1560 1210.36l-20.6 6.7v-13.4zm-17.6 2.57l7.9-2.57-7.9-2.57z" stroke="#3a414a" stroke-width=".05" fill="#3a414a"/><g><use xlink:href="#l" transform="matrix(1,0,0,1,693.3895706130804,1197.3619651694805) translate(0 17.77777777777778)"/></g><path d="M-605.35 1361.5h-391.03v-3h391.03zm783.86 0h-410.14v-3H178.5z" stroke="#3a414a" stroke-width=".05" fill="#3a414a"/><path d="M180 1361.5h-1.53v-3H180zm3 0v-3" fill="#3a414a"/><path d="M180.03 1361.53h-1.58v-3.06h1.58zm3-.03h-.05v-3h.04zm-4.53-2.97v2.94h1.48v-2.94z" stroke="#3a414a" stroke-width=".05" fill="#3a414a"/><path d="M-997.88 1364.64l-14.27-4.64 14.27-4.64z" fill="#3a414a"/><path d="M-996.38 1366.7l-20.62-6.7 20.62-6.7zm-10.9-6.7l7.9 2.57v-5.14z" stroke="#3a414a" stroke-width=".05" fill="#3a414a"/><g><use xlink:href="#w" transform="matrix(1,0,0,1,-605.346946521481,1346.6666666666458) translate(0 17.77777777777778)"/><use xlink:href="#r" transform="matrix(1,0,0,1,-605.346946521481,1346.6666666666458) translate(98.58024691358024 17.77777777777778)"/><use xlink:href="#x" transform="matrix(1,0,0,1,-605.346946521481,1346.6666666666458) translate(123.2716049382716 17.77777777777778)"/><use xlink:href="#E" transform="matrix(1,0,0,1,-605.346946521481,1346.6666666666458) translate(173.82716049382714 17.77777777777778)"/><use xlink:href="#Z" transform="matrix(1,0,0,1,-605.346946521481,1346.6666666666458) translate(212.037037037037 17.77777777777778)"/><use xlink:href="#aa" transform="matrix(1,0,0,1,-605.346946521481,1346.6666666666458) translate(287.3456790123456 17.77777777777778)"/></g><defs><path fill="#3a414a" d="M199 0l-22-63H83L61 0H9l90-248h61L250 0h-51zm-33-102l-36-108c-10 38-24 72-36 108h72" id="ab"/><path fill="#3a414a" d="M135-194c53 0 70 44 70 98 0 56-19 98-73 100-31 1-45-17-59-34 3 33 2 69 2 105H25l-1-265h48c2 10 0 23 3 31 11-24 29-35 60-35zM114-30c33 0 39-31 40-66 0-38-9-64-40-64-56 0-55 130 0 130" id="ac"/><path fill="#3a414a" d="M25-224v-37h50v37H25zM25 0v-190h50V0H25" id="ad"/><g id="a"><use transform="matrix(0.08641975308641973,0,0,0.08641975308641973,0,0)" xlink:href="#ab"/><use transform="matrix(0.08641975308641973,0,0,0.08641975308641973,22.38271604938271,0)" xlink:href="#ac"/><use transform="matrix(0.08641975308641973,0,0,0.08641975308641973,41.30864197530863,0)" xlink:href="#ad"/></g><path fill="#3a414a" d="M230 0l2-204L168 0h-37L68-204 70 0H24v-248h70l56 185 57-185h69V0h-46" id="ae"/><path fill="#3a414a" d="M133-34C117-15 103 5 69 4 32 3 11-16 11-54c-1-60 55-63 116-61 1-26-3-47-28-47-18 1-26 9-28 27l-52-2c7-38 36-58 82-57s74 22 75 68l1 82c-1 14 12 18 25 15v27c-30 8-71 5-69-32zm-48 3c29 0 43-24 42-57-32 0-66-3-65 30 0 17 8 27 23 27" id="af"/><path fill="#3a414a" d="M135-194c87-1 58 113 63 194h-50c-7-57 23-157-34-157-59 0-34 97-39 157H25l-1-190h47c2 12-1 28 3 38 12-26 28-41 61-42" id="ag"/><path fill="#3a414a" d="M67-125c0 53 21 87 73 88 37 1 54-22 65-47l45 17C233-25 199 4 140 4 58 4 20-42 15-125 8-235 124-281 211-232c18 10 29 29 36 50l-46 12c-8-25-30-41-62-41-52 0-71 34-72 86" id="ah"/><path fill="#3a414a" d="M110-194c64 0 96 36 96 99 0 64-35 99-97 99-61 0-95-36-95-99 0-62 34-99 96-99zm-1 164c35 0 45-28 45-65 0-40-10-65-43-65-34 0-45 26-45 65 0 36 10 65 43 65" id="ai"/><path fill="#3a414a" d="M115-3C79 11 28 4 28-45v-112H4v-33h27l15-45h31v45h36v33H77v99c-1 23 16 31 38 25v30" id="aj"/><path fill="#3a414a" d="M135-150c-39-12-60 13-60 57V0H25l-1-190h47c2 13-1 29 3 40 6-28 27-53 61-41v41" id="ak"/><path fill="#3a414a" d="M25 0v-261h50V0H25" id="al"/><path fill="#3a414a" d="M185-48c-13 30-37 53-82 52C43 2 14-33 14-96s30-98 90-98c62 0 83 45 84 108H66c0 31 8 55 39 56 18 0 30-7 34-22zm-45-69c5-46-57-63-70-21-2 6-4 13-4 21h74" id="am"/><g id="b"><use transform="matrix(0.08641975308641973,0,0,0.08641975308641973,0,0)" xlink:href="#ae"/><use transform="matrix(0.08641975308641973,0,0,0.08641975308641973,25.8395061728395,0)" xlink:href="#af"/><use transform="matrix(0.08641975308641973,0,0,0.08641975308641973,43.12345679012344,0)" xlink:href="#ad"/><use transform="matrix(0.08641975308641973,0,0,0.08641975308641973,51.76543209876541,0)" xlink:href="#ag"/><use transform="matrix(0.08641975308641973,0,0,0.08641975308641973,70.69135802469134,0)" xlink:href="#ah"/><use transform="matrix(0.08641975308641973,0,0,0.08641975308641973,93.07407407407405,0)" xlink:href="#ai"/><use transform="matrix(0.08641975308641973,0,0,0.08641975308641973,111.99999999999997,0)" xlink:href="#ag"/><use transform="matrix(0.08641975308641973,0,0,0.08641975308641973,130.9259259259259,0)" xlink:href="#aj"/><use transform="matrix(0.08641975308641973,0,0,0.08641975308641973,141.20987654320984,0)" xlink:href="#ak"/><use transform="matrix(0.08641975308641973,0,0,0.08641975308641973,153.3086419753086,0)" xlink:href="#ai"/><use transform="matrix(0.08641975308641973,0,0,0.08641975308641973,172.23456790123453,0)" xlink:href="#al"/><use transform="matrix(0.08641975308641973,0,0,0.08641975308641973,180.8765432098765,0)" xlink:href="#al"/><use transform="matrix(0.08641975308641973,0,0,0.08641975308641973,189.51851851851848,0)" xlink:href="#am"/><use transform="matrix(0.08641975308641973,0,0,0.08641975308641973,206.80246913580243,0)" xlink:href="#ak"/></g><path fill="#333" d="M133-34C117-15 103 5 69 4 32 3 11-16 11-54c-1-60 55-63 116-61 1-26-3-47-28-47-18 1-26 9-28 27l-52-2c7-38 36-58 82-57s74 22 75 68l1 82c-1 14 12 18 25 15v27c-30 8-71 5-69-32zm-48 3c29 0 43-24 42-57-32 0-66-3-65 30 0 17 8 27 23 27" id="an"/><path fill="#333" d="M128 0H69L1-190h53L99-40l48-150h52" id="ao"/><path fill="#333" d="M25-224v-37h50v37H25zM25 0v-190h50V0H25" id="ap"/><g id="c"><use transform="matrix(0.061728395061728385,0,0,0.061728395061728385,0,0)" xlink:href="#an"/><use transform="matrix(0.061728395061728385,0,0,0.061728395061728385,12.345679012345677,0)" xlink:href="#ao"/><use transform="matrix(0.061728395061728385,0,0,0.061728395061728385,24.691358024691354,0)" xlink:href="#ao"/><use transform="matrix(0.061728395061728385,0,0,0.061728395061728385,37.03703703703703,0)" xlink:href="#ap"/><use transform="matrix(0.061728395061728385,0,0,0.061728395061728385,43.20987654320987,0)" xlink:href="#an"/></g><path fill="#333" d="M25 0v-261h50V0H25" id="aq"/><path fill="#333" d="M62-158H24l-5-90h48" id="ar"/><path fill="#333" d="M135-194c53 0 70 44 70 98 0 56-19 98-73 100-31 1-45-17-59-34 3 33 2 69 2 105H25l-1-265h48c2 10 0 23 3 31 11-24 29-35 60-35zM114-30c33 0 39-31 40-66 0-38-9-64-40-64-56 0-55 130 0 130" id="as"/><g id="d"><use transform="matrix(0.061728395061728385,0,0,0.061728395061728385,0,0)" xlink:href="#aq"/><use transform="matrix(0.061728395061728385,0,0,0.061728395061728385,6.1728395061728385,0)" xlink:href="#ar"/><use transform="matrix(0.061728395061728385,0,0,0.061728395061728385,11.419753086419751,0)" xlink:href="#an"/><use transform="matrix(0.061728395061728385,0,0,0.061728395061728385,23.76543209876543,0)" xlink:href="#as"/><use transform="matrix(0.061728395061728385,0,0,0.061728395061728385,37.28395061728395,0)" xlink:href="#ap"/></g><path fill="#3a414a" d="M24 0v-248h52V0H24" id="at"/><path fill="#3a414a" d="M220-157c-53 9-28 100-34 157h-49v-107c1-27-5-49-29-50C55-147 81-57 75 0H25l-1-190h47c2 12-1 28 3 38 10-53 101-56 108 0 13-22 24-43 59-42 82 1 51 116 57 194h-49v-107c-1-25-5-48-29-50" id="au"/><path fill="#3a414a" d="M195-6C206 82 75 100 31 46c-4-6-6-13-8-21l49-6c3 16 16 24 34 25 40 0 42-37 40-79-11 22-30 35-61 35-53 0-70-43-70-97 0-56 18-96 73-97 30 0 46 14 59 34l2-30h47zm-90-29c32 0 41-27 41-63 0-35-9-62-40-62-32 0-39 29-40 63 0 36 9 62 39 62" id="av"/><path fill="#3a414a" d="M175 0L67-191c6 58 2 128 3 191H24v-248h59L193-55c-6-58-2-129-3-193h46V0h-61" id="aw"/><path fill="#3a414a" d="M137-138c1-29-70-34-71-4 15 46 118 7 119 86 1 83-164 76-172 9l43-7c4 19 20 25 44 25 33 8 57-30 24-41C81-84 22-81 20-136c-2-80 154-74 161-7" id="ax"/><g id="e"><use transform="matrix(0.08641975308641973,0,0,0.08641975308641973,0,0)" xlink:href="#at"/><use transform="matrix(0.08641975308641973,0,0,0.08641975308641973,8.641975308641973,0)" xlink:href="#au"/><use transform="matrix(0.08641975308641973,0,0,0.08641975308641973,36.29629629629629,0)" xlink:href="#af"/><use transform="matrix(0.08641975308641973,0,0,0.08641975308641973,53.58024691358023,0)" xlink:href="#av"/><use transform="matrix(0.08641975308641973,0,0,0.08641975308641973,72.50617283950616,0)" xlink:href="#am"/><use transform="matrix(0.08641975308641973,0,0,0.08641975308641973,89.7901234567901,0)" xlink:href="#aw"/><use transform="matrix(0.08641975308641973,0,0,0.08641975308641973,112.17283950617282,0)" xlink:href="#af"/><use transform="matrix(0.08641975308641973,0,0,0.08641975308641973,129.45679012345676,0)" xlink:href="#aj"/><use transform="matrix(0.08641975308641973,0,0,0.08641975308641973,139.7407407407407,0)" xlink:href="#ad"/><use transform="matrix(0.08641975308641973,0,0,0.08641975308641973,148.38271604938268,0)" xlink:href="#ai"/><use transform="matrix(0.08641975308641973,0,0,0.08641975308641973,167.3086419753086,0)" xlink:href="#ag"/><use transform="matrix(0.08641975308641973,0,0,0.08641975308641973,186.23456790123453,0)" xlink:href="#ax"/></g><path fill="#282c33" d="M24 0v-248h52V0H24" id="ay"/><path fill="#282c33" d="M175 0L67-191c6 58 2 128 3 191H24v-248h59L193-55c-6-58-2-129-3-193h46V0h-61" id="az"/><path fill="#282c33" d="M136-208V0H84v-208H4v-40h212v40h-80" id="aA"/><path fill="#282c33" d="M24 0v-248h195v40H76v63h132v40H76v65h150V0H24" id="aB"/><path fill="#282c33" d="M240-174c0 40-23 61-54 70L253 0h-59l-57-94H76V0H24v-248c93 4 217-23 216 74zM76-134c48-2 112 12 112-38 0-48-66-32-112-35v73" id="aC"/><path fill="#282c33" d="M199 0l-22-63H83L61 0H9l90-248h61L250 0h-51zm-33-102l-36-108c-10 38-24 72-36 108h72" id="aD"/><path fill="#282c33" d="M67-125c0 53 21 87 73 88 37 1 54-22 65-47l45 17C233-25 199 4 140 4 58 4 20-42 15-125 8-235 124-281 211-232c18 10 29 29 36 50l-46 12c-8-25-30-41-62-41-52 0-71 34-72 86" id="aE"/><path fill="#282c33" d="M140-251c80 0 125 45 125 126S219 4 139 4C58 4 15-44 15-125s44-126 125-126zm-1 214c52 0 73-35 73-88 0-50-21-86-72-86-52 0-73 35-73 86s22 88 72 88" id="aF"/><path fill="#282c33" d="M169-182c-1-43-94-46-97-3 18 66 151 10 154 114 3 95-165 93-204 36-6-8-10-19-12-30l50-8c3 46 112 56 116 5-17-69-150-10-154-114-4-87 153-88 188-35 5 8 8 18 10 28" id="aG"/><g id="f"><use transform="matrix(0.12222222222222212,0,0,0.12222222222222212,0,0)" xlink:href="#ay"/><use transform="matrix(0.12222222222222212,0,0,0.12222222222222212,12.222222222222213,0)" xlink:href="#az"/><use transform="matrix(0.12222222222222212,0,0,0.12222222222222212,43.877777777777744,0)" xlink:href="#aA"/><use transform="matrix(0.12222222222222212,0,0,0.12222222222222212,70.64444444444439,0)" xlink:href="#aB"/><use transform="matrix(0.12222222222222212,0,0,0.12222222222222212,99.9777777777777,0)" xlink:href="#aC"/><use transform="matrix(0.12222222222222212,0,0,0.12222222222222212,131.63333333333324,0)" xlink:href="#aD"/><use transform="matrix(0.12222222222222212,0,0,0.12222222222222212,163.28888888888878,0)" xlink:href="#aE"/><use transform="matrix(0.12222222222222212,0,0,0.12222222222222212,194.94444444444431,0)" xlink:href="#aA"/><use transform="matrix(0.12222222222222212,0,0,0.12222222222222212,221.71111111111097,0)" xlink:href="#ay"/><use transform="matrix(0.12222222222222212,0,0,0.12222222222222212,233.93333333333317,0)" xlink:href="#aF"/><use transform="matrix(0.12222222222222212,0,0,0.12222222222222212,268.15555555555534,0)" xlink:href="#az"/><use transform="matrix(0.12222222222222212,0,0,0.12222222222222212,299.81111111111085,0)" xlink:href="#aG"/></g><path fill="#282c33" d="M24-248c120-7 223 5 221 122C244-46 201 0 124 0H24v-248zM76-40c74 7 117-18 117-86 0-67-45-88-117-82v168" id="aH"/><path fill="#282c33" d="M67-125c0 54 23 88 75 88 28 0 53-7 68-21v-34h-60v-39h108v91C232-14 192 4 140 4 58 4 20-42 15-125 8-236 126-280 215-234c19 10 29 26 37 47l-47 15c-11-23-29-39-63-39-53 1-75 33-75 86" id="aI"/><path fill="#282c33" d="M230 0l2-204L168 0h-37L68-204 70 0H24v-248h70l56 185 57-185h69V0h-46" id="aJ"/><g id="g"><use transform="matrix(0.12222222222222212,0,0,0.12222222222222212,0,0)" xlink:href="#aH"/><use transform="matrix(0.12222222222222212,0,0,0.12222222222222212,31.65555555555553,0)" xlink:href="#ay"/><use transform="matrix(0.12222222222222212,0,0,0.12222222222222212,43.877777777777744,0)" xlink:href="#aD"/><use transform="matrix(0.12222222222222212,0,0,0.12222222222222212,75.53333333333327,0)" xlink:href="#aI"/><use transform="matrix(0.12222222222222212,0,0,0.12222222222222212,109.75555555555547,0)" xlink:href="#aC"/><use transform="matrix(0.12222222222222212,0,0,0.12222222222222212,141.411111111111,0)" xlink:href="#aD"/><use transform="matrix(0.12222222222222212,0,0,0.12222222222222212,173.06666666666655,0)" xlink:href="#aJ"/></g><path fill="#282c33" d="M14-72v-43h91v43H14" id="aK"/><use transform="matrix(0.12222222222222212,0,0,0.12222222222222212,0,0)" xlink:href="#aK" id="h"/><path fill="#282c33" d="M135-150c-39-12-60 13-60 57V0H25l-1-190h47c2 13-1 29 3 40 6-28 27-53 61-41v41" id="aL"/><path fill="#282c33" d="M185-48c-13 30-37 53-82 52C43 2 14-33 14-96s30-98 90-98c62 0 83 45 84 108H66c0 31 8 55 39 56 18 0 30-7 34-22zm-45-69c5-46-57-63-70-21-2 6-4 13-4 21h74" id="aM"/><path fill="#282c33" d="M137-138c1-29-70-34-71-4 15 46 118 7 119 86 1 83-164 76-172 9l43-7c4 19 20 25 44 25 33 8 57-30 24-41C81-84 22-81 20-136c-2-80 154-74 161-7" id="aN"/><path fill="#282c33" d="M133-34C117-15 103 5 69 4 32 3 11-16 11-54c-1-60 55-63 116-61 1-26-3-47-28-47-18 1-26 9-28 27l-52-2c7-38 36-58 82-57s74 22 75 68l1 82c-1 14 12 18 25 15v27c-30 8-71 5-69-32zm-48 3c29 0 43-24 42-57-32 0-66-3-65 30 0 17 8 27 23 27" id="aO"/><path fill="#282c33" d="M190-63c-7 42-38 67-86 67-59 0-84-38-90-98-12-110 154-137 174-36l-49 2c-2-19-15-32-35-32-30 0-35 28-38 64-6 74 65 87 74 30" id="aP"/><path fill="#282c33" d="M114-157C55-157 80-60 75 0H25v-261h50l-1 109c12-26 28-41 61-42 86-1 58 113 63 194h-50c-7-57 23-157-34-157" id="aQ"/><g id="i"><use transform="matrix(0.12222222222222212,0,0,0.12222222222222212,0,0)" xlink:href="#aL"/><use transform="matrix(0.12222222222222212,0,0,0.12222222222222212,17.111111111111097,0)" xlink:href="#aM"/><use transform="matrix(0.12222222222222212,0,0,0.12222222222222212,41.55555555555552,0)" xlink:href="#aN"/><use transform="matrix(0.12222222222222212,0,0,0.12222222222222212,65.99999999999994,0)" xlink:href="#aM"/><use transform="matrix(0.12222222222222212,0,0,0.12222222222222212,90.44444444444437,0)" xlink:href="#aO"/><use transform="matrix(0.12222222222222212,0,0,0.12222222222222212,114.8888888888888,0)" xlink:href="#aL"/><use transform="matrix(0.12222222222222212,0,0,0.12222222222222212,131.9999999999999,0)" xlink:href="#aP"/><use transform="matrix(0.12222222222222212,0,0,0.12222222222222212,156.44444444444431,0)" xlink:href="#aQ"/></g><g id="j"><use transform="matrix(0.12222222222222212,0,0,0.12222222222222212,0,0)" xlink:href="#aP"/><use transform="matrix(0.12222222222222212,0,0,0.12222222222222212,24.444444444444425,0)" xlink:href="#aO"/><use transform="matrix(0.12222222222222212,0,0,0.12222222222222212,48.88888888888885,0)" xlink:href="#aN"/><use transform="matrix(0.12222222222222212,0,0,0.12222222222222212,73.33333333333327,0)" xlink:href="#aM"/></g><path fill="#3a414a" d="M136-208V0H84v-208H4v-40h212v40h-80" id="aR"/><path fill="#3a414a" d="M123 10C108 53 80 86 19 72V37c35 8 53-11 59-39L3-190h52l48 148c12-52 28-100 44-148h51" id="aS"/><path fill="#3a414a" d="M121-226c-27-7-43 5-38 36h38v33H83V0H34v-157H6v-33h28c-9-59 32-81 87-68v32" id="aT"/><path fill="#3a414a" d="M169-182c-1-43-94-46-97-3 18 66 151 10 154 114 3 95-165 93-204 36-6-8-10-19-12-30l50-8c3 46 112 56 116 5-17-69-150-10-154-114-4-87 153-88 188-35 5 8 8 18 10 28" id="aU"/><path fill="#3a414a" d="M128 0H69L1-190h53L99-40l48-150h52" id="aV"/><path fill="#3a414a" d="M190-63c-7 42-38 67-86 67-59 0-84-38-90-98-12-110 154-137 174-36l-49 2c-2-19-15-32-35-32-30 0-35 28-38 64-6 74 65 87 74 30" id="aW"/><g id="k"><use transform="matrix(0.08641975308641973,0,0,0.08641975308641973,0,0)" xlink:href="#aR"/><use transform="matrix(0.08641975308641973,0,0,0.08641975308641973,16.592592592592588,0)" xlink:href="#aS"/><use transform="matrix(0.08641975308641973,0,0,0.08641975308641973,33.87654320987653,0)" xlink:href="#ac"/><use transform="matrix(0.08641975308641973,0,0,0.08641975308641973,52.80246913580246,0)" xlink:href="#am"/><use transform="matrix(0.08641975308641973,0,0,0.08641975308641973,70.0864197530864,0)" xlink:href="#ai"/><use transform="matrix(0.08641975308641973,0,0,0.08641975308641973,89.01234567901233,0)" xlink:href="#aT"/><use transform="matrix(0.08641975308641973,0,0,0.08641975308641973,99.29629629629628,0)" xlink:href="#aU"/><use transform="matrix(0.08641975308641973,0,0,0.08641975308641973,120.03703703703701,0)" xlink:href="#am"/><use transform="matrix(0.08641975308641973,0,0,0.08641975308641973,137.32098765432096,0)" xlink:href="#ak"/><use transform="matrix(0.08641975308641973,0,0,0.08641975308641973,149.41975308641972,0)" xlink:href="#aV"/><use transform="matrix(0.08641975308641973,0,0,0.08641975308641973,166.70370370370367,0)" xlink:href="#ad"/><use transform="matrix(0.08641975308641973,0,0,0.08641975308641973,175.34567901234564,0)" xlink:href="#aW"/><use transform="matrix(0.08641975308641973,0,0,0.08641975308641973,192.6296296296296,0)" xlink:href="#am"/></g><path fill="#333" d="M135-194c87-1 58 113 63 194h-50c-7-57 23-157-34-157-59 0-34 97-39 157H25l-1-190h47c2 12-1 28 3 38 12-26 28-41 61-42" id="aX"/><path fill="#333" d="M12 0v-35l95-120H19v-35h142v35L67-36h103V0H12" id="aY"/><g id="l"><use transform="matrix(0.06172839506172839,0,0,0.06172839506172839,0,0)" xlink:href="#ap"/><use transform="matrix(0.06172839506172839,0,0,0.06172839506172839,6.172839506172839,0)" xlink:href="#aX"/><use transform="matrix(0.06172839506172839,0,0,0.06172839506172839,19.691358024691358,0)" xlink:href="#ap"/><use transform="matrix(0.06172839506172839,0,0,0.06172839506172839,25.864197530864196,0)" xlink:href="#aY"/><use transform="matrix(0.06172839506172839,0,0,0.06172839506172839,36.9753086419753,0)" xlink:href="#ap"/><use transform="matrix(0.06172839506172839,0,0,0.06172839506172839,43.148148148148145,0)" xlink:href="#an"/><use transform="matrix(0.06172839506172839,0,0,0.06172839506172839,55.49382716049382,0)" xlink:href="#aq"/><use transform="matrix(0.06172839506172839,0,0,0.06172839506172839,61.666666666666664,0)" xlink:href="#ap"/><use transform="matrix(0.06172839506172839,0,0,0.06172839506172839,67.8395061728395,0)" xlink:href="#aY"/><use transform="matrix(0.06172839506172839,0,0,0.06172839506172839,78.95061728395062,0)" xlink:href="#aY"/><use transform="matrix(0.06172839506172839,0,0,0.06172839506172839,90.06172839506173,0)" xlink:href="#an"/></g><g id="m"><use transform="matrix(0.061728395061728385,0,0,0.061728395061728385,0,0)" xlink:href="#ap"/><use transform="matrix(0.061728395061728385,0,0,0.061728395061728385,6.1728395061728385,0)" xlink:href="#aX"/><use transform="matrix(0.061728395061728385,0,0,0.061728395061728385,19.691358024691354,0)" xlink:href="#ap"/><use transform="matrix(0.061728395061728385,0,0,0.061728395061728385,25.864197530864192,0)" xlink:href="#aY"/><use transform="matrix(0.061728395061728385,0,0,0.061728395061728385,36.9753086419753,0)" xlink:href="#ap"/><use transform="matrix(0.061728395061728385,0,0,0.061728395061728385,43.14814814814814,0)" xlink:href="#an"/><use transform="matrix(0.061728395061728385,0,0,0.061728395061728385,55.493827160493815,0)" xlink:href="#aq"/><use transform="matrix(0.061728395061728385,0,0,0.061728395061728385,61.66666666666666,0)" xlink:href="#ap"/><use transform="matrix(0.061728395061728385,0,0,0.061728395061728385,67.83950617283949,0)" xlink:href="#aY"/><use transform="matrix(0.061728395061728385,0,0,0.061728395061728385,78.9506172839506,0)" xlink:href="#aY"/><use transform="matrix(0.061728395061728385,0,0,0.061728395061728385,90.06172839506172,0)" xlink:href="#an"/></g><g id="n"><use transform="matrix(0.08641975308641973,0,0,0.08641975308641973,0,0)" xlink:href="#aw"/><use transform="matrix(0.08641975308641973,0,0,0.08641975308641973,22.38271604938271,0)" xlink:href="#af"/><use transform="matrix(0.08641975308641973,0,0,0.08641975308641973,39.66666666666666,0)" xlink:href="#aj"/><use transform="matrix(0.08641975308641973,0,0,0.08641975308641973,49.950617283950606,0)" xlink:href="#ad"/><use transform="matrix(0.08641975308641973,0,0,0.08641975308641973,58.59259259259258,0)" xlink:href="#ai"/><use transform="matrix(0.08641975308641973,0,0,0.08641975308641973,77.5185185185185,0)" xlink:href="#ag"/><use transform="matrix(0.08641975308641973,0,0,0.08641975308641973,96.44444444444443,0)" xlink:href="#ax"/></g><path fill="#3a414a" d="M238-95c0 69-44 99-111 99C63 4 22-25 22-93v-155h51v151c-1 38 19 59 55 60 90 1 49-130 58-211h52v153" id="aZ"/><path fill="#3a414a" d="M24 0v-248h195v40H76v63h132v40H76v65h150V0H24" id="ba"/><g id="o"><use transform="matrix(0.08641975308641973,0,0,0.08641975308641973,0,0)" xlink:href="#aZ"/><use transform="matrix(0.08641975308641973,0,0,0.08641975308641973,22.38271604938271,0)" xlink:href="#aR"/><use transform="matrix(0.08641975308641973,0,0,0.08641975308641973,41.30864197530863,0)" xlink:href="#ba"/><use transform="matrix(0.08641975308641973,0,0,0.08641975308641973,62.04938271604937,0)" xlink:href="#aw"/><use transform="matrix(0.08641975308641973,0,0,0.08641975308641973,84.43209876543207,0)" xlink:href="#aR"/><use transform="matrix(0.08641975308641973,0,0,0.08641975308641973,103.358024691358,0)" xlink:href="#ba"/></g><path fill="#333" d="M135-150c-39-12-60 13-60 57V0H25l-1-190h47c2 13-1 29 3 40 6-28 27-53 61-41v41" id="bb"/><path fill="#333" d="M190-63c-7 42-38 67-86 67-59 0-84-38-90-98-12-110 154-137 174-36l-49 2c-2-19-15-32-35-32-30 0-35 28-38 64-6 74 65 87 74 30" id="bc"/><path fill="#333" d="M185-48c-13 30-37 53-82 52C43 2 14-33 14-96s30-98 90-98c62 0 83 45 84 108H66c0 31 8 55 39 56 18 0 30-7 34-22zm-45-69c5-46-57-63-70-21-2 6-4 13-4 21h74" id="bd"/><g id="p"><use transform="matrix(0.06172839506172839,0,0,0.06172839506172839,0,0)" xlink:href="#bb"/><use transform="matrix(0.06172839506172839,0,0,0.06172839506172839,8.641975308641975,0)" xlink:href="#ap"/><use transform="matrix(0.06172839506172839,0,0,0.06172839506172839,14.814814814814813,0)" xlink:href="#bc"/><use transform="matrix(0.06172839506172839,0,0,0.06172839506172839,27.160493827160494,0)" xlink:href="#bd"/><use transform="matrix(0.06172839506172839,0,0,0.06172839506172839,39.50617283950617,0)" xlink:href="#bb"/><use transform="matrix(0.06172839506172839,0,0,0.06172839506172839,48.148148148148145,0)" xlink:href="#bc"/><use transform="matrix(0.06172839506172839,0,0,0.06172839506172839,60.49382716049382,0)" xlink:href="#an"/></g><path fill="#333" d="M137-138c1-29-70-34-71-4 15 46 118 7 119 86 1 83-164 76-172 9l43-7c4 19 20 25 44 25 33 8 57-30 24-41C81-84 22-81 20-136c-2-80 154-74 161-7" id="be"/><g id="q"><use transform="matrix(0.06172839506172839,0,0,0.06172839506172839,0,0)" xlink:href="#as"/><use transform="matrix(0.06172839506172839,0,0,0.06172839506172839,13.518518518518517,0)" xlink:href="#an"/><use transform="matrix(0.06172839506172839,0,0,0.06172839506172839,25.864197530864196,0)" xlink:href="#be"/><use transform="matrix(0.06172839506172839,0,0,0.06172839506172839,38.20987654320987,0)" xlink:href="#be"/><use transform="matrix(0.06172839506172839,0,0,0.06172839506172839,50.55555555555555,0)" xlink:href="#an"/></g><g id="r"><use transform="matrix(0.06172839506172839,0,0,0.06172839506172839,0,0)" xlink:href="#aq"/><use transform="matrix(0.06172839506172839,0,0,0.06172839506172839,6.172839506172839,0)" xlink:href="#an"/></g><path fill="#333" d="M195-6C206 82 75 100 31 46c-4-6-6-13-8-21l49-6c3 16 16 24 34 25 40 0 42-37 40-79-11 22-30 35-61 35-53 0-70-43-70-97 0-56 18-96 73-97 30 0 46 14 59 34l2-30h47zm-90-29c32 0 41-27 41-63 0-35-9-62-40-62-32 0-39 29-40 63 0 36 9 62 39 62" id="bf"/><path fill="#333" d="M121-226c-27-7-43 5-38 36h38v33H83V0H34v-157H6v-33h28c-9-59 32-81 87-68v32" id="bg"/><g id="s"><use transform="matrix(0.06172839506172839,0,0,0.06172839506172839,0,0)" xlink:href="#bf"/><use transform="matrix(0.06172839506172839,0,0,0.06172839506172839,13.518518518518517,0)" xlink:href="#bb"/><use transform="matrix(0.06172839506172839,0,0,0.06172839506172839,22.160493827160494,0)" xlink:href="#an"/><use transform="matrix(0.06172839506172839,0,0,0.06172839506172839,34.50617283950617,0)" xlink:href="#bg"/><use transform="matrix(0.06172839506172839,0,0,0.06172839506172839,41.85185185185185,0)" xlink:href="#ap"/><use transform="matrix(0.06172839506172839,0,0,0.06172839506172839,48.02469135802469,0)" xlink:href="#bc"/><use transform="matrix(0.06172839506172839,0,0,0.06172839506172839,60.37037037037037,0)" xlink:href="#an"/></g><g id="t"><use transform="matrix(0.06172839506172839,0,0,0.06172839506172839,0,0)" xlink:href="#as"/><use transform="matrix(0.06172839506172839,0,0,0.06172839506172839,13.518518518518517,0)" xlink:href="#bd"/><use transform="matrix(0.06172839506172839,0,0,0.06172839506172839,25.864197530864196,0)" xlink:href="#bb"/></g><g id="u"><use transform="matrix(0.06172839506172839,0,0,0.06172839506172839,0,0)" xlink:href="#aq"/><use transform="matrix(0.06172839506172839,0,0,0.06172839506172839,6.172839506172839,0)" xlink:href="#bd"/></g><path fill="#333" d="M110-194c64 0 96 36 96 99 0 64-35 99-97 99-61 0-95-36-95-99 0-62 34-99 96-99zm-1 164c35 0 45-28 45-65 0-40-10-65-43-65-34 0-45 26-45 65 0 36 10 65 43 65" id="bh"/><g id="v"><use transform="matrix(0.06172839506172839,0,0,0.06172839506172839,0,0)" xlink:href="#aX"/><use transform="matrix(0.06172839506172839,0,0,0.06172839506172839,13.518518518518517,0)" xlink:href="#an"/><use transform="matrix(0.06172839506172839,0,0,0.06172839506172839,25.864197530864196,0)" xlink:href="#aY"/><use transform="matrix(0.06172839506172839,0,0,0.06172839506172839,36.9753086419753,0)" xlink:href="#ap"/><use transform="matrix(0.06172839506172839,0,0,0.06172839506172839,43.148148148148145,0)" xlink:href="#bh"/><use transform="matrix(0.06172839506172839,0,0,0.06172839506172839,56.666666666666664,0)" xlink:href="#aX"/><use transform="matrix(0.06172839506172839,0,0,0.06172839506172839,70.18518518518518,0)" xlink:href="#ap"/></g><path fill="#333" d="M115-3C79 11 28 4 28-45v-112H4v-33h27l15-45h31v45h36v33H77v99c-1 23 16 31 38 25v30" id="bi"/><g id="w"><use transform="matrix(0.06172839506172839,0,0,0.06172839506172839,0,0)" xlink:href="#as"/><use transform="matrix(0.06172839506172839,0,0,0.06172839506172839,13.518518518518517,0)" xlink:href="#bb"/><use transform="matrix(0.06172839506172839,0,0,0.06172839506172839,22.160493827160494,0)" xlink:href="#bd"/><use transform="matrix(0.06172839506172839,0,0,0.06172839506172839,34.50617283950617,0)" xlink:href="#be"/><use transform="matrix(0.06172839506172839,0,0,0.06172839506172839,46.85185185185185,0)" xlink:href="#bd"/><use transform="matrix(0.06172839506172839,0,0,0.06172839506172839,59.197530864197525,0)" xlink:href="#aX"/><use transform="matrix(0.06172839506172839,0,0,0.06172839506172839,72.71604938271604,0)" xlink:href="#bi"/><use transform="matrix(0.06172839506172839,0,0,0.06172839506172839,80.06172839506172,0)" xlink:href="#an"/></g><g id="x"><use transform="matrix(0.06172839506172839,0,0,0.06172839506172839,0,0)" xlink:href="#aq"/><use transform="matrix(0.06172839506172839,0,0,0.06172839506172839,6.172839506172839,0)" xlink:href="#ap"/><use transform="matrix(0.06172839506172839,0,0,0.06172839506172839,12.345679012345679,0)" xlink:href="#be"/><use transform="matrix(0.06172839506172839,0,0,0.06172839506172839,24.691358024691358,0)" xlink:href="#bi"/><use transform="matrix(0.06172839506172839,0,0,0.06172839506172839,32.03703703703704,0)" xlink:href="#an"/></g><path fill="#333" d="M88-194c31-1 46 15 58 34l-1-101h50l1 261h-48c-2-10 0-23-3-31C134-8 116 4 84 4 32 4 16-41 15-95c0-56 19-97 73-99zm17 164c33 0 40-30 41-66 1-37-9-64-41-64s-38 30-39 65c0 43 13 65 39 65" id="bj"/><g id="y"><use transform="matrix(0.06172839506172839,0,0,0.06172839506172839,0,0)" xlink:href="#bj"/><use transform="matrix(0.06172839506172839,0,0,0.06172839506172839,13.518518518518517,0)" xlink:href="#bd"/><use transform="matrix(0.06172839506172839,0,0,0.06172839506172839,25.864197530864196,0)" xlink:href="#aq"/><use transform="matrix(0.06172839506172839,0,0,0.06172839506172839,32.03703703703704,0)" xlink:href="#aq"/><use transform="matrix(0.06172839506172839,0,0,0.06172839506172839,38.20987654320988,0)" xlink:href="#bd"/></g><g id="z"><use transform="matrix(0.06172839506172839,0,0,0.06172839506172839,0,0)" xlink:href="#be"/><use transform="matrix(0.06172839506172839,0,0,0.06172839506172839,12.345679012345679,0)" xlink:href="#bd"/><use transform="matrix(0.06172839506172839,0,0,0.06172839506172839,24.691358024691358,0)" xlink:href="#aq"/><use transform="matrix(0.06172839506172839,0,0,0.06172839506172839,30.864197530864196,0)" xlink:href="#bd"/><use transform="matrix(0.06172839506172839,0,0,0.06172839506172839,43.20987654320987,0)" xlink:href="#aY"/><use transform="matrix(0.06172839506172839,0,0,0.06172839506172839,54.32098765432099,0)" xlink:href="#ap"/><use transform="matrix(0.06172839506172839,0,0,0.06172839506172839,60.49382716049383,0)" xlink:href="#bh"/><use transform="matrix(0.06172839506172839,0,0,0.06172839506172839,74.01234567901234,0)" xlink:href="#aX"/><use transform="matrix(0.06172839506172839,0,0,0.06172839506172839,87.53086419753086,0)" xlink:href="#an"/></g><g id="A"><use transform="matrix(0.06172839506172839,0,0,0.06172839506172839,0,0)" xlink:href="#be"/><use transform="matrix(0.06172839506172839,0,0,0.06172839506172839,12.345679012345679,0)" xlink:href="#bi"/><use transform="matrix(0.06172839506172839,0,0,0.06172839506172839,19.691358024691358,0)" xlink:href="#an"/><use transform="matrix(0.06172839506172839,0,0,0.06172839506172839,32.03703703703704,0)" xlink:href="#bi"/><use transform="matrix(0.06172839506172839,0,0,0.06172839506172839,39.382716049382715,0)" xlink:href="#ap"/></g><path fill="#3a414a" d="M240-174c0 40-23 61-54 70L253 0h-59l-57-94H76V0H24v-248c93 4 217-23 216 74zM76-134c48-2 112 12 112-38 0-48-66-32-112-35v73" id="bk"/><path fill="#3a414a" d="M114-157C55-157 80-60 75 0H25v-261h50l-1 109c12-26 28-41 61-42 86-1 58 113 63 194h-50c-7-57 23-157-34-157" id="bl"/><path fill="#3a414a" d="M88-194c31-1 46 15 58 34l-1-101h50l1 261h-48c-2-10 0-23-3-31C134-8 116 4 84 4 32 4 16-41 15-95c0-56 19-97 73-99zm17 164c33 0 40-30 41-66 1-37-9-64-41-64s-38 30-39 65c0 43 13 65 39 65" id="bm"/><g id="B"><use transform="matrix(0.08641975308641973,0,0,0.08641975308641973,0,0)" xlink:href="#bk"/><use transform="matrix(0.08641975308641973,0,0,0.08641975308641973,22.38271604938271,0)" xlink:href="#am"/><use transform="matrix(0.08641975308641973,0,0,0.08641975308641973,39.66666666666666,0)" xlink:href="#ax"/><use transform="matrix(0.08641975308641973,0,0,0.08641975308641973,56.950617283950606,0)" xlink:href="#am"/><use transform="matrix(0.08641975308641973,0,0,0.08641975308641973,74.23456790123456,0)" xlink:href="#af"/><use transform="matrix(0.08641975308641973,0,0,0.08641975308641973,91.5185185185185,0)" xlink:href="#ak"/><use transform="matrix(0.08641975308641973,0,0,0.08641975308641973,103.61728395061726,0)" xlink:href="#aW"/><use transform="matrix(0.08641975308641973,0,0,0.08641975308641973,120.90123456790121,0)" xlink:href="#bl"/><use transform="matrix(0.08641975308641973,0,0,0.08641975308641973,139.82716049382714,0)" xlink:href="#ae"/><use transform="matrix(0.08641975308641973,0,0,0.08641975308641973,165.66666666666663,0)" xlink:href="#am"/><use transform="matrix(0.08641975308641973,0,0,0.08641975308641973,182.95061728395058,0)" xlink:href="#aj"/><use transform="matrix(0.08641975308641973,0,0,0.08641975308641973,193.23456790123453,0)" xlink:href="#bl"/><use transform="matrix(0.08641975308641973,0,0,0.08641975308641973,212.16049382716045,0)" xlink:href="#ai"/><use transform="matrix(0.08641975308641973,0,0,0.08641975308641973,231.08641975308637,0)" xlink:href="#bm"/><use transform="matrix(0.08641975308641973,0,0,0.08641975308641973,250.0123456790123,0)" xlink:href="#ax"/></g><path fill="#333" d="M85 4C-2 5 27-109 22-190h50c7 57-23 150 33 157 60-5 35-97 40-157h50l1 190h-47c-2-12 1-28-3-38-12 25-28 42-61 42" id="bn"/><g id="C"><use transform="matrix(0.06172839506172839,0,0,0.06172839506172839,0,0)" xlink:href="#bb"/><use transform="matrix(0.06172839506172839,0,0,0.06172839506172839,8.641975308641975,0)" xlink:href="#bd"/><use transform="matrix(0.06172839506172839,0,0,0.06172839506172839,20.98765432098765,0)" xlink:href="#be"/><use transform="matrix(0.06172839506172839,0,0,0.06172839506172839,33.33333333333333,0)" xlink:href="#bi"/><use transform="matrix(0.06172839506172839,0,0,0.06172839506172839,40.679012345679006,0)" xlink:href="#ap"/><use transform="matrix(0.06172839506172839,0,0,0.06172839506172839,46.85185185185185,0)" xlink:href="#bi"/><use transform="matrix(0.06172839506172839,0,0,0.06172839506172839,54.197530864197525,0)" xlink:href="#bn"/><use transform="matrix(0.06172839506172839,0,0,0.06172839506172839,67.71604938271604,0)" xlink:href="#ap"/><use transform="matrix(0.06172839506172839,0,0,0.06172839506172839,73.88888888888887,0)" xlink:href="#be"/><use transform="matrix(0.06172839506172839,0,0,0.06172839506172839,86.23456790123456,0)" xlink:href="#bc"/><use transform="matrix(0.06172839506172839,0,0,0.06172839506172839,98.58024691358024,0)" xlink:href="#bd"/></g><g id="D"><use transform="matrix(0.06172839506172839,0,0,0.06172839506172839,0,0)" xlink:href="#bg"/><use transform="matrix(0.06172839506172839,0,0,0.06172839506172839,7.345679012345679,0)" xlink:href="#ap"/><use transform="matrix(0.06172839506172839,0,0,0.06172839506172839,13.518518518518519,0)" xlink:href="#aq"/><use transform="matrix(0.06172839506172839,0,0,0.06172839506172839,19.691358024691358,0)" xlink:href="#bi"/><use transform="matrix(0.06172839506172839,0,0,0.06172839506172839,27.037037037037038,0)" xlink:href="#bb"/><use transform="matrix(0.06172839506172839,0,0,0.06172839506172839,35.67901234567901,0)" xlink:href="#an"/><use transform="matrix(0.06172839506172839,0,0,0.06172839506172839,48.02469135802469,0)" xlink:href="#bi"/><use transform="matrix(0.06172839506172839,0,0,0.06172839506172839,55.37037037037037,0)" xlink:href="#an"/></g><g id="E"><use transform="matrix(0.06172839506172839,0,0,0.06172839506172839,0,0)" xlink:href="#bj"/><use transform="matrix(0.06172839506172839,0,0,0.06172839506172839,13.518518518518517,0)" xlink:href="#bd"/><use transform="matrix(0.06172839506172839,0,0,0.06172839506172839,25.864197530864196,0)" xlink:href="#ap"/></g><g id="F"><use transform="matrix(0.06172839506172839,0,0,0.06172839506172839,0,0)" xlink:href="#be"/><use transform="matrix(0.06172839506172839,0,0,0.06172839506172839,12.345679012345679,0)" xlink:href="#bd"/><use transform="matrix(0.06172839506172839,0,0,0.06172839506172839,24.691358024691358,0)" xlink:href="#bb"/><use transform="matrix(0.06172839506172839,0,0,0.06172839506172839,33.33333333333333,0)" xlink:href="#ao"/><use transform="matrix(0.06172839506172839,0,0,0.06172839506172839,45.679012345679006,0)" xlink:href="#ap"/><use transform="matrix(0.06172839506172839,0,0,0.06172839506172839,51.85185185185185,0)" xlink:href="#aY"/><use transform="matrix(0.06172839506172839,0,0,0.06172839506172839,62.96296296296296,0)" xlink:href="#ap"/></g><g id="G"><use transform="matrix(0.06172839506172839,0,0,0.06172839506172839,0,0)" xlink:href="#as"/><use transform="matrix(0.06172839506172839,0,0,0.06172839506172839,13.518518518518517,0)" xlink:href="#bb"/><use transform="matrix(0.06172839506172839,0,0,0.06172839506172839,22.160493827160494,0)" xlink:href="#bh"/><use transform="matrix(0.06172839506172839,0,0,0.06172839506172839,35.67901234567901,0)" xlink:href="#ao"/><use transform="matrix(0.06172839506172839,0,0,0.06172839506172839,48.02469135802469,0)" xlink:href="#ap"/><use transform="matrix(0.06172839506172839,0,0,0.06172839506172839,54.19753086419753,0)" xlink:href="#bj"/><use transform="matrix(0.06172839506172839,0,0,0.06172839506172839,67.71604938271605,0)" xlink:href="#bd"/><use transform="matrix(0.06172839506172839,0,0,0.06172839506172839,80.06172839506173,0)" xlink:href="#bb"/><use transform="matrix(0.06172839506172839,0,0,0.06172839506172839,88.70370370370371,0)" xlink:href="#be"/></g><g id="H"><use transform="matrix(0.061728395061728385,0,0,0.061728395061728385,0,0)" xlink:href="#be"/><use transform="matrix(0.061728395061728385,0,0,0.061728395061728385,12.345679012345677,0)" xlink:href="#bd"/><use transform="matrix(0.061728395061728385,0,0,0.061728395061728385,24.691358024691354,0)" xlink:href="#aq"/><use transform="matrix(0.061728395061728385,0,0,0.061728395061728385,30.864197530864192,0)" xlink:href="#bd"/><use transform="matrix(0.061728395061728385,0,0,0.061728395061728385,43.20987654320987,0)" xlink:href="#aY"/><use transform="matrix(0.061728395061728385,0,0,0.061728395061728385,54.32098765432098,0)" xlink:href="#ap"/><use transform="matrix(0.061728395061728385,0,0,0.061728395061728385,60.49382716049382,0)" xlink:href="#bh"/><use transform="matrix(0.061728395061728385,0,0,0.061728395061728385,74.01234567901234,0)" xlink:href="#aX"/><use transform="matrix(0.061728395061728385,0,0,0.061728395061728385,87.53086419753086,0)" xlink:href="#an"/></g><use transform="matrix(0.061728395061728385,0,0,0.061728395061728385,0,0)" xlink:href="#ap" id="I"/><g id="J"><use transform="matrix(0.061728395061728385,0,0,0.061728395061728385,0,0)" xlink:href="#as"/><use transform="matrix(0.061728395061728385,0,0,0.061728395061728385,13.518518518518515,0)" xlink:href="#bb"/><use transform="matrix(0.061728395061728385,0,0,0.061728395061728385,22.16049382716049,0)" xlink:href="#bh"/><use transform="matrix(0.061728395061728385,0,0,0.061728395061728385,35.679012345679006,0)" xlink:href="#ao"/><use transform="matrix(0.061728395061728385,0,0,0.061728395061728385,48.02469135802468,0)" xlink:href="#ap"/><use transform="matrix(0.061728395061728385,0,0,0.061728395061728385,54.19753086419752,0)" xlink:href="#bj"/><use transform="matrix(0.061728395061728385,0,0,0.061728395061728385,67.71604938271604,0)" xlink:href="#bd"/><use transform="matrix(0.061728395061728385,0,0,0.061728395061728385,80.06172839506172,0)" xlink:href="#bb"/><use transform="matrix(0.061728395061728385,0,0,0.061728395061728385,88.7037037037037,0)" xlink:href="#be"/></g><path fill="#333" d="M114-157C55-157 80-60 75 0H25v-261h50l-1 109c12-26 28-41 61-42 86-1 58 113 63 194h-50c-7-57 23-157-34-157" id="bo"/><g id="K"><use transform="matrix(0.06172839506172839,0,0,0.06172839506172839,0,0)" xlink:href="#bb"/><use transform="matrix(0.06172839506172839,0,0,0.06172839506172839,8.641975308641975,0)" xlink:href="#ap"/><use transform="matrix(0.06172839506172839,0,0,0.06172839506172839,14.814814814814813,0)" xlink:href="#bc"/><use transform="matrix(0.06172839506172839,0,0,0.06172839506172839,27.160493827160494,0)" xlink:href="#bo"/><use transform="matrix(0.06172839506172839,0,0,0.06172839506172839,40.67901234567901,0)" xlink:href="#ap"/><use transform="matrix(0.06172839506172839,0,0,0.06172839506172839,46.851851851851855,0)" xlink:href="#bd"/><use transform="matrix(0.06172839506172839,0,0,0.06172839506172839,59.19753086419753,0)" xlink:href="#bj"/><use transform="matrix(0.06172839506172839,0,0,0.06172839506172839,72.71604938271605,0)" xlink:href="#bd"/></g><g id="L"><use transform="matrix(0.06172839506172839,0,0,0.06172839506172839,0,0)" xlink:href="#bb"/><use transform="matrix(0.06172839506172839,0,0,0.06172839506172839,8.641975308641975,0)" xlink:href="#bd"/><use transform="matrix(0.06172839506172839,0,0,0.06172839506172839,20.98765432098765,0)" xlink:href="#be"/><use transform="matrix(0.06172839506172839,0,0,0.06172839506172839,33.33333333333333,0)" xlink:href="#bi"/><use transform="matrix(0.06172839506172839,0,0,0.06172839506172839,40.679012345679006,0)" xlink:href="#ap"/><use transform="matrix(0.06172839506172839,0,0,0.06172839506172839,46.85185185185185,0)" xlink:href="#bi"/><use transform="matrix(0.06172839506172839,0,0,0.06172839506172839,54.197530864197525,0)" xlink:href="#bn"/><use transform="matrix(0.06172839506172839,0,0,0.06172839506172839,67.71604938271604,0)" xlink:href="#ap"/><use transform="matrix(0.06172839506172839,0,0,0.06172839506172839,73.88888888888887,0)" xlink:href="#be"/><use transform="matrix(0.06172839506172839,0,0,0.06172839506172839,86.23456790123456,0)" xlink:href="#bc"/><use transform="matrix(0.06172839506172839,0,0,0.06172839506172839,98.58024691358024,0)" xlink:href="#bd"/></g><g id="M"><use transform="matrix(0.06172839506172839,0,0,0.06172839506172839,0,0)" xlink:href="#bi"/><use transform="matrix(0.06172839506172839,0,0,0.06172839506172839,7.345679012345679,0)" xlink:href="#ap"/><use transform="matrix(0.06172839506172839,0,0,0.06172839506172839,13.518518518518519,0)" xlink:href="#as"/><use transform="matrix(0.06172839506172839,0,0,0.06172839506172839,27.037037037037038,0)" xlink:href="#ap"/></g><g id="N"><use transform="matrix(0.06172839506172839,0,0,0.06172839506172839,0,0)" xlink:href="#bj"/><use transform="matrix(0.06172839506172839,0,0,0.06172839506172839,13.518518518518517,0)" xlink:href="#ap"/></g><g id="O"><use transform="matrix(0.06172839506172839,0,0,0.06172839506172839,0,0)" xlink:href="#be"/><use transform="matrix(0.06172839506172839,0,0,0.06172839506172839,12.345679012345679,0)" xlink:href="#bd"/><use transform="matrix(0.06172839506172839,0,0,0.06172839506172839,24.691358024691358,0)" xlink:href="#bb"/><use transform="matrix(0.06172839506172839,0,0,0.06172839506172839,33.33333333333333,0)" xlink:href="#ao"/><use transform="matrix(0.06172839506172839,0,0,0.06172839506172839,45.679012345679006,0)" xlink:href="#ap"/><use transform="matrix(0.06172839506172839,0,0,0.06172839506172839,51.85185185185185,0)" xlink:href="#aY"/><use transform="matrix(0.06172839506172839,0,0,0.06172839506172839,62.96296296296296,0)" xlink:href="#ap"/><use transform="matrix(0.06172839506172839,0,0,0.06172839506172839,69.1358024691358,0)" xlink:href="#bh"/></g><use transform="matrix(0.06172839506172839,0,0,0.06172839506172839,0,0)" xlink:href="#ap" id="P"/><g id="Q"><use transform="matrix(0.06172839506172839,0,0,0.06172839506172839,0,0)" xlink:href="#bj"/><use transform="matrix(0.06172839506172839,0,0,0.06172839506172839,13.518518518518517,0)" xlink:href="#bd"/><use transform="matrix(0.06172839506172839,0,0,0.06172839506172839,25.864197530864196,0)" xlink:href="#bf"/><use transform="matrix(0.06172839506172839,0,0,0.06172839506172839,39.382716049382715,0)" xlink:href="#aq"/><use transform="matrix(0.06172839506172839,0,0,0.06172839506172839,45.55555555555556,0)" xlink:href="#ap"/></g><g id="R"><use transform="matrix(0.06172839506172839,0,0,0.06172839506172839,0,0)" xlink:href="#be"/><use transform="matrix(0.06172839506172839,0,0,0.06172839506172839,12.345679012345679,0)" xlink:href="#bi"/><use transform="matrix(0.06172839506172839,0,0,0.06172839506172839,19.691358024691358,0)" xlink:href="#an"/><use transform="matrix(0.06172839506172839,0,0,0.06172839506172839,32.03703703703704,0)" xlink:href="#bi"/><use transform="matrix(0.06172839506172839,0,0,0.06172839506172839,39.382716049382715,0)" xlink:href="#ap"/></g><g id="S"><use transform="matrix(0.06172839506172839,0,0,0.06172839506172839,0,0)" xlink:href="#bf"/><use transform="matrix(0.06172839506172839,0,0,0.06172839506172839,13.518518518518517,0)" xlink:href="#aq"/><use transform="matrix(0.06172839506172839,0,0,0.06172839506172839,19.691358024691358,0)" xlink:href="#ap"/></g><g id="T"><use transform="matrix(0.06172839506172839,0,0,0.06172839506172839,0,0)" xlink:href="#bj"/><use transform="matrix(0.06172839506172839,0,0,0.06172839506172839,13.518518518518517,0)" xlink:href="#bd"/><use transform="matrix(0.06172839506172839,0,0,0.06172839506172839,25.864197530864196,0)" xlink:href="#aq"/></g><path fill="#3a414a" d="M85 4C-2 5 27-109 22-190h50c7 57-23 150 33 157 60-5 35-97 40-157h50l1 190h-47c-2-12 1-28-3-38-12 25-28 42-61 42" id="bp"/><g id="U"><use transform="matrix(0.08641975308641973,0,0,0.08641975308641973,0,0)" xlink:href="#bk"/><use transform="matrix(0.08641975308641973,0,0,0.08641975308641973,22.38271604938271,0)" xlink:href="#am"/><use transform="matrix(0.08641975308641973,0,0,0.08641975308641973,39.66666666666666,0)" xlink:href="#ax"/><use transform="matrix(0.08641975308641973,0,0,0.08641975308641973,56.950617283950606,0)" xlink:href="#bp"/><use transform="matrix(0.08641975308641973,0,0,0.08641975308641973,75.87654320987653,0)" xlink:href="#al"/><use transform="matrix(0.08641975308641973,0,0,0.08641975308641973,84.5185185185185,0)" xlink:href="#aj"/><use transform="matrix(0.08641975308641973,0,0,0.08641975308641973,94.80246913580245,0)" xlink:href="#ax"/></g><g id="V"><use transform="matrix(0.06172839506172839,0,0,0.06172839506172839,0,0)" xlink:href="#bg"/><use transform="matrix(0.06172839506172839,0,0,0.06172839506172839,7.345679012345679,0)" xlink:href="#bh"/><use transform="matrix(0.06172839506172839,0,0,0.06172839506172839,20.864197530864196,0)" xlink:href="#bb"/><use transform="matrix(0.06172839506172839,0,0,0.06172839506172839,29.50617283950617,0)" xlink:href="#aX"/><use transform="matrix(0.06172839506172839,0,0,0.06172839506172839,43.02469135802469,0)" xlink:href="#ap"/><use transform="matrix(0.06172839506172839,0,0,0.06172839506172839,49.19753086419753,0)" xlink:href="#be"/><use transform="matrix(0.06172839506172839,0,0,0.06172839506172839,61.54320987654321,0)" xlink:href="#bc"/><use transform="matrix(0.06172839506172839,0,0,0.06172839506172839,73.88888888888889,0)" xlink:href="#bd"/></g><use transform="matrix(0.06172839506172839,0,0,0.06172839506172839,0,0)" xlink:href="#ap" id="W"/><g id="X"><use transform="matrix(0.06172839506172839,0,0,0.06172839506172839,0,0)" xlink:href="#bb"/><use transform="matrix(0.06172839506172839,0,0,0.06172839506172839,8.641975308641975,0)" xlink:href="#ap"/><use transform="matrix(0.06172839506172839,0,0,0.06172839506172839,14.814814814814813,0)" xlink:href="#be"/><use transform="matrix(0.06172839506172839,0,0,0.06172839506172839,27.160493827160494,0)" xlink:href="#bn"/><use transform="matrix(0.06172839506172839,0,0,0.06172839506172839,40.67901234567901,0)" xlink:href="#aq"/><use transform="matrix(0.06172839506172839,0,0,0.06172839506172839,46.851851851851855,0)" xlink:href="#bi"/><use transform="matrix(0.06172839506172839,0,0,0.06172839506172839,54.19753086419753,0)" xlink:href="#an"/><use transform="matrix(0.06172839506172839,0,0,0.06172839506172839,66.54320987654322,0)" xlink:href="#bi"/><use transform="matrix(0.06172839506172839,0,0,0.06172839506172839,73.8888888888889,0)" xlink:href="#ap"/></g><g id="Y"><use transform="matrix(0.06172839506172839,0,0,0.06172839506172839,0,0)" xlink:href="#bg"/><use transform="matrix(0.06172839506172839,0,0,0.06172839506172839,7.345679012345679,0)" xlink:href="#ap"/><use transform="matrix(0.06172839506172839,0,0,0.06172839506172839,13.518518518518519,0)" xlink:href="#aX"/><use transform="matrix(0.06172839506172839,0,0,0.06172839506172839,27.037037037037038,0)" xlink:href="#an"/><use transform="matrix(0.06172839506172839,0,0,0.06172839506172839,39.382716049382715,0)" xlink:href="#aq"/><use transform="matrix(0.06172839506172839,0,0,0.06172839506172839,45.55555555555556,0)" xlink:href="#ap"/></g><g id="Z"><use transform="matrix(0.06172839506172839,0,0,0.06172839506172839,0,0)" xlink:href="#be"/><use transform="matrix(0.06172839506172839,0,0,0.06172839506172839,12.345679012345679,0)" xlink:href="#bd"/><use transform="matrix(0.06172839506172839,0,0,0.06172839506172839,24.691358024691358,0)" xlink:href="#bb"/><use transform="matrix(0.06172839506172839,0,0,0.06172839506172839,33.33333333333333,0)" xlink:href="#ao"/><use transform="matrix(0.06172839506172839,0,0,0.06172839506172839,45.679012345679006,0)" xlink:href="#ap"/><use transform="matrix(0.06172839506172839,0,0,0.06172839506172839,51.85185185185185,0)" xlink:href="#aY"/><use transform="matrix(0.06172839506172839,0,0,0.06172839506172839,62.96296296296296,0)" xlink:href="#ap"/></g><g id="aa"><use transform="matrix(0.06172839506172839,0,0,0.06172839506172839,0,0)" xlink:href="#bb"/><use transform="matrix(0.06172839506172839,0,0,0.06172839506172839,8.641975308641975,0)" xlink:href="#ap"/><use transform="matrix(0.06172839506172839,0,0,0.06172839506172839,14.814814814814813,0)" xlink:href="#bc"/><use transform="matrix(0.06172839506172839,0,0,0.06172839506172839,27.160493827160494,0)" xlink:href="#bd"/><use transform="matrix(0.06172839506172839,0,0,0.06172839506172839,39.50617283950617,0)" xlink:href="#bb"/><use transform="matrix(0.06172839506172839,0,0,0.06172839506172839,48.148148148148145,0)" xlink:href="#bc"/><use transform="matrix(0.06172839506172839,0,0,0.06172839506172839,60.49382716049382,0)" xlink:href="#an"/><use transform="matrix(0.06172839506172839,0,0,0.06172839506172839,72.8395061728395,0)" xlink:href="#bi"/><use transform="matrix(0.06172839506172839,0,0,0.06172839506172839,80.18518518518519,0)" xlink:href="#ap"/></g></defs></g></svg>